<svg width="1954" height="463" viewBox="0 0 1954 463" fill="none" xmlns="http://www.w3.org/2000/svg">
<path d="M298.58 403.18C298.58 419.016 304.871 434.204 316.069 445.401C327.267 456.599 342.454 462.89 358.29 462.89C374.126 462.89 389.314 456.599 400.511 445.401C411.709 434.204 418 419.016 418 403.18V164.34C418 148.504 411.709 133.316 400.511 122.119C389.314 110.921 374.126 104.63 358.29 104.63C342.454 104.63 327.267 110.921 316.069 122.119C304.871 133.316 298.58 148.504 298.58 164.34V403.18Z" fill="#F1F1FF"/>
<path d="M0 403.18C0 419.016 6.29086 434.204 17.4887 445.401C28.6865 456.599 43.8739 462.89 59.71 462.89C75.5461 462.89 90.7335 456.599 101.931 445.401C113.129 434.204 119.42 419.016 119.42 403.18V224.05C119.42 208.214 113.129 193.026 101.931 181.829C90.7335 170.631 75.5461 164.34 59.71 164.34C43.8739 164.34 28.6865 170.631 17.4887 181.829C6.29086 193.026 0 208.214 0 224.05V403.18Z" fill="#F1F1FF"/>
<path d="M298.55 164.34C298.55 164.34 238.84 334.07 119.42 224.05L119.42 261.14C119.42 261.14 216.15 362.41 298.55 253.89V164.34Z" fill="#F1F1FF"/>
<path d="M59.71 149.55C68.5944 149.55 77.2792 146.915 84.6663 141.98C92.0533 137.044 97.8108 130.028 101.211 121.82C104.611 113.612 105.5 104.58 103.767 95.8665C102.034 87.1529 97.7554 79.1489 91.4733 72.8667C85.1911 66.5846 77.1871 62.3064 68.4735 60.5731C59.7599 58.8399 50.728 59.7294 42.5199 63.1293C34.3118 66.5292 27.2963 72.2867 22.3604 79.6738C17.4246 87.0608 14.79 95.7456 14.79 104.63C14.79 116.543 19.5227 127.969 27.9468 136.393C36.3709 144.817 47.7965 149.55 59.71 149.55Z" fill="#F1F1FF"/>
<path d="M358.26 89.84C367.144 89.84 375.829 87.2055 383.216 82.2696C390.603 77.3338 396.361 70.3182 399.761 62.1102C403.161 53.9021 404.05 44.8702 402.317 36.1566C400.584 27.4429 396.305 19.439 390.023 13.1568C383.741 6.87461 375.737 2.59639 367.024 0.863145C358.31 -0.870103 349.278 0.0194631 341.07 3.41935C332.862 6.81924 325.846 12.5768 320.91 19.9638C315.975 27.3509 313.34 36.0357 313.34 44.92C313.34 56.8335 318.073 68.2591 326.497 76.6833C334.921 85.1074 346.347 89.84 358.26 89.84Z" fill="#F1F1FF"/>
<path d="M650.98 394.91C650.869 395.083 650.749 395.25 650.62 395.41L666.07 386.78C663.082 386.799 660.144 387.549 657.513 388.967C654.882 390.384 652.639 392.425 650.98 394.91Z" fill="#F1F1FF"/>
<path d="M710.3 343.37C710.3 343.21 710.3 343.04 710.3 342.87C710.3 342.7 710.3 342.69 710.3 342.6V342.02C710.3 341.1 710.21 340.19 710.16 339.29C710.16 339.06 710.16 338.84 710.16 338.63C710.11 337.73 710.04 336.84 709.97 335.95L709.91 335.2C709.81 334.11 709.71 333.04 709.59 331.97C709.47 330.9 709.38 330.06 709.26 329.12C709.26 328.8 709.18 328.48 709.13 328.12C709.13 327.99 709.13 327.87 709.13 327.75C709.02 326.92 708.9 326.1 708.78 325.29V325.1C708.61 324.1 708.44 323.03 708.25 322.01C708.239 321.912 708.219 321.815 708.19 321.72C708.05 320.92 707.9 320.13 707.73 319.35C707.71 319.192 707.68 319.035 707.64 318.88L707.49 318.17C707.317 317.363 707.137 316.563 706.95 315.77C706.95 315.62 706.89 315.48 706.85 315.33C706.64 314.43 706.41 313.54 706.17 312.66C706.161 312.581 706.141 312.504 706.11 312.43C705.92 311.67 705.71 310.92 705.49 310.18C705.468 310.089 705.441 309.999 705.41 309.91C705.32 309.57 705.21 309.24 705.11 308.91C704.9 308.22 704.69 307.54 704.47 306.91C704.35 306.53 704.22 306.14 704.08 305.76C703.48 303.98 702.84 302.23 702.15 300.53C701.87 299.863 701.59 299.197 701.31 298.53L701.12 298.11C700.81 297.4 700.49 296.69 700.12 295.99C700 295.72 699.87 295.45 699.74 295.19C699.41 294.48 699.06 293.78 698.74 293.09C689.847 275.03 676.087 261.557 657.46 252.67C638.833 243.783 615.403 239.323 587.17 239.29C559.65 239.29 535.57 243.733 514.93 252.62C494.583 261.5 478.673 274.39 467.2 291.29C455.733 307.957 450 328.033 450 351.52C450 375.007 455.867 395.073 467.6 411.72C479.353 428.34 495.687 441.097 516.6 449.99C537.533 458.59 561.613 462.89 588.84 462.89C613.213 462.89 633.853 459.593 650.76 453C667.667 446.407 681 437.377 690.76 425.91C691.39 425.19 692 424.47 692.59 423.74C692.89 423.38 693.18 423.02 693.47 422.65C695.686 419.863 697.71 416.93 699.53 413.87C706.64 401.92 697.75 386.78 683.84 386.78H666.07C663.082 386.799 660.144 387.549 657.513 388.967C654.882 390.384 652.639 392.425 650.98 394.91C650.869 395.083 650.749 395.25 650.62 395.41C650.25 395.96 649.84 396.49 649.42 397.03L648.8 397.79C647.392 399.481 645.858 401.062 644.21 402.52C643.9 402.8 643.58 403.07 643.21 403.34C643.06 403.47 642.9 403.61 642.73 403.74C642.56 403.87 642.09 404.26 641.73 404.51L640.66 405.34L640.02 405.8L639.08 406.47C637.68 407.45 636.2 408.39 634.64 409.29L633.37 410.01C632.86 410.3 632.37 410.58 631.8 410.86C620.053 416.86 605.29 419.86 587.51 419.86C571.463 419.86 557.56 417.28 545.8 412.12C534.333 406.96 525.16 399.937 518.28 391.05L517.54 390.05L517.4 389.85C517.26 389.65 517.12 389.45 516.99 389.24C511.212 380.964 507.523 371.412 506.24 361.4H692.2C696.989 361.403 701.584 359.506 704.977 356.126C708.37 352.746 710.284 348.159 710.3 343.37ZM509.3 328.73C512.98 315.71 521.127 304.79 533.74 295.97L533.86 295.88L534.24 295.62C547.147 286.44 563.933 281.853 584.6 281.86C605.527 281.86 622.01 286.16 634.05 294.76C634.72 295.21 635.37 295.67 636.05 296.14C647.143 304.307 653.363 315.167 654.71 328.72L509.3 328.73Z" fill="#F1F1FF"/>
<path d="M989.55 332.17V451.17C989.55 457.64 982.87 462.88 974.63 462.88H948.55C940.3 462.88 933.62 457.64 933.62 451.17V342.06C933.62 324 929.177 310.813 920.29 302.5C911.69 293.9 897.5 289.6 877.72 289.6C862.82 289.6 849.347 292.467 837.3 298.2C825.253 303.933 815.507 311.243 808.06 320.13C807.6 320.67 807.14 321.21 806.7 321.75C805.79 322.87 804.93 323.99 804.12 325.13C803.8 325.57 803.49 326.02 803.19 326.47L802.95 326.83C802.84 326.99 802.73 327.15 802.63 327.32C800.881 330.004 799.388 332.847 798.17 335.81V451.18C798.17 457.65 791.49 462.89 783.25 462.89H757.23C748.98 462.89 742.3 457.65 742.3 451.18V261.18C742.3 254.72 748.98 249.48 757.23 249.48H783.28C791.52 249.48 798.2 254.72 798.2 261.18V310.82C798.2 310.71 798.27 310.61 798.31 310.5C798.52 309.89 798.73 309.28 798.95 308.68C799.4 307.42 799.89 306.18 800.4 304.94C801.13 303.2 801.92 301.46 802.76 299.74C803.36 298.52 803.99 297.31 804.65 296.1C810.011 286.388 816.991 277.662 825.29 270.3C834.479 262.086 845.126 255.669 856.68 251.38C868.72 246.76 882.343 244.45 897.55 244.45C909.923 244.333 922.243 246.072 934.1 249.61C936.1 250.223 938.037 250.89 939.91 251.61C948.468 254.847 956.397 259.55 963.34 265.51C971.896 273.006 978.531 282.442 982.69 293.03C987.263 303.93 989.55 316.977 989.55 332.17Z" fill="#F1F1FF"/>
<path d="M1117.56 190.7H1091.56C1087.6 190.7 1083.81 192.272 1081.01 195.07C1078.21 197.868 1076.64 201.663 1076.64 205.62V447.96C1076.64 451.918 1078.21 455.714 1081.01 458.514C1083.81 461.313 1087.6 462.887 1091.56 462.89H1117.56C1121.52 462.887 1125.31 461.314 1128.11 458.514C1130.91 455.715 1132.49 451.919 1132.49 447.96V205.62C1132.49 201.662 1130.91 197.867 1128.11 195.069C1125.31 192.272 1121.52 190.7 1117.56 190.7ZM1036.47 249.18C1032.51 249.18 1028.72 250.752 1025.92 253.55C1023.12 256.348 1021.55 260.143 1021.55 264.1V277.68C1021.55 281.638 1023.12 285.434 1025.92 288.234C1028.72 291.033 1032.51 292.607 1036.47 292.61H1172.6C1176.56 292.607 1180.35 291.034 1183.15 288.234C1185.95 285.435 1187.53 281.639 1187.53 277.68V264.1C1187.53 260.142 1185.95 256.347 1183.15 253.549C1180.35 250.752 1176.56 249.18 1172.6 249.18H1036.47Z" fill="#F1F1FF"/>
<path d="M1479.84 343.4C1479.84 343.24 1479.84 343.07 1479.84 342.9V342.63C1479.84 342.43 1479.84 342.24 1479.84 342.05C1479.84 341.13 1479.76 340.22 1479.71 339.32L1479.65 338.66C1479.65 337.76 1479.54 336.87 1479.46 335.98L1479.4 335.23C1479.3 334.14 1479.21 333.07 1479.09 332C1478.97 330.93 1478.88 330.09 1478.76 329.15C1478.76 328.83 1478.67 328.51 1478.63 328.15C1478.63 328.02 1478.63 327.9 1478.58 327.78C1478.46 326.95 1478.34 326.13 1478.23 325.32C1478.23 325.26 1478.23 325.2 1478.23 325.13C1478.07 324.13 1477.9 323.06 1477.71 322.04L1477.65 321.75C1477.5 320.95 1477.36 320.16 1477.19 319.38C1477.17 319.221 1477.13 319.064 1477.09 318.91C1477.09 318.67 1477 318.43 1476.94 318.2C1476.77 317.393 1476.59 316.593 1476.4 315.8C1476.38 315.651 1476.34 315.504 1476.3 315.36C1476.09 314.46 1475.87 313.57 1475.63 312.69C1475.62 312.612 1475.6 312.535 1475.57 312.46C1475.38 311.7 1475.17 310.95 1474.94 310.21C1474.92 310.119 1474.9 310.029 1474.87 309.94L1474.57 308.94C1474.36 308.25 1474.15 307.57 1473.92 306.94C1473.8 306.56 1473.67 306.17 1473.54 305.79C1472.94 304.01 1472.3 302.26 1471.61 300.56C1471.33 299.893 1471.05 299.227 1470.77 298.56C1470.71 298.42 1470.63 298.28 1470.58 298.14C1470.27 297.43 1469.94 296.72 1469.58 296.02C1469.47 295.75 1469.33 295.48 1469.2 295.22C1468.87 294.51 1468.53 293.81 1468.2 293.12C1459.32 275.06 1445.56 261.587 1426.93 252.7C1408.3 243.813 1384.89 239.353 1356.7 239.32C1329.19 239.32 1305.11 243.763 1284.47 252.65C1264.09 261.53 1248.18 274.42 1236.74 291.32C1225.27 307.94 1219.53 328.007 1219.53 351.52C1219.53 375.033 1225.41 395.1 1237.17 411.72C1248.92 428.34 1265.26 441.097 1286.17 449.99C1307.09 458.59 1331.17 462.89 1358.4 462.89C1382.78 462.89 1403.42 459.593 1420.32 453C1437.22 446.407 1450.55 437.377 1460.32 425.91C1460.95 425.19 1461.55 424.47 1462.15 423.74C1462.45 423.38 1462.74 423.02 1463.03 422.65C1465.25 419.863 1467.27 416.93 1469.09 413.87C1476.2 401.92 1467.3 386.78 1453.4 386.78H1435.59C1432.6 386.799 1429.66 387.549 1427.03 388.967C1424.4 390.384 1422.16 392.425 1420.5 394.91C1420.38 395.08 1420.26 395.25 1420.13 395.41C1419.76 395.96 1419.36 396.49 1418.93 397.03C1418.74 397.28 1418.53 397.54 1418.32 397.79C1416.91 399.483 1415.37 401.065 1413.72 402.52C1413.42 402.8 1413.09 403.07 1412.78 403.34C1412.63 403.47 1412.47 403.61 1412.3 403.74C1412.13 403.87 1411.65 404.26 1411.3 404.51C1410.95 404.76 1410.59 405.06 1410.22 405.34L1409.59 405.8C1409.28 406.03 1408.97 406.25 1408.59 406.47C1407.19 407.45 1405.71 408.39 1404.16 409.29L1402.88 410.01C1402.38 410.3 1401.88 410.58 1401.31 410.86C1389.56 416.86 1374.8 419.86 1357.02 419.86C1340.98 419.86 1327.08 417.28 1315.31 412.12C1303.84 406.96 1294.67 399.937 1287.79 391.05C1287.54 390.71 1287.29 390.37 1287.06 390.05C1287.01 389.988 1286.96 389.921 1286.92 389.85C1286.77 389.65 1286.63 389.45 1286.5 389.24C1280.78 380.962 1277.14 371.425 1275.9 361.44H1461.78C1466.56 361.429 1471.15 359.526 1474.53 356.146C1477.92 352.765 1479.82 348.183 1479.84 343.4ZM1278.84 328.76C1282.51 315.74 1290.66 304.82 1303.28 296L1303.4 295.91C1303.51 295.82 1303.65 295.74 1303.78 295.65C1316.68 286.47 1333.45 281.883 1354.09 281.89C1375.01 281.89 1391.49 286.19 1403.53 294.79C1404.2 295.24 1404.86 295.7 1405.53 296.17C1416.63 304.337 1422.85 315.197 1424.2 328.75L1278.84 328.76Z" fill="#F1F1FF"/>
<path d="M1648.15 462.89C1621.2 462.89 1597.4 458.59 1576.77 449.99C1556.42 441.39 1540.51 428.92 1529.04 412.58C1517.57 395.953 1511.84 375.6 1511.84 351.52C1511.84 327.44 1517.57 307.087 1529.04 290.46C1540.51 273.547 1556.42 260.79 1576.77 252.19C1597.44 243.59 1621.23 239.29 1648.15 239.29C1675.07 239.29 1698.58 243.59 1718.67 252.19C1739.02 260.79 1754.93 273.547 1766.4 290.46C1777.87 307.087 1783.6 327.44 1783.6 351.52C1783.6 375.6 1777.87 395.953 1766.4 412.58C1754.93 428.92 1739.02 441.39 1718.67 449.99C1698.6 458.59 1675.09 462.89 1648.15 462.89ZM1648.15 419.89C1663.06 419.89 1676.39 417.31 1688.15 412.15C1700.19 406.703 1709.65 398.963 1716.53 388.93C1723.41 378.61 1726.85 366.14 1726.85 351.52C1726.85 336.9 1723.41 324.43 1716.53 314.11C1709.71 303.557 1699.99 295.197 1688.53 290.03C1676.78 284.583 1663.31 281.86 1648.11 281.86C1633.2 281.86 1619.72 284.583 1607.69 290.03C1596.09 295.114 1586.13 303.297 1578.88 313.68C1572 324 1568.56 336.613 1568.56 351.52C1568.56 366.14 1572 378.61 1578.88 388.93C1585.76 398.93 1595.22 406.67 1607.26 412.15C1619.33 417.31 1632.96 419.89 1648.15 419.89Z" fill="#F1F1FF"/>
<path d="M1953.6 249.56V290.45C1953.6 291.524 1953.26 292.571 1952.63 293.441C1952 294.311 1951.11 294.958 1950.09 295.29C1949.15 295.29 1948.22 295.35 1947.29 295.4C1933.88 296.127 1922.08 299.223 1911.89 304.69C1900.14 310.69 1890.68 318.143 1883.51 327.05C1878.82 332.759 1874.79 338.986 1871.51 345.61V451.31C1871.51 457.13 1866.12 461.96 1859.05 462.89H1828.05C1820.98 461.96 1815.6 457.13 1815.6 451.31V260.89C1815.6 254.42 1822.28 249.18 1830.52 249.18H1856.57C1864.81 249.18 1871.5 254.42 1871.5 260.89V314.11C1873.79 306.528 1876.8 299.184 1880.5 292.18C1884.71 283.873 1890.06 276.201 1896.41 269.39C1903.15 261.82 1911.34 255.679 1920.49 251.33C1928.81 247.419 1937.82 245.157 1947 244.67C1947.8 244.61 1948.62 244.57 1949.44 244.54C1950.61 244.763 1951.66 245.386 1952.42 246.302C1953.18 247.218 1953.6 248.37 1953.6 249.56Z" fill="#F1F1FF"/>
</svg>
