<svg width="542" height="646" viewBox="0 0 542 646" fill="none" xmlns="http://www.w3.org/2000/svg">
<path d="M389.663 646.003H389.673C422.623 646.003 449.333 619.293 449.333 586.343L449.333 347.683C449.333 314.734 422.623 288.023 389.673 288.023H389.663C356.714 288.023 330.003 314.734 330.003 347.683L330.003 586.343C330.003 619.293 356.714 646.003 389.663 646.003Z" fill="#009379"/>
<path d="M91.3534 646.003H91.3634C124.313 646.003 151.023 619.293 151.023 586.343L151.023 407.343C151.023 374.394 124.313 347.683 91.3634 347.683H91.3534C58.4041 347.683 31.6934 374.394 31.6934 407.343L31.6934 586.343C31.6934 619.293 58.4041 646.003 91.3534 646.003Z" fill="#CBE5E0"/>
<path d="M91.3534 332.893C116.134 332.893 136.223 312.804 136.223 288.023C136.223 263.242 116.134 243.153 91.3534 243.153C66.5724 243.153 46.4834 263.242 46.4834 288.023C46.4834 312.804 66.5724 332.893 91.3534 332.893Z" fill="#CBE5E0"/>
<path d="M389.673 273.233C414.454 273.233 434.543 253.144 434.543 228.363C434.543 203.582 414.454 183.493 389.673 183.493C364.892 183.493 344.803 203.582 344.803 228.363C344.803 253.144 364.892 273.233 389.673 273.233Z" fill="#009379"/>
<path d="M27.6855 141.164L43.4925 197.319L34.6776 199.93L17.3508 144.226L27.6855 141.164ZM45.7479 221.117C43.8734 221.672 42.0661 221.478 40.326 220.533C38.5858 219.588 37.4381 218.178 36.8829 216.304C36.3277 214.43 36.5225 212.622 37.4673 210.882C38.4121 209.142 39.8218 207.994 41.6962 207.439C43.5706 206.884 45.3779 207.079 47.1181 208.023C48.8583 208.968 50.0059 210.378 50.5612 212.252C50.9288 213.493 50.9499 214.727 50.6242 215.953C50.3239 217.172 49.7483 218.252 48.8973 219.192C48.0642 220.101 47.0144 220.742 45.7479 221.117Z" fill="#CBE5E0"/>
<path d="M506.794 53.1623L462.032 132.997L449.355 126.115L491.932 45.093L506.794 53.1623ZM438.131 161.902C435.435 160.439 433.647 158.218 432.764 155.239C431.882 152.26 432.172 149.423 433.636 146.727C435.1 144.032 437.321 142.243 440.299 141.361C443.278 140.478 446.115 140.769 448.811 142.232C451.506 143.696 453.295 145.917 454.178 148.896C455.06 151.875 454.77 154.712 453.306 157.407C452.337 159.192 450.992 160.584 449.27 161.583C447.585 162.602 445.748 163.161 443.761 163.261C441.829 163.344 439.952 162.891 438.131 161.902Z" fill="#CBE5E0"/>
<path d="M208.793 441.944V475.784C206.783 476.554 204.593 476.974 202.313 476.974C199.603 476.974 197.043 476.384 194.733 475.324C194.493 475.204 194.263 475.094 194.023 474.974C168.103 462.304 151.023 444.423 151.023 444.423V407.354C170.503 425.294 188.393 435.794 204.693 440.784C206.073 441.214 207.433 441.594 208.793 441.944Z" fill="#72C2B7"/>
<path d="M330.013 347.693V437.183C321.613 448.253 313.053 457.143 304.463 464.163C304.443 464.183 304.423 464.193 304.413 464.203C302.873 465.473 301.323 466.673 299.783 467.803C296.253 469.913 292.123 471.123 287.703 471.123C278.683 471.123 270.843 466.073 266.863 458.633V436.353C268.363 433.543 270.413 431.083 272.873 429.093C273.483 428.663 274.093 428.213 274.693 427.773C311.573 400.093 330.013 347.693 330.013 347.693Z" fill="#72C2B7"/>
<path d="M311.343 447.493C311.343 454.003 308.713 459.883 304.463 464.163C304.443 464.183 304.423 464.193 304.413 464.203C303.033 465.593 301.473 466.803 299.783 467.803C296.253 469.913 292.123 471.123 287.703 471.123C278.683 471.123 270.843 466.073 266.863 458.633C265.083 455.323 264.073 451.523 264.073 447.493C264.073 443.463 265.083 439.663 266.863 436.353C268.363 433.543 270.413 431.083 272.873 429.093C273.483 428.663 274.093 428.213 274.693 427.773C278.423 425.293 282.893 423.863 287.703 423.863C300.763 423.863 311.343 434.443 311.343 447.493Z" fill="#72C2B7"/>
<path d="M220.493 458.803C220.493 466.553 215.633 473.173 208.793 475.783C206.783 476.553 204.593 476.973 202.313 476.973C199.603 476.973 197.043 476.383 194.733 475.323C194.493 475.203 194.263 475.093 194.023 474.973C188.153 471.963 184.133 465.853 184.133 458.803C184.133 448.763 192.273 440.623 202.313 440.623C203.123 440.623 203.913 440.673 204.693 440.783C213.613 441.943 220.493 449.573 220.493 458.803Z" fill="#72C2B7"/>
</svg>
