<svg width="395" height="376" viewBox="0 0 395 376" fill="none" xmlns="http://www.w3.org/2000/svg">
<path fill-rule="evenodd" clip-rule="evenodd" d="M386.381 206.05C381.552 206.518 376.723 206.986 371.895 207.455C348.768 209.202 325.652 212.85 302.702 215.039C302.13 214.12 301.013 214.272 300.333 214.909C298.044 214.712 295.477 212.981 293.402 214.781C293.335 214.772 293.268 214.761 293.201 214.754C289.506 207.747 286.953 200.272 284.476 192.787C282.894 188.186 280.767 183.732 276.834 180.641C270.124 176.037 254.749 166.698 246.869 167.092C246.738 165.697 246.081 164.259 245.001 163.331C247.381 159.319 237.864 156.702 237.193 157.167C237.624 143.766 231.247 132.128 217.187 129.458C204.59 126.864 186.673 126.427 179.899 139.442C179.153 139.36 171.542 139.32 170.804 139.401C169.66 137.968 157.083 151.555 162.238 156.284C116.156 176.437 89.9538 174.031 77.199 230.686C75.4747 236.006 75.349 241.83 73.5283 247.034C67.0503 261.988 61.7961 277.911 60.4885 294.183C57.3303 294.981 56.967 300.487 60.6252 301.283C62.0226 301.588 63.191 302.004 64.21 302.792C63.4135 316.126 66.6756 346.585 68.7309 346.492C72.922 359.677 91.616 363.399 104.851 358.765C102.569 363.008 104.5 369.232 104.5 371.5C152.122 373.281 204.542 368.698 252.151 371.142C258.241 371.056 264.647 372.621 270.654 371.719C274.316 370.851 274.323 365.158 270.608 364.453L286.843 360.966C286.48 360.832 293.535 356.193 298.868 347.523C303.832 337.826 300.453 326.119 302.702 315.569C320.269 314.149 338.124 313.541 355.497 310.601C357.866 317.608 368.121 309.228 371.38 305.857C371.375 305.853 371.372 305.848 371.367 305.842C372.945 305.416 374.21 303.955 374.253 302.224C375.359 300.661 375.591 298.458 374.53 296.949C379.393 269.212 386.805 240.892 389.484 212.896C390.43 212.689 391.324 212.279 392.079 211.646L392.018 211.586C393.299 210.174 393.548 207.736 391.412 206.536C389.689 205.568 388.25 205.868 386.381 206.05Z" fill="white"/>
<path d="M339.406 255.478C339.673 255.745 339.922 256.019 340.138 256.333V256.523C340.229 256.554 340.32 256.585 340.413 256.618C340.514 256.763 340.514 256.763 340.602 256.95C340.646 257.04 340.646 257.04 340.691 257.132C340.913 257.752 340.989 258.366 340.987 259.022C340.987 259.097 340.987 259.172 340.988 259.249C340.989 259.498 340.988 259.747 340.988 259.995C340.988 260.175 340.989 260.354 340.989 260.534C340.991 261.02 340.991 261.503 340.99 261.987C340.99 262.394 340.991 262.8 340.991 263.203C340.992 264.163 340.992 265.122 340.992 266.081C340.991 267.069 340.992 268.057 340.994 269.045C340.996 269.895 340.996 270.745 340.996 271.6C340.996 272.107 340.996 272.616 340.997 273.12C340.998 273.597 340.998 274.07 340.997 274.554C340.997 274.728 340.997 274.903 340.998 275.077C341.009 277.822 341.009 277.822 340.139 278.838C339.974 279 339.808 279.151 339.628 279.295C339.484 279.405 339.484 279.405 339.407 279.598C339.217 279.714 339.217 279.714 338.977 279.835C338.9 279.876 338.822 279.916 338.742 279.957C338.127 280.241 337.616 280.295 336.947 280.292C336.861 280.294 336.774 280.295 336.685 280.297C335.476 280.298 334.661 279.789 333.791 278.948C333.422 278.549 333.202 278.107 332.996 277.599C332.947 277.494 332.947 277.494 332.898 277.387C332.673 276.693 332.707 275.924 332.702 275.202C332.701 275.099 332.7 274.996 332.699 274.89C332.696 274.553 332.694 274.215 332.692 273.874C332.69 273.638 332.688 273.404 332.686 273.168C332.681 272.551 332.676 271.933 332.672 271.316C332.667 270.685 332.662 270.053 332.657 269.426C332.647 268.191 332.638 266.956 332.629 265.721H332.446C332.29 265.882 332.29 265.882 332.131 266.083C331.71 266.602 331.71 266.602 331.531 266.766H331.347C331.317 266.86 331.287 266.954 331.256 267.051C331.123 267.193 331.123 267.193 330.958 267.336C330.905 267.383 330.851 267.43 330.796 267.478C330.591 267.639 330.38 267.772 330.157 267.906C330.068 267.96 329.98 268.013 329.887 268.069C329.791 268.125 329.695 268.181 329.596 268.238C329.502 268.294 329.406 268.35 329.309 268.407C328.539 268.804 327.744 268.906 326.892 268.898C326.796 268.897 326.701 268.896 326.602 268.895C324.908 268.856 323.297 268.277 321.914 267.242V267.052C321.849 267.029 321.783 267.006 321.715 266.982C321.426 266.848 321.223 266.682 320.981 266.471C320.705 266.193 320.705 266.193 320.358 266.102C320.358 266.156 320.358 266.209 320.358 266.265C320.354 267.575 320.349 268.886 320.341 270.197C320.338 270.831 320.335 271.46 320.333 272.097C320.332 272.709 320.329 273.322 320.324 273.93C320.323 274.163 320.322 274.395 320.322 274.628C320.32 277.687 320.32 277.687 319.352 278.921C319.287 279.004 319.223 279.086 319.158 279.17C317.931 280.215 316.759 280.367 315.23 280.253C314.094 280.038 313.27 279.17 312.575 278.258C311.986 277.347 311.999 276.273 312.001 275.209C312.001 275.077 312.001 274.945 312.001 274.813C312 274.457 312 274.101 312.001 273.74C312.001 273.366 312.001 272.991 312 272.619C312 271.99 312 271.365 312.001 270.729C312.002 270.004 312.002 269.276 312.001 268.554C312 267.929 312 267.3 312.001 266.682C312.001 266.31 312.001 265.939 312 265.571C312 265.221 312 264.871 312.001 264.517C312.001 264.329 312.001 264.141 312 263.954C312.007 262.415 312.292 261.18 313.31 260.012C313.556 259.81 313.556 259.81 313.859 259.632C313.937 259.585 314.015 259.538 314.095 259.489C314.839 259.05 315.459 258.839 316.311 258.854C316.381 258.854 316.45 258.854 316.522 258.854C317.034 258.858 317.034 258.858 317.244 258.967C317.39 259.024 317.538 259.082 317.684 259.139C318.052 259.292 318.323 259.446 318.618 259.727C318.674 259.774 318.731 259.82 318.788 259.868C319.652 260.601 320.107 261.455 320.253 262.594C320.328 263.091 320.413 263.313 320.814 263.62C320.872 263.67 320.931 263.72 320.991 263.772C322.346 264.912 323.839 265.767 325.615 265.748C325.747 265.75 325.747 265.75 325.881 265.751C326.688 265.748 327.483 265.613 328.17 265.148C328.245 265.099 328.319 265.049 328.396 264.998C328.463 264.952 328.53 264.905 328.599 264.858C328.699 264.791 328.8 264.725 328.903 264.656C329.528 264.204 329.992 263.678 330.459 263.051C330.51 262.988 330.561 262.926 330.614 262.861H330.797C330.818 262.799 330.839 262.737 330.86 262.674C331.019 262.29 331.224 261.942 331.432 261.581C331.695 261.127 331.948 260.675 332.17 260.195C332.209 260.118 332.248 260.043 332.287 259.964C332.534 259.452 332.67 258.976 332.753 258.406C332.91 257.38 333.328 256.506 333.999 255.727C334.148 255.628 334.301 255.532 334.456 255.442C334.499 255.397 334.542 255.351 334.586 255.305C335.841 254.032 338.139 254.455 339.402 255.442L339.406 255.478Z" fill="black"/>
<path d="M317.615 251.678C318.362 252.272 319.08 252.961 319.263 253.958C319.347 255.069 319.2 255.924 318.582 256.846C318.048 257.486 317.383 257.734 316.586 257.805C315.708 257.847 314.966 257.768 314.261 257.181C313.54 256.484 313.071 255.747 313.025 254.711C313.066 253.761 313.374 252.954 314.023 252.28C314.975 251.403 316.44 250.978 317.612 251.689L317.615 251.678Z" fill="black"/>
<path d="M338.399 247.404C339.126 247.939 339.69 248.515 339.882 249.446C339.963 250.371 340.013 251.327 339.551 252.144C339.424 252.294 339.424 252.294 339.149 252.389C339.088 252.515 339.027 252.642 338.966 252.769C338.811 252.903 338.811 252.903 338.629 253.018C338.57 253.056 338.51 253.095 338.45 253.135C337.679 253.523 336.793 253.555 335.96 253.379C335.156 253.09 334.412 252.41 334.019 251.631C333.746 250.782 333.674 249.741 333.995 248.886C334.256 248.425 334.65 247.879 335.121 247.642C335.17 247.598 335.219 247.555 335.27 247.51C336.158 246.88 337.476 246.823 338.401 247.399L338.399 247.404Z" fill="black"/>
<path fill-rule="evenodd" clip-rule="evenodd" d="M180.777 136.927C182.212 133.327 187.057 134.728 186.517 138.508C186.194 140.773 184.951 143.165 183.836 145.15C182.928 146.766 181.892 148.343 180.488 149.553C182.989 151.885 185.583 154.13 188.244 156.261C191.148 158.588 194.201 160.731 197.358 162.702C200.124 164.43 203.017 165.961 205.625 167.934C208.051 169.767 210.26 171.971 211.384 174.849C212.582 177.914 212.062 181.079 211.179 184.142L211.079 184.489C210.178 187.523 208.618 191.18 210.781 194.041C211.881 195.495 213.482 196.526 214.864 197.69C216.094 198.725 217.247 199.849 218.304 201.056C220.61 203.69 222.486 206.654 223.669 209.955L223.775 210.255C224.789 213.178 225.531 216.758 224.16 219.628C223.767 220.451 222.499 220.184 222.278 219.382C221.779 217.568 221.806 215.668 221.389 213.828C220.954 211.913 220.231 210.097 219.286 208.379C217.459 205.054 214.986 202.213 212.061 199.812L211.186 199.102C208.905 197.231 206.81 195.248 206.347 192.153C205.853 188.842 207.18 185.688 208.034 182.555C208.629 180.37 208.822 178.278 208.179 176.304C207.394 177.585 206.323 178.8 205.475 179.884C203.786 182.045 202.083 184.193 200.383 186.344C198.64 188.55 196.94 190.791 195.322 193.09C194.597 194.119 193.881 195.154 193.168 196.189C192.63 196.966 191.882 197.744 191.297 198.538C191.439 198.963 191.428 199.453 191.17 199.801C188.068 203.989 183.653 195.249 182.501 193.041C180.157 188.543 178.412 183.767 176.058 179.271C173.621 174.609 170.845 170.074 167.752 165.818C165.881 163.245 163.783 160.827 162.072 158.171C158.038 161.825 152.731 164.275 147.856 166.495C142.5 168.935 136.936 170.928 131.445 173.046L129.823 173.675C120.361 177.364 110.668 181.416 102.804 187.969C93.5625 195.669 88.0954 206.402 84.0251 217.515C79.3398 230.309 75.4635 243.448 71.8501 256.581C70.001 263.3 68.2465 270.049 66.5971 276.819C65.1436 282.784 63.9388 288.808 62.2563 294.712C65.6686 294.59 69.5604 295.911 72.4738 296.291C85.7513 298.027 98.8499 300.795 111.385 305.588C112.934 306.18 113.382 307.725 113.045 308.977C113.938 308.726 114.83 308.47 115.723 308.22C114.745 306.722 115.212 304.045 115.288 302.384L115.293 302.271C115.372 300.059 115.612 297.844 115.768 295.637C116.065 291.428 116.451 287.25 116.964 283.065L117.095 282.019C117.677 277.467 118.107 272.887 118.742 268.341L118.817 267.822C118.513 266.66 118.158 265.51 117.786 264.366C116.795 261.321 115.396 258.453 114.17 255.503C114.025 255.156 114.52 254.957 114.752 255.164C116.828 257.031 118.478 259.398 119.803 261.873C119.826 261.757 119.846 261.64 119.87 261.524L120.021 260.779C120.394 258.967 120.848 257.058 121.961 255.587C122.08 255.433 122.314 255.399 122.426 255.587C123.492 257.389 123.611 259.671 123.775 261.722C123.961 264.039 123.984 266.388 123.951 268.714C123.887 273.257 123.567 277.815 123.311 282.351C123.061 286.81 122.568 291.211 121.934 295.625L121.814 296.454C121.504 298.554 121.25 300.682 120.841 302.769L120.726 303.337C120.507 304.372 120.372 305.83 119.937 307.043C131.133 303.924 142.346 300.875 153.581 297.88C161.7 295.715 169.829 293.583 177.953 291.436C178.382 290.665 178.916 289.943 179.583 289.299C181.777 287.175 184.686 286.228 187.355 287.862C187.571 287.996 187.59 288.335 187.355 288.464C186.843 288.744 186.331 289.03 185.827 289.328L190.707 288.007C194.353 287.02 198.044 285.786 201.776 285.098C208.65 281.709 216.044 279.256 223.285 276.831L224.138 276.542C227.846 275.281 231.681 273.866 235.513 273.166C238.318 272.653 241.609 273.272 242.736 276.143C244.164 277.082 245.508 278.187 246.805 279.273C247.742 280.059 248.64 280.894 249.554 281.707L249.722 281.854C250.468 282.501 251.06 282.935 251.244 283.965C251.338 284.497 250.999 285.217 250.342 285.147C248.332 284.932 246.697 282.603 245.333 281.214C244.279 280.139 243.218 279.027 242.257 277.847C241.697 278.15 240.928 278.096 240.571 277.421C238.721 273.922 233.653 276.347 230.85 277.176L226.832 278.365C224.824 278.959 222.815 279.557 220.811 280.166C215.302 281.836 209.822 283.707 204.263 285.241C204.76 285.788 204.692 286.759 203.746 287.129C199.397 288.835 194.623 289.716 190.102 290.887C187.249 291.626 184.396 292.371 181.545 293.118C181.057 293.91 180.705 294.804 180.557 295.846C180.013 299.677 181.062 304.098 182.084 307.803L182.239 308.357C183.078 311.335 184.315 314.988 186.888 316.869C187.516 317.328 188.316 317.647 189.122 317.719C194.158 315.128 199.194 312.54 204.233 309.954C205.166 309.477 206.03 310.125 206.24 310.895C208.016 310.604 209.788 310.144 211.403 309.598C214.116 308.676 216.234 306.921 218.777 305.708C223.699 303.358 228.724 306.244 233.132 308.437L234.147 308.935C236.122 309.893 240.234 311.733 241.18 309.114C242.098 306.579 239.199 303.871 237.326 302.731C235.095 301.37 232.495 300.643 229.973 300.036C228.532 299.69 227.075 299.407 225.609 299.201C223.944 298.968 222.227 299.003 220.624 298.463C219.829 298.197 219.706 296.933 220.624 296.724C223.09 296.164 226.033 296.775 228.606 297.401L229.951 297.732C232.543 298.367 235.161 299.164 237.523 300.432C239.239 301.354 241.052 302.756 242.236 304.47C243.264 303.516 244.543 303.548 245.875 303.903L246.6 304.102C247.795 304.435 248.762 304.661 249.925 304.433C250.08 303.588 250.238 302.742 250.406 301.897C252.063 293.589 253.879 285.313 255.883 277.08C259.342 262.881 263.342 248.838 267.853 234.938L268.306 233.548C269.345 230.368 270.183 226.906 271.861 223.985C273.447 221.224 275.988 219.632 279.007 218.79C282.433 217.833 286.034 217.333 289.53 216.688C290.309 216.544 291.091 216.407 291.871 216.267C291.213 215.077 290.72 213.726 290.277 212.689L290.199 212.51C289.246 210.34 288.39 208.131 287.563 205.91L286.946 204.241C285.454 200.219 283.914 196.265 281.816 192.506C279.607 188.548 276.677 185.313 273.027 182.636C265.581 177.176 256.606 174.39 249.384 168.555C249.088 168.317 249.467 167.908 249.768 168.06C254.644 170.506 259.908 172.171 264.979 174.164L265.98 174.558C269.99 176.146 274.061 177.875 277.53 180.445C281.398 183.312 284.446 186.871 286.736 191.104C288.993 195.277 290.437 199.946 292.028 204.404L292.455 205.592C293.096 207.373 293.76 209.147 294.52 210.881C295.124 212.256 296.25 213.826 296.762 215.398C298.163 215.155 299.562 214.912 300.964 214.679C331.327 209.615 362.028 206.638 392.798 205.768C394 205.734 394.624 206.881 394.447 207.93C391.493 225.375 388.869 242.878 385.99 260.335C384.733 267.955 383.451 275.568 382.139 283.178C381.476 287.033 380.706 290.874 380.078 294.736C379.569 297.853 379.2 300.996 378.328 304.042C377.545 306.773 376.344 309.406 374.372 311.49C372.247 313.736 369.28 314.823 366.293 315.336C358.711 316.641 350.934 317.173 343.29 318.041L302.597 322.667C303.192 328.066 303.237 333.383 302.963 338.846L302.808 341.828C302.68 344.227 302.528 346.629 302.185 349.003C301.751 351.98 300.387 354.502 298.378 356.727C296.535 358.769 294.294 360.513 292.114 362.184C289.852 363.917 287.515 365.592 284.854 366.664L284.51 366.801C282.175 367.711 277.799 369.12 274.61 368.606C275.026 370.691 274.5 370.5 273.583 371.5C273.252 372.458 272.59 372.816 271.821 372C270.298 370.382 271.119 371.87 270.759 369.76C270.383 367.564 270.06 365.362 269.772 363.153C269.216 358.883 268.782 354.574 268.651 350.267C268.515 345.844 268.568 341.416 268.806 336.998C268.928 334.731 269.081 332.463 269.369 330.209C269.492 329.248 269.617 328.285 269.761 327.327C269.814 326.977 269.871 326.629 269.934 326.281L266.281 326.693C260.681 327.317 255.077 327.882 249.437 327.969C248.77 327.98 248.255 327.676 247.919 327.232C247.563 327.815 246.939 328.232 246.047 328.229C238.171 328.199 230.835 325.626 223.672 322.593C220.061 321.065 216.506 319.41 212.889 317.893C209.513 316.478 205.905 315.469 202.611 313.875L193.955 318.41C193.892 318.634 193.811 318.845 193.724 319.022C193.16 320.17 192.048 320.795 190.915 321.264C189.825 321.716 188.696 321.855 187.598 321.742C181.033 325.179 174.467 328.612 167.896 332.038L161.325 335.46C148.23 342.272 135.188 349.195 122.011 355.845L121.041 356.334C116.49 358.613 111.603 360.924 106.552 362.649C106.463 363.926 106.519 365.169 106.626 366.52L106.652 366.815C106.803 368.412 107.126 370.413 105.843 371.55C105.176 372.143 103.984 372.145 103.53 371.253C102.707 369.636 103.446 367.087 103.707 365.33C103.799 364.706 103.912 364.062 104.079 363.439C98.2888 365.162 92.3233 365.996 86.4309 365.03C80.6941 364.089 76.251 360.478 72.6691 356.062C68.8888 351.402 66.2024 345.971 64.7613 340.148C63.121 333.523 63.0138 326.681 63.0524 319.896C63.0931 312.669 63.3608 305.407 64.2406 298.229C63.2766 298.002 62.2077 297.807 61.2336 297.874C60.7511 298.645 59.8153 298.97 58.9696 298.871C57.1307 300.896 61.7951 302.967 63.2858 303.486C63.8033 303.665 63.748 304.505 63.151 304.479L62.7749 304.462C60.4716 304.34 58.092 303.948 56.7378 301.809C55.6526 300.094 55.9787 298.064 57.2722 296.667C58.1267 288.595 60.1693 280.736 62.0705 272.863C63.9361 265.135 66.0109 257.456 68.2101 249.816L69.196 246.396C72.6584 234.419 76.2775 222.343 81.0536 210.84C83.4387 205.097 86.1861 199.459 89.9103 194.451C93.3818 189.783 97.4802 185.789 102.191 182.376C110.974 176.015 121.279 172.171 131.405 168.51L131.858 168.346C137.106 166.45 142.34 164.53 147.527 162.477C152.115 160.659 156.51 158.355 161.077 156.512C160.928 156.242 160.784 155.97 160.647 155.695L160.562 155.766C160.547 155.777 160.533 155.788 160.519 155.799C160.058 156.117 159.383 155.961 159.004 155.604C157.936 154.597 158.298 153.479 159.011 152.434L159.104 152.3C159.977 151.08 160.754 149.79 161.56 148.525L162.064 147.733C163.415 145.62 164.835 143.492 166.637 141.745C167.472 140.936 168.385 140.33 169.353 139.878C169.269 139.704 169.995 139.347 170.202 139.527C173.269 138.406 176.797 138.641 180.141 138.949M300.629 322.89L296.365 323.374C291.673 323.907 286.981 324.423 282.287 324.934L272.094 326.041C272.067 326.621 271.997 327.189 271.984 327.627C271.918 329.888 271.869 332.15 271.821 334.41C271.726 338.942 271.83 343.479 272.129 348.004C272.419 352.386 272.799 356.77 273.393 361.125L273.513 361.994L273.583 362.452C274.068 362.498 274.543 362.728 274.938 363.2C275.8 364.228 278.921 363.228 280.141 362.795C282.147 362.082 284.034 360.877 285.777 359.67C287.478 358.491 289.01 357.116 290.483 355.668L291.687 354.477C292.885 353.288 294.085 352.02 294.819 350.524C295.815 348.494 295.943 346.004 296.236 343.794C296.595 341.074 297.022 338.356 297.475 335.652M176.853 294.354L176.41 294.471C160.344 298.735 144.303 303.125 128.188 307.202C120.214 309.219 112.201 311.091 104.216 313.07L102.924 313.393C96.6246 314.983 90.2499 316.898 85.4263 321.462C85.2483 321.63 84.9899 321.371 85.1575 321.192C90.356 315.665 97.7497 313.324 104.849 311.296C106.161 310.92 107.475 310.553 108.787 310.181C99.1328 306.742 89.3259 303.751 79.2926 301.617C76.709 301.068 74.0952 300.664 71.5137 300.113C69.7133 299.728 67.955 299.171 66.1737 298.709L64.7724 298.358L64.7539 302.782C64.7305 309.049 64.7417 315.311 65.0617 321.576L65.1222 322.735C65.4956 329.708 66.0783 336.826 68.5552 343.401C70.5677 348.743 73.7757 353.775 77.9709 357.667C80.0936 359.637 82.3759 361.168 85.197 361.925C87.8163 362.628 90.5608 362.711 93.2535 362.522C106.169 361.623 117.667 354.614 128.886 348.81C147.238 339.317 165.591 329.829 183.961 320.373C183.464 320.035 182.997 319.643 182.572 319.204C180.109 316.662 178.809 313.183 177.955 309.814C177.046 306.227 176.504 302.382 176.44 298.681M200.227 324.037C200.388 323.951 200.577 324.059 200.583 324.243C200.641 325.643 199.865 327.026 199.286 328.29L199.226 328.424C198.52 329.989 197.751 331.532 196.953 333.051C195.36 336.085 193.705 339.087 191.976 342.047C188.503 348.002 184.641 353.705 180.078 358.891C179.047 360.061 177.352 358.56 178.014 357.298C181.203 351.22 184.921 345.48 188.748 339.79C190.663 336.941 192.579 334.09 194.513 331.254C195.32 330.07 196.137 328.892 196.977 327.731L197.484 327.036M390.762 209.249C374.641 209.736 358.538 210.786 342.494 212.432C327.572 213.964 312.704 216.001 297.921 218.541C294.833 219.071 291.75 219.624 288.67 220.199L286.821 220.545C283.741 221.128 279.978 221.369 277.236 223.012C274.344 224.747 273.562 228.369 272.6 231.355C271.469 234.869 270.365 238.392 269.294 241.925C265.034 255.947 261.143 270.09 257.671 284.328C255.949 291.395 254.42 298.5 252.81 305.594C251.378 311.896 249.798 318.126 248.15 324.364C248.353 324.206 248.602 324.086 248.903 324.022C257.095 322.282 265.458 321.525 273.772 320.562L274.576 320.469C283.178 319.458 291.78 318.455 300.385 317.487L357.369 311.086C360.729 310.708 364.329 310.657 367.599 309.756C373.16 308.224 374.463 302.014 375.397 297.068L375.424 296.917C378.237 281.974 380.476 266.901 383.1 251.919M249.475 306.993C247.262 306.846 244.235 304.823 242.556 304.968C243.437 306.445 243.835 308.13 243.328 309.928C241.914 314.935 235.522 312.345 232.444 310.815C229.92 309.561 227.483 308.026 224.688 307.439C221.523 306.773 219.378 308.031 216.703 309.48C214.507 310.671 212.115 311.526 209.654 311.968C208.346 312.204 207.103 312.228 205.862 312.137C205.789 312.198 205.704 312.254 205.608 312.305L204.952 312.648C207.919 312.784 210.941 313.699 213.701 314.536C216.562 315.403 219.37 316.449 222.164 317.519L224.913 318.575C231.692 321.169 238.71 323.631 246.047 323.609C246.574 323.607 247.006 323.754 247.347 323.992M237.098 291.307C239.284 291.039 241.3 291.326 243.047 292.747C245.153 294.461 246.568 297.304 249.595 297.491C250.478 297.545 250.684 298.784 249.806 299.045C247.553 299.711 245.727 298.492 244.192 296.911L243.16 295.833C241.642 294.263 240.243 293.049 237.667 293.144C234.91 293.244 232.148 293.88 229.409 294.204C226.305 294.571 223.202 294.883 220.089 295.153C219.943 295.165 219.919 294.939 220.055 294.905L223.541 294.038M234.988 282.379L235.348 282.344C238.522 282.036 241.425 282.023 244.259 283.729L244.802 284.058C247.358 285.61 250.141 287.437 251.738 289.951C251.999 290.361 251.567 290.845 251.13 290.742C248.058 290.004 245.813 287.754 243.23 286.069C240.331 284.178 237.337 284.489 234.032 284.783C230.832 285.067 227.634 285.459 224.464 285.99C221.486 286.492 218.499 287.281 215.492 287.533V287.527C215.149 287.527 214.954 287.011 215.304 286.835C218.355 285.313 221.891 284.593 225.211 283.897M126.312 196.161C126.308 195.911 126.661 195.818 126.784 196.034C128.849 199.664 129.929 204.113 131.029 208.112C132.181 212.301 133.111 216.532 133.946 220.794C135.639 229.425 136.54 238.007 136.602 246.804C136.61 248.059 134.562 248.394 134.362 247.107C133.031 238.55 131.757 229.984 130.417 221.43C129.742 217.127 128.958 212.841 128.206 208.551M146.755 202.484C146.603 201.983 147.332 201.817 147.519 202.273C151.663 212.437 153.066 223.953 150.406 234.676C149.999 236.316 147.594 235.605 147.901 233.986M200.211 193.453C200.188 193.079 200.676 193.02 200.86 193.277C202.822 196.042 203.638 199.744 207.082 201.171C208.803 201.885 210.738 201.761 212.257 202.965C213.274 203.771 214.053 205.043 213.29 206.263C213.044 206.657 212.356 206.855 212.022 206.427C211.534 205.803 211.277 205.055 210.615 204.587C209.681 203.928 208.422 203.886 207.353 203.576C205.968 203.176 204.747 202.473 203.748 201.432M233.015 147.351C233.218 147.249 233.411 147.314 233.541 147.49C233.726 147.739 233.704 147.98 233.477 148.151C233.779 148.769 234.136 150.315 234.187 150.54C234.395 151.454 234.614 152.361 234.844 153.266C235.308 155.095 235.716 156.938 236.18 158.767C236.672 160.705 237.259 162.625 237.913 164.514C237.955 164.637 238.001 164.762 238.049 164.89L238.124 165.081L238.142 165.051C238.275 164.842 238.551 164.989 238.519 165.209C238.489 165.412 238.447 165.613 238.412 165.814L238.481 165.995C238.908 167.143 239.2 168.354 238.417 169.368C238.124 169.746 237.801 169.971 237.4 170.037C236.754 172.161 235.946 174.244 235.079 176.245L234.827 176.829C233.552 179.749 232.194 182.631 230.165 185.116C227.952 187.83 224.905 189.684 222.977 192.657C222.08 194.041 221.454 195.494 220.949 197.057L220.757 197.65C220.397 198.755 219.983 199.825 218.945 200.473C218.614 200.679 218.118 200.614 217.851 200.333C215.724 198.084 217.95 193.886 219.235 191.709C221.018 188.682 223.599 186.745 226.181 184.461C228.967 182 230.744 178.707 232.463 175.464C233.515 173.475 234.532 171.446 235.602 169.449C234.484 168.462 234.126 166.501 233.747 165.139L233.714 165.016C233.087 162.834 232.589 160.595 232.276 158.345C231.974 156.183 231.847 154.052 231.927 151.877L231.95 151.323M237.171 157.644C236.925 157.305 237.334 156.922 237.672 156.992C239.733 157.419 241.746 158.664 243.597 159.672L243.793 159.779C245.269 160.574 246.755 161.549 247.531 163.093C248.373 164.771 248.303 166.705 248.188 168.531L248.178 168.702C248.038 170.89 248.014 173.164 247.551 175.312C247.313 176.412 246.317 176.722 245.464 176.462C244.449 179.661 241.601 182.018 239.519 184.543C236.866 187.763 237.365 192.108 237.643 195.984C237.755 197.554 235.801 198 234.795 197.163L232.474 195.238C232.089 194.917 231.703 194.595 231.318 194.272C230.989 193.994 230.662 193.716 230.338 193.434L229.855 193.007C229.64 192.814 228.694 191.758 228.417 191.715C227.747 191.608 226.154 193.373 225.609 193.927L225.54 193.996C224.515 195 223.588 196.082 222.724 197.228C222.566 197.439 222.255 197.263 222.369 197.021C223.143 195.364 224.042 193.782 225.11 192.301L225.326 192.006C226.036 191.049 226.989 189.361 228.244 189.078C229.775 188.734 231.304 190.268 232.418 191.12L232.489 191.172C233.02 191.57 233.543 191.974 234.065 192.381C234.011 189.495 234.376 186.579 235.868 184.091C236.92 182.337 238.495 181.037 239.843 179.531C241.345 177.853 242.129 175.789 243.488 174.041C243.662 173.816 243.904 173.696 244.164 173.656C244.217 172.25 244.425 170.832 244.585 169.441L244.631 169.026C244.793 167.515 245.175 165.671 244.435 164.256C243.736 162.919 242.132 161.977 240.944 161.07L239.973 160.317M170.304 141.672C169.685 142.03 169.105 142.477 168.579 143.034C166.923 144.788 165.738 146.972 164.587 149.073C163.967 150.205 163.368 151.348 162.743 152.477C162.471 152.968 162.191 153.453 161.908 153.939C161.777 154.162 161.39 154.606 161.197 154.881C161.411 155.18 161.632 155.475 161.857 155.766C161.944 155.878 167.883 162.342 169.954 164.872C173.125 168.747 175.959 172.841 178.382 177.222C180.753 181.512 182.56 186.055 184.758 190.428C185.858 192.618 187.086 194.791 188.652 196.687C188.712 196.76 188.776 196.831 188.839 196.904C189.435 195.291 190.967 193.563 191.719 192.571L191.789 192.479C193.496 190.18 195.298 187.953 197.139 185.763C198.819 183.762 200.543 181.806 202.309 179.881L202.972 179.161C204.202 177.834 205.765 175.847 207.567 174.898C207.373 174.555 207.149 174.215 206.894 173.879C205.206 171.677 202.82 170.078 200.468 168.636L198.941 167.708C193.189 164.206 187.524 160.541 182.53 155.989C179.888 153.583 177.281 151.059 175.06 148.252L174.275 147.258M179.904 139.937C177.209 140.164 174.301 140.11 171.811 140.987C174.024 143.077 176.128 145.334 178.289 147.459C178.481 146.022 178.874 144.602 179.208 143.2" fill="black"/>
<path fill-rule="evenodd" clip-rule="evenodd" d="M207.456 7.00128C226.64 7.00128 246.483 21.857 253.515 31.3367C259.427 39.3068 262.611 75.3475 262.611 99.7047C262.611 104.798 265.424 114.401 264.604 119.273C261.594 137.128 248.485 152.104 222.538 152.104C196.592 152.104 177.987 141.828 158.702 114.241C149.344 114.241 144.809 107.072 144.743 95.7584C144.677 84.4433 153.776 80.3277 153.776 80.3277C153.776 80.3277 150.532 35.6788 158.702 24.0544C166.872 12.4298 188.274 7.00128 207.456 7.00128Z" fill="white"/>
<path fill-rule="evenodd" clip-rule="evenodd" d="M199.385 0.687868C211.498 -0.537385 223.367 0.49207 235.303 2.62237C236.215 2.78734 236.733 3.38512 236.925 4.10379C242.548 4.36028 248.175 4.77247 253.79 5.07958C255.827 5.19106 256.983 7.20238 256.054 9.0187C255.869 9.37947 255.675 9.7305 255.48 10.0815L255.726 10.0004C257.415 9.45916 259.24 9.19214 260.885 10.0515C262.98 11.1452 263.801 13.5581 263.339 15.7791C263.22 16.3463 263.02 16.8896 262.795 17.42C263.254 17.3896 263.718 17.3997 264.177 17.4604C266.622 17.7844 268.44 19.6577 268.568 22.1522C268.758 25.9188 266.329 29.74 263.467 32.4365C263.882 33.2909 264.041 34.2967 263.868 35.3161C263.524 37.3311 262.038 38.5378 260.316 39.325C261.034 41.6037 261.373 43.986 261.173 46.4207C261.106 47.2334 260.394 47.9048 259.644 48.0695C262.443 55.7701 263.86 64.0377 264.879 72.0937C265.606 77.8253 265.964 83.5907 266.008 89.3656C266.028 91.972 265.985 94.5831 265.877 97.1911L265.832 98.1685C265.697 100.987 265.689 103.947 265.182 106.735C266.913 109.675 267.608 113.324 267.903 116.618C268.267 120.695 267.69 124.901 266.403 128.779C261.544 143.435 246.881 152.684 232.154 155.087C218.521 157.312 202.747 154.317 194.781 141.947C194.655 141.75 194.922 141.589 195.077 141.718C200.778 146.348 207.389 148.413 214.573 149.419C226.992 151.155 240.952 148.212 250.919 140.407C255.702 136.66 259.152 131.207 260.67 125.336C261.444 122.337 261.711 119.206 261.405 116.119C261.095 112.986 259.707 110.312 258.832 107.353C258.538 106.353 258.848 105.425 259.461 104.764C259.632 102.361 260.038 99.9364 260.193 97.5408C260.366 94.8163 260.47 92.0933 260.508 89.3656C260.578 83.7088 260.342 78.0411 259.865 72.4078C258.994 62.0925 256.68 52.0275 255.322 41.7998C254.818 42.2503 254.097 42.4354 253.342 42.0418L253.264 41.999L252.851 41.7631C252.827 41.7631 252.802 41.7664 252.778 41.7695C249.957 42.0432 247.03 41.6516 244.327 40.8108C241.498 39.9335 238.874 38.5834 236.53 36.7843C236.084 39.0422 235.898 41.3239 235.895 43.6259C235.892 45.0638 234.368 45.81 233.157 45.1958C227.797 42.4749 222.674 39.3396 217.813 35.8157C217.245 38.7218 216.677 41.6276 216.106 44.5371C215.886 45.6581 214.458 46.1104 213.541 45.5771C209.9 43.4604 206.754 40.6897 204.193 37.395C203.682 38.3717 203.169 39.3485 202.653 40.323L201.875 41.7829C201.109 43.2175 200.081 44.8042 198.402 45.2628C196.625 45.749 195.141 44.5983 194.545 42.9914C194.362 42.4921 194.193 41.9787 194.038 41.4622C192.523 44.9156 190.814 48.291 188.882 51.5111C185.983 56.3409 182.503 60.6445 179.032 65.0593C177.979 66.3997 176.175 65.1202 176.029 63.8176C175.944 63.0514 175.874 62.2818 175.813 61.5153C173.792 65.5913 171.681 69.6293 169.383 73.5502L169.712 74.8385C170.661 78.6452 171.448 82.4791 172.305 86.3056C172.581 87.5402 171.924 89.3065 170.48 89.5157C168.754 89.768 167.123 90.648 165.356 90.0427C163.429 89.3815 163.049 87.7174 162.139 86.1411C161.956 85.8265 161.745 85.5375 161.518 85.2644L161.461 85.3378C161.32 85.5247 160.981 85.3219 161.066 85.1094L161.165 84.8635C160.383 84.0346 159.448 83.3431 158.588 82.6005C156.545 82.2555 154.246 82.6324 152.839 83.4629C149.632 85.3522 148.16 89.2474 148.129 92.8296C148.092 97.0218 149.393 101.733 151.589 105.317C152.555 106.895 153.88 108.318 155.629 109.017C157.366 109.712 159.248 109.496 161.014 110.151C162.183 110.587 162.903 111.882 162.198 113.058C162.15 113.138 162.097 113.213 162.046 113.291L162.57 113.987C162.932 114.47 163.309 114.987 163.661 115.525C164.56 116.557 165.505 117.553 166.421 118.569C168.113 120.442 169.756 122.367 171.42 124.266C172.992 126.059 174.654 127.743 176.367 129.4C177.985 130.97 180.006 132.289 181.492 133.965C182.938 135.598 183.331 138.449 180.952 139.395C178.321 140.444 175.991 137.986 174.219 136.347L174.144 136.279C170.897 133.294 167.964 129.883 165.636 126.126C163.328 127.695 159.993 127.845 157.695 126.276C156.486 125.451 155.558 124.063 155.108 122.555C154.683 122.65 154.258 122.705 153.844 122.699C153.631 122.824 153.417 122.943 153.2 123.055C151.487 123.946 149.383 123.549 148.599 121.655C147.885 119.935 148.621 117.981 149.264 116.325L149.396 115.984C149.761 115.038 150.163 114.01 150.663 113.04C149.271 111.994 148.082 110.694 147.075 109.217C143.693 104.237 142.004 96.9563 142.751 91.0169C143.2 87.4315 144.885 83.7184 147.646 81.3021L147.545 81.0386C146.771 79.0776 146.068 77.1094 145.612 75.0374C145.078 72.6138 144.818 70.1025 144.582 67.6352C144.082 62.4236 144.217 57.0939 144.882 51.9026C146.132 42.1309 149.302 32.5382 154.927 24.4069C153.332 22.4995 152.069 20.2549 152.727 17.6731C153.028 16.4879 153.714 15.3644 154.748 14.6855C155.319 14.3111 155.998 14.2538 156.569 13.9433L156.741 13.8488C156.991 13.7027 156.8 13.7182 156.65 13.0386C156.059 10.3246 156.549 7.70225 159.539 6.80104C162.353 5.95381 165.016 7.75288 166.68 9.89627C171.04 6.80743 176.782 5.19106 181.834 3.81728C187.577 2.2608 193.47 1.289 199.385 0.687868ZM152.308 91.7212C152.288 89.5109 154.386 88.147 156.45 88.508C157.837 88.7491 158.993 89.5764 160.079 90.4308L160.608 90.8492C161.931 91.8857 163.45 93.0036 164.237 94.4729C165.393 96.6401 162.951 99.5563 160.671 98.0375C159.106 96.9899 158.103 95.3114 157.077 93.7526L156.971 93.5913C156.504 92.8934 156.096 92.1508 155.457 91.5903L155.319 91.4689C155.109 91.29 154.883 91.1271 154.612 91.0505C154.089 90.9003 153.12 91.1095 152.889 91.7324L152.869 91.7963C152.784 92.1093 152.312 92.0422 152.308 91.7212Z" fill="black"/>
<path fill-rule="evenodd" clip-rule="evenodd" d="M239.835 122.324C237.542 123.225 234.833 123.437 232.466 122.67C230.203 121.936 228.148 120.304 226.904 118.25C225.798 116.42 225.334 114.249 225.99 112.085C226.02 111.981 226.122 111.914 226.22 111.889C226.756 112.376 227.087 112.86 227.418 113.34C227.974 114.152 228.532 114.955 229.3 115.65C230.415 116.659 231.918 117.478 233.41 117.75C234.87 118.015 236.365 117.78 237.672 117.082C238.468 116.657 239.111 116.089 239.747 115.52C240.44 114.899 241.123 114.268 242.077 113.919C242.843 113.637 243.646 113.874 244.264 114.345C244.927 114.85 245.405 115.64 245.378 116.466C245.338 117.747 244.777 118.815 243.963 119.697C242.861 120.888 241.305 121.747 239.835 122.324ZM237.114 90.41C239.664 91.9592 243.552 95.5717 240.808 99.4126C237.577 102.8 232.925 98.9175 230.634 97.1607C228.508 95.8001 226.119 99.3008 228.091 100.89C244.655 113.141 251.377 90.8157 238.404 88.5894C236.976 88.3435 236.445 89.9309 237.114 90.41ZM210.279 68.9433C213.756 68.7772 217.252 68.2346 220.565 68.9433C223.628 69.5989 226.5 70.0001 229.191 70.4744C234.024 69.1213 236.023 76.5133 231.256 77.9539C227.784 79.003 225.063 76.0724 221.5 75.5318C218.335 75.0511 215.018 75.0594 212 74.1633C209.411 73.3946 206.094 75.1699 203.359 75.5318L202.298 75.6746C200.721 75.8868 199.134 76.0999 197.572 76.4079C196.216 76.6756 194.863 77.1654 193.48 77.2221C193.323 77.2288 193.19 77.025 193.289 76.889C194.895 74.6847 197.993 72.9454 200.457 71.7853L200.625 71.7072C203.665 70.2905 206.892 69.1046 210.279 68.9433ZM209.005 85.1973L209.003 85.1222C209.008 82.9694 210.263 78.0548 213.364 78.0548C215.302 78.0548 216.479 81.3995 216.682 84.8475L216.689 84.9881C216.78 87.1313 216.19 91.817 213.364 91.817C210.509 91.817 209.033 87.3788 209.005 85.1973ZM254.668 85.1973V85.1222C254.663 82.9694 253.408 78.0548 250.307 78.0548C248.418 78.0548 247.252 81.235 247.006 84.5888L246.989 84.8475C246.867 86.9189 247.417 91.817 250.307 91.817C253.163 91.817 254.637 87.3788 254.668 85.1973ZM254.62 66.3218L254.842 66.3267C258.466 66.4523 262.194 68.5973 263.163 72.2005C263.212 72.3875 262.982 72.5134 262.844 72.3851C259.864 69.5975 255.856 72.2612 252.872 73.6573L251.775 74.1633C247.929 75.9515 243.552 78.0537 239.28 76.7211C237.253 76.0882 235.964 74.0057 236.543 71.9022C237.058 70.0304 239.319 68.4575 241.278 69.1331L241.366 69.1653C242.957 69.7735 244.914 69.1573 246.557 68.5498L247.908 68.0434C250.078 67.2204 252.259 66.2998 254.62 66.3218Z" fill="black"/>
</svg>
