<svg width="175" height="349" viewBox="0 0 175 349" fill="none" xmlns="http://www.w3.org/2000/svg">
<path fill-rule="evenodd" clip-rule="evenodd" d="M45.5752 138.812L44.5288 138.708C44.0141 130.145 45.4615 121.732 47.152 113.457L48.2038 113.519C48.5748 118.287 51.0136 122.805 49.8965 127.713C48.829 131.589 46.5661 134.93 45.5752 138.812ZM164.935 95.6851L164.322 95.8157C165.463 93.6546 164.399 92.9432 163.108 91.1566L162.967 91.481L162.47 90.3955C162.371 90.1199 162.271 89.8859 161.999 89.783C161.732 88.4321 160.94 87.1954 159.885 86.5234L159.683 86.7507C159.265 86.3851 158.761 86.246 158.281 86.0768C159.311 84.5225 159.973 82.5054 160.668 80.8387C161.234 79.0879 162.118 77.389 162.284 75.614C162.15 73.9079 160.538 75.0162 159.751 75.8672C157.348 77.9738 155.278 81.3099 153.727 85.3614C151.064 84.6688 149.536 85.3999 148.797 89.0371C148.116 91.5083 147.42 94.043 147.328 96.6046C146.97 96.482 146.336 96.0211 145.993 96.3826C140.074 102.856 133.085 107.844 126.327 113.302C121.219 109.546 118.561 102.116 115.752 96.5375C110.851 86.9632 105.951 72.9464 93.3457 72.9956C91.6749 72.8216 90.0435 72.622 88.4668 72.137C87.8558 71.971 87.1012 71.7714 86.8935 71.4005C86.5203 70.2067 86.4496 68.9145 85.793 67.8192C83.9906 64.8912 80.0864 64.6612 77.0273 65.297C71.8332 66.259 71.9639 65.6975 71.5889 71.1584C71.4765 72.4547 70.4713 72.6403 69.398 72.9088C68.1785 73.291 66.9395 73.6082 65.6863 73.8592L66.0761 73.75C45.7471 74.0717 32.2492 97.6435 29.5714 114.32C26.4617 131.381 30.4845 150.368 36.844 164.698C36.571 169.916 37.595 175.158 38.2431 180.301C38.6504 181.588 40.0593 181.714 40.4622 180.223L40.959 178.261L41.4902 180.214C41.8272 181.422 42.3688 181.566 42.8562 181.574C43.4609 181.574 43.7925 181.276 43.8122 179.705L44.8134 179.465C45.1997 180.199 45.5828 180.849 46.1888 181.301C47.408 190.161 48.1733 199.373 51.1327 207.945C52.3129 211.126 54.1251 214.015 55.4558 217.136C49.1808 231.294 48.129 246.982 46.6221 262.141C46.7434 262.151 47.3664 262.206 47.4993 262.217L47.1556 263.129C46.6861 263.328 46.4104 263.746 46.268 264.209C45.9516 264.183 44.6313 264.193 44.7047 264.495C44.8573 266.276 45.3568 267.547 46.3038 268.474C46.3168 268.76 46.3343 269.051 46.3562 269.321C44.4782 275.872 43.1024 282.854 42.2659 290.055C41.2029 291.077 40.9366 294.44 42.5223 295.337C46.8991 298.35 52.7788 299.78 58.3144 299.237C64.3056 298.67 71.4506 296.284 68.5834 289.454C68.5463 289.243 68.2554 289.232 68.0262 289.279C67.5182 288.786 66.9677 288.414 66.372 288.204C65.1886 285.25 64.1243 282.153 63.196 279.06C62.744 277.64 62.2763 276.171 62.3148 274.613C62.5386 270.789 62.9324 269.207 65.5914 266.195C67.2376 266.986 70.3746 261.257 71.0939 260.055C72.6062 256.497 72.5476 262.125 72.5476 262.125C73.1773 264.323 73.4257 267.994 74.9998 269.629C75.856 275.323 69.9969 277.932 73.7726 284.248C72.4943 284.335 72.3753 284.846 72.3976 286.397C72.3936 287.511 72.3645 288.679 72.5744 289.72C72.8295 290.999 74.0102 291.343 75.7831 291.719C77.2198 292.037 78.6032 292.4 80.0287 292.743C81.4708 293.222 82.9898 293.182 83.5824 291.725C90.7225 294.143 111.306 293.867 118.114 290.662C119.994 289.91 121.32 289.485 119.593 287.367C118.643 281.323 101.482 288.135 99.2899 281.506C98.9775 280.645 94.8496 275.255 93.7302 274.613C94.1871 273.956 93.7118 268.666 93.7302 268.474C94.0215 265.396 99.2684 251.457 99.8512 245.306C100.45 234.854 99.8883 226.042 103.075 215.42C107.529 198.601 116.182 182.818 116.299 165.02C116.15 162.07 116.968 158.928 116.226 156.033L117.148 155.554C117.281 155.707 117.52 155.703 117.568 155.495C118.173 154.514 117.495 153.339 117.356 152.265C117.673 151.927 117.515 151.618 117.133 151.434C113.04 136.994 106.193 134.884 108.078 116.834C111.153 123.346 117.965 129.937 125.473 128.968C133.037 130.098 150.682 111.683 154.09 105.73C154.714 105.779 154.721 105.332 154.816 104.91C157.929 105.276 160.842 102.834 160.9 99.8476C163.632 101.54 166.55 99.1232 165.103 96.1714C165.045 96.01 164.989 95.8479 164.935 95.6851Z" fill="white"/>
<path fill-rule="evenodd" clip-rule="evenodd" d="M85.9778 67.0608C85.9935 66.9986 86.0807 67.0165 86.0852 67.076C86.1721 68.285 86.4625 69.5606 86.9047 70.7463C87.0632 70.7714 87.2149 70.8609 87.3254 71.0336C87.4745 71.2658 88.1861 71.4278 88.5576 71.537L88.6104 71.5531C90.1523 72.0287 91.7618 72.2206 93.3609 72.3902C100.882 72.8054 103.619 75.1598 107.862 81.1081C112.899 87.8093 115.725 95.762 119.522 103.158C120.456 104.957 121.465 106.713 122.573 108.411L122.732 108.653C123.708 110.131 124.792 111.62 126.277 112.618C129.939 109.552 133.853 106.815 137.474 103.703L137.813 103.41C140.528 101.062 143.125 98.5801 145.593 95.9737C145.885 95.6663 146.431 95.5853 146.835 95.7656C146.993 93.4215 147.656 91.1221 148.267 88.8568C148.908 85.939 150.023 83.9672 153.385 84.6893L153.472 84.4741C154.816 81.1456 156.609 77.9107 159.296 75.478L159.472 75.3191C160.056 74.7894 160.823 74.0296 161.644 74.0981C162.389 74.1598 162.771 74.8332 162.801 75.5182C162.835 76.3308 162.481 77.1581 162.226 77.9196L162.205 77.985C161.877 78.9847 161.525 79.9768 161.151 80.9604C160.791 81.9071 160.409 82.8451 160.005 83.7739C159.594 84.5511 159.292 85.8379 158.544 86.3073C158.158 86.5368 157.76 86.2285 157.719 85.8343C157.661 85.318 157.958 84.8643 158.177 84.4146C158.379 84.0007 158.577 83.5851 158.769 83.1676C159.545 81.4871 160.234 79.7679 160.833 78.0167L160.85 77.9594C161.053 77.3339 161.727 75.878 161.483 75.3643C161.231 75.3666 160.713 75.8981 160.53 76.0561C157.647 78.4404 155.774 81.7358 153.63 84.7421C154.975 85.126 156.435 85.3063 157.552 86.2075C159.85 88.2102 158.005 92.1749 154.925 91.4371C155.784 93.2613 156.524 96.2086 155 97.8569C154.542 98.2856 153.653 98.1486 153.513 97.4659C153.364 96.7406 153.543 96.1186 153.707 95.4157C154.003 93.9848 154.183 92.5186 153.981 91.0617L153.917 91.0237C153.395 90.7073 153.067 90.3521 153.083 89.6979C153.015 89.225 153.52 88.5874 154.026 88.9744C154.192 89.0997 154.393 89.1091 154.566 89.2353C154.859 89.5145 155.225 89.7342 155.641 89.7306L155.682 89.7292C156.217 89.7252 156.613 89.4031 156.776 88.9024C157.225 87.5292 155.672 87.0679 154.662 86.8039L154.401 86.7234C151.645 85.8822 150.646 85.8683 149.954 89.1028L149.871 89.3713C149.154 91.6998 148.495 94.0819 147.274 96.2059L147.472 96.6775C148.741 99.6878 150.343 103.117 153.736 104.037C153.858 103.024 154.955 102.988 155.75 103.013C156.775 102.958 157.804 102.438 158.528 101.691C159.161 101.056 159.479 100.169 160.179 99.6015C159.862 98.8824 160.577 98.0891 161.324 98.503C161.828 98.7809 162.133 99.1773 162.741 99.2578C163.279 99.3299 163.776 99.1424 164.185 98.7974C165.253 97.8963 164.745 96.5719 165.007 95.3915C164.662 95.9862 164.09 96.4421 163.478 96.7571C159.39 99.0923 159.431 94.5141 161.691 95.2663C164.145 94.7088 164.103 93.8228 163.186 91.7436L163.161 91.6689C163.008 91.2286 162.693 90.4774 162.997 90.0161C163.014 89.9928 163.044 89.9852 163.067 90.0067C163.348 90.2823 163.458 90.7445 163.695 91.0689L163.92 91.3373C164.795 92.3834 165.746 93.634 165.176 95.0425C165.235 95.0296 165.3 95.0551 165.32 95.1276C165.584 96.0851 166.108 97.0256 165.999 98.0502C165.773 100.295 163.335 101.528 161.317 100.592C160.929 103.478 158.079 105.555 155.222 105.427C155.132 105.822 154.839 106.17 154.385 106.206C150.181 112.931 133.656 130.231 125.552 129.508C124.777 129.859 123.79 129.683 122.97 129.577C116.676 128.757 111.416 124.161 108.482 118.713C107.403 136.557 113.498 136.341 117.577 151.124C117.985 151.38 118.223 151.938 117.906 152.41C118.081 153.304 118.44 154.22 118.301 155.138C118.233 155.4 118.096 155.639 117.972 155.878C117.716 156.368 117.041 156.309 116.725 155.928C117.261 157.864 117.032 159.897 116.895 161.87C116.811 163.029 116.818 164.172 116.817 165.332C116.657 182.994 108.017 198.917 103.574 215.673C102.318 220.37 101.353 225.156 100.974 230.007C100.571 235.168 100.851 240.359 100.367 245.513C99.7943 251.607 98.1401 257.523 96.2097 263.311C96.3413 263.645 96.1936 264.07 95.8852 264.284L95.5697 265.216C95.7407 266.043 95.7832 266.873 95.7483 267.729C95.7192 268.956 95.3334 270.172 95.494 271.397C95.6189 271.934 96.0544 272.448 95.7778 273.023L95.904 273.103C96.6367 273.573 97.3371 274.089 97.8187 274.815C97.9239 274.974 98.0036 275.302 98.124 275.414C98.2493 275.531 98.4829 275.545 98.6373 275.6C99.4179 275.837 99.9089 276.54 99.8417 277.357C101.669 277.882 101.04 279.736 102.926 281.025C104.863 282.426 107.485 282.58 109.772 282.944L113.67 283.564L113.906 283.592C116.473 283.909 119.798 284.526 120.111 287.61C120.591 287.941 120.754 288.617 120.893 289.152C120.999 289.575 120.989 290.011 120.678 290.346C120.311 290.74 119.659 290.901 119.177 291.111C118.548 291.36 118 291.785 117.317 291.904C116.501 292.241 115.6 292.439 114.856 292.577C105.305 294.34 95.5312 294.542 85.9151 293.176L85.7545 293.153C85.084 293.053 84.3916 292.917 83.7793 292.63C82.9236 294.068 81.2747 293.888 79.8873 293.479C78.7974 293.21 77.7081 292.945 76.6187 292.68C74.9318 292.226 72.4554 292.133 72.0396 290.041C71.8292 288.986 71.8426 287.812 71.8534 286.74L71.8511 286.419C71.8485 285.513 71.9093 284.263 72.945 284.07C71.5222 281.438 71.8323 278.202 73.1576 275.594L73.2279 275.466C74.2031 273.68 74.8123 272.189 74.4887 270.08C73.8393 269.469 73.5363 268.592 73.2959 267.73C72.618 265.298 72.0592 262.834 71.6215 260.347C70.619 262.233 69.4088 264.006 68.049 265.653C67.5088 266.423 67.0657 266.672 66.1903 266.971C66.0621 267.025 65.9192 267.032 65.7861 266.992C64.9756 268.089 63.9918 268.958 63.5657 270.268C63.1011 271.717 62.9239 273.31 62.8322 274.824C62.7834 276.797 63.6069 278.66 64.1238 280.533C64.9329 283.12 65.8394 285.676 66.8415 288.195C67.4981 288.349 68.4921 288.273 68.7311 289.057C68.8851 289.151 69.0113 289.3 69.078 289.517L69.1344 289.701C69.6142 291.29 70.021 293.125 69.398 294.716C67.6767 298.572 62.1433 299.533 58.3582 299.995C52.7538 300.526 46.874 299.189 42.2081 296C41.5493 295.539 41.0995 295.014 40.9903 294.196L40.9733 294.043C40.8274 292.687 40.805 291.091 41.7435 290.045C42.5563 283.109 43.8878 276.176 45.8052 269.458C45.7907 269.268 45.7786 269.077 45.769 268.887C44.6988 267.774 44.2799 266.208 44.16 264.704C44.1779 263.823 45.3017 263.901 45.9319 263.751C47.5235 248.065 48.4374 231.888 54.8623 217.254C53.5818 214.299 51.8501 211.481 50.7012 208.451L50.6202 208.235C50.144 206.991 49.8549 205.723 49.4775 204.453C49.2323 203.845 49.0295 203.229 48.9315 202.577C47.4205 195.673 46.5661 188.65 45.6745 181.646C45.0744 181.151 44.6778 180.437 44.33 179.78L44.3269 179.947C44.301 181.012 44.1268 182.206 42.7917 182.175C41.6916 182.148 41.21 181.328 40.9634 180.422C40.4845 182.318 38.3554 182.421 37.7311 180.554C37.4527 179.802 37.4643 178.943 37.3815 178.152C36.9366 173.816 36.0084 169.483 36.2751 165.117C35.9945 165.022 35.7497 164.808 35.6306 164.45C30.3162 148.37 25.5862 131.161 29.0361 114.193C32.4864 97.5688 41.829 78.9586 59.4852 74.2448C63.0595 73.3424 66.6907 73.0363 70.3549 72.8036C70.8835 71.7817 71.2254 70.6197 71.2944 69.4631C71.3154 69.1289 71.2997 68.7982 71.2984 68.464C71.2975 68.1552 71.4295 67.7874 71.3678 67.4993C71.353 67.429 71.4483 67.4058 71.4738 67.4702C71.5517 67.6729 71.7102 67.7749 71.8171 67.9454C72.0843 68.4282 72.155 69.0009 72.2253 69.5405C72.4934 71.6698 71.874 73.8618 70.5684 75.5607L70.4959 75.6569C70.0855 76.1952 69.3752 77.0185 68.6425 76.5872C67.947 76.1769 68.4214 75.3308 68.8336 74.903C69.3701 74.3515 69.8338 73.7336 70.2135 73.0645C68.5557 73.5057 66.9109 73.9916 65.258 74.4515L65.1398 74.516C63.8464 75.214 61.9634 75.9701 62.1317 77.6977C65.5735 88.0719 80.8008 90.7378 90.2114 88.2608C92.0616 87.7681 93.9311 86.9672 95.1901 85.4746L95.2412 85.4133C97.4164 82.841 97.2499 78.5912 94.526 76.4789C92.908 75.1554 90.6728 74.4524 88.6543 73.9943C89.241 74.9679 90.5399 75.6556 90.7758 76.8086C90.8362 77.2042 90.6173 77.5809 90.1805 77.5894C89.071 77.6104 88.2524 76.427 87.6701 75.6319C86.4545 73.9679 85.7648 71.9562 85.6175 69.9074C85.5441 68.9105 85.7281 68.0121 85.9778 67.0608ZM67.9877 291.503C68.0159 292.131 67.7075 292.836 66.9588 292.807C66.4136 293.512 65.5968 293.976 64.8391 294.43C59.8321 297.169 53.5348 297.289 48.2329 295.323C46.8015 294.781 45.4203 294.105 44.1461 293.254L44.027 293.174C43.3848 292.751 42.6463 292.315 42.1902 291.701L42.2059 292.204C42.2292 292.917 42.2694 293.574 42.4968 294.239C42.6355 294.526 42.9121 294.684 43.1726 294.851C43.7548 295.221 44.3533 295.564 44.9665 295.88C51.3582 299.115 59.5729 299.616 65.9933 296.213C67.8364 295.18 68.6166 293.545 67.9877 291.503ZM73.9516 284.637C73.9471 284.716 73.8688 284.78 73.7878 284.757C73.1469 284.571 73.5318 285.969 73.5712 286.195C73.6996 286.933 73.7815 287.675 73.8634 288.421L73.8652 288.563C73.8858 290.045 74.0335 290.056 75.5194 290.342C76.7552 290.659 77.9811 291.022 79.2114 291.362L79.7033 291.497C80.2283 291.647 82.6367 292.487 82.613 291.478L82.6112 291.446C82.5642 290.786 83.4226 290.514 83.8648 290.906L83.8814 290.921C84.7336 291.731 85.9496 291.798 87.0618 291.939L87.1173 291.946C88.5393 292.13 89.9679 292.278 91.3974 292.393C98.9189 292.992 106.517 292.645 113.947 291.339L114.431 291.253C115.079 291.136 116.011 290.948 116.759 290.589C117.045 290.565 118.496 289.862 118.442 289.559C118.467 289.514 118.49 289.469 118.509 289.422C118.793 289.114 118.784 288.465 118.412 288.221C117.791 288.383 117.171 288.542 116.548 288.695L116.548 288.697C115.918 289.181 115.059 289.181 114.3 289.349C113.479 289.495 112.657 289.633 111.834 289.764C107.121 290.504 102.368 291.027 97.6008 291.249C89.1676 291.983 80.9158 289.3 73.9516 284.637ZM46.5173 153.549C47.0231 154.79 46.6605 156.396 46.2886 157.678C46.8619 157.997 47.2554 158.542 47.745 158.965C49.4435 160.335 51.1729 161.67 52.8746 163.039L52.9476 163.096C53.4484 163.489 54.0025 163.877 54.2021 164.511C54.6703 166.6 51.911 167.169 50.3575 167.02C50.0697 167.008 49.2448 166.819 49.047 167.018C48.9333 167.132 48.9803 167.645 48.9705 167.798C48.8626 169.456 48.7749 171.116 48.6576 172.773L48.6124 173.394C48.5175 174.651 48.5157 176.07 48.018 177.263C47.9106 177.982 47.6112 178.708 47.5378 179.42C47.4706 180.055 47.3207 180.753 46.8955 181.227L47.2885 184.318C48.0283 190.113 48.8102 195.908 50.0281 201.625C50.3011 202.908 50.6775 204.148 51.0261 205.411C52.0309 209.054 53.9174 212.352 55.5829 215.72L55.6473 215.852C56.2081 217.014 56.5791 218.127 56.4704 219.448C56.4037 220.26 55.1281 220.265 55.1948 219.448C55.2368 218.932 55.1931 218.413 55.0655 217.912C52.4194 228.508 50.4962 239.268 49.5031 250.148C49.1025 254.629 48.8093 259.1 48.2763 263.572C49.6445 263.559 51.0208 263.693 52.3402 263.925C54.6067 263.269 57.3123 263.48 59.3595 264.653C60.6238 264.785 61.8824 264.956 63.1338 265.178L63.4019 265.227C63.9855 265.335 64.8346 265.343 65.292 265.766C65.471 264.929 66.0824 264.334 66.6204 263.707C67.1099 263.116 67.5742 262.504 68.0119 261.874C69.2181 260.155 70.2175 258.304 71.0634 256.386C71.0565 256.251 71.0813 256.117 71.1358 255.994C71.1903 255.87 71.273 255.762 71.3772 255.676C74.8082 247.798 76.9373 239.434 78.827 231.076C83.1653 212.303 86.8922 193.375 89.1292 174.228C89.1385 174.14 89.2675 174.135 89.2683 174.228C89.724 188.41 87.2601 202.457 84.2873 216.274C81.2488 229.925 78.8923 243.884 73.3201 256.801C73.7309 259.437 74.2197 262.06 74.8593 264.651C81.0993 262.976 87.5944 262.33 94.0439 262.584C96.8193 254.665 98.5971 246.397 98.4525 237.978C98.1352 223.334 102.8 209.354 107.806 195.777C111.262 185.312 115.469 174.811 115.93 163.685C116.144 161.107 116.932 158.507 116.406 155.92C115.46 157.062 114.106 157.895 112.781 158.507C110.556 159.536 108.173 160.168 105.786 160.695C93.6174 163.805 80.8352 163.801 68.6349 160.85L67.7277 160.642C60.4672 158.966 53.1024 157.095 46.5173 153.549ZM45.7104 159.2C44.1291 162.075 40.826 163.845 37.6778 164.487C37.5632 164.863 37.2038 165.107 36.8118 165.163C37.4169 169.947 38.3979 174.681 38.9207 179.477L38.9507 179.656C39.0031 179.96 39.0783 180.285 39.3096 180.493C39.6238 180.368 39.6292 179.847 39.6677 179.56C39.7908 177.897 39.9362 176.237 40.0795 174.576C40.1363 173.849 41.3313 173.569 41.4472 174.391L41.9575 178.025L41.966 178.063C42.0895 178.654 42.1302 180.695 42.7089 180.783L42.7291 180.786C43.0871 180.84 42.9511 180.119 42.9502 179.859L42.9829 177.971L43.024 175.542L43.0464 174.327C43.0661 173.435 44.322 173.474 44.4097 174.327L44.4473 174.688C44.6196 176.322 44.855 178.052 45.6616 179.488C45.8124 179.385 46.0232 179.359 46.2197 179.412C46.2877 178.342 46.5191 177.321 46.9465 176.341C46.8217 175.3 46.938 174.189 46.9904 173.185L46.9958 173.077C47.0575 171.786 47.135 170.495 47.2093 169.205L47.2531 168.431C47.3158 167.306 47.2187 165.88 48.4965 165.406C49.7434 165.016 51.1582 165.66 52.3505 164.993C50.9559 163.752 49.5263 162.615 48.1022 161.411C47.5942 160.988 47.0625 160.579 46.5791 160.127C46.2729 159.842 46.0263 159.478 45.7104 159.2ZM47.6604 113.536L47.2348 115.726C46.5281 119.377 45.8478 123.032 45.4208 126.73C44.9737 130.705 44.8573 134.701 45.0466 138.696C46.021 134.828 48.3013 131.427 49.3652 127.592C50.4541 122.829 48.0059 118.244 47.6604 113.536ZM159.403 85.777C159.344 85.7368 159.377 85.6173 159.456 85.65C162.473 86.8988 163.704 91.3709 161.434 93.8336C160.68 94.6278 159.55 95.0868 158.521 94.6703C157.271 94.4591 156.535 93.2103 156.361 92.0465L156.356 92.0063C156.345 91.9517 156.406 91.9266 156.441 91.9611L156.447 91.9682C156.925 92.5566 157.678 92.9503 158.365 93.2515C158.557 93.1472 158.768 93.0649 158.979 93.0161C159.28 92.9481 159.588 93.1835 159.559 93.4899C160.979 93.2304 161.549 91.5427 161.592 90.2621L161.593 90.2237C161.65 88.4518 160.848 86.8133 159.403 85.777Z" fill="black"/>
<path fill-rule="evenodd" clip-rule="evenodd" d="M99.2756 34.4078C99.0397 33.8136 98.6221 33.0668 97.9244 33.0369C97.3846 31.3903 96.0423 29.7138 94.1755 29.7585C88.6963 24.1682 81.7984 24.4318 74.5862 25.6153C70.7815 26.3191 66.918 27.6976 64.0804 30.4185C60.6816 33.6212 59.3581 39.2097 62.0198 43.2599C59.7193 44.4894 59.6745 47.4081 60.6583 49.5141C59.4758 50.3298 59.4042 52.3097 60.7357 52.9321C60.6646 53.2216 60.7147 53.5205 60.8499 53.7778C60.1897 54.3259 59.3304 54.7308 58.6201 55.0789C58.4801 55.1445 58.3564 55.2403 58.2578 55.3594C58.1593 55.4784 58.0882 55.6178 58.0499 55.7675C55.7171 57.2942 49.901 61.0249 49.9703 63.9945C49.9359 65.5435 51.0879 66.5632 52.4875 66.9691C51.6545 68.63 51.0226 70.57 51.8197 72.362C52.0403 72.9034 53.691 74.4945 53.7742 74.5236C53.9197 74.648 56.2882 73.5629 57.4394 73.0099C57.6623 74.4582 59.2149 75.2175 60.5536 74.7209C61.8224 74.3392 62.6026 73.2676 63.4028 72.2927C64.4653 74.6046 67.5912 74.6314 69.6111 73.6345C71.4255 72.7983 72.8049 71.2658 73.5729 69.4188C77.653 71.4112 82.4259 71.992 86.8586 71.1964C87.1428 71.6985 87.7726 72.0358 88.3334 71.8416C90.6903 71.1347 93.2965 71.0949 95.2944 69.4752C99.4586 66.493 99.8095 60.9953 99.5191 56.3089C99.2612 51.6359 99.4868 46.9244 98.6355 42.3019C99.0048 40.9413 99.6198 39.7381 100.188 38.4598C100.806 37.1188 100.793 35.1259 99.2756 34.4078Z" fill="white"/>
<path d="M86.2149 63.832C86.771 64.5746 87.5153 65.152 88.3692 65.5034C89.194 65.8426 90.1052 65.9607 90.9993 65.7954C91.8105 65.6453 92.6725 65.2173 93.323 64.5987C93.9081 64.0419 94.3205 63.3325 94.3899 62.5379C94.4009 62.4157 94.3678 62.3092 94.3095 62.223C94.2466 62.1321 94.1566 62.0638 94.0527 62.028C93.9487 61.9922 93.8362 61.9907 93.7313 62.0237C93.6349 62.0557 93.5521 62.1199 93.4968 62.2058C93.4018 62.3072 93.3079 62.4071 93.214 62.5039C92.455 63.2712 91.7412 63.8355 90.705 63.9537C90.1615 64.0156 89.6355 63.9091 89.1659 63.6809C88.673 63.437 88.2463 63.0759 87.9222 62.6287L87.883 62.5744C87.6967 62.3041 87.4616 62.1733 87.2255 62.1363C86.9532 62.0932 86.672 62.1774 86.4469 62.3483C86.2189 62.5189 86.0637 62.7707 86.0129 63.0526C85.9727 63.3016 86.0225 63.5744 86.2149 63.832Z" fill="black"/>
<path fill-rule="evenodd" clip-rule="evenodd" d="M60.5576 54.2426C60.8029 54.1809 60.9349 54.5102 60.7263 54.6422C59.4038 55.4816 58.0373 56.2315 56.7595 57.1447C55.5444 58.0127 54.4219 59.002 53.375 60.0651L53.2591 60.1837C52.3125 61.1546 51.2647 62.3904 51.254 63.8231C51.2459 64.9368 52.1066 66.1525 53.3074 66.0062C53.7595 65.9511 54.1753 66.5239 54.0177 66.9364L53.8517 67.3717C53.1834 69.1324 52.5036 71.1275 53.0313 72.9804L53.0505 73.0466C53.1785 73.4707 53.3128 73.8457 53.8065 73.8372C54.2643 73.8291 54.741 73.6748 55.1698 73.528C56.0595 73.2224 56.8661 72.7132 57.5504 72.073C58.156 71.507 58.9294 72.0819 58.8479 72.8018L58.8448 72.8246C58.7333 73.6323 60.0232 74.0077 60.6095 73.8918C61.767 73.6636 62.5923 72.5065 63.2497 71.6242C63.5657 71.2005 64.3333 71.0336 64.6108 71.6242C65.1613 72.7942 66.295 73.669 67.6221 73.7057C68.3109 73.7249 68.9719 73.5289 69.5556 73.166C69.7915 73.0182 70.0087 72.8423 70.2023 72.6421L70.2511 72.5915C70.5402 72.2859 70.7394 72.1235 71.1086 71.9235C71.4725 71.7271 71.9434 71.9709 71.9411 72.4C71.938 72.9558 71.7746 73.3253 71.3906 73.7285C71.0677 74.0645 70.6999 74.3543 70.2976 74.5898C69.4996 75.0605 68.5508 75.3249 67.6221 75.2945C66.1572 75.2462 64.7594 74.5177 63.8535 73.3853C62.9279 74.4891 61.7804 75.503 60.2891 75.4757C59.1724 75.4551 58.1322 74.8753 57.6336 73.9768C56.9286 74.4646 56.1517 74.8391 55.3309 75.0869L55.2575 75.1084C54.088 75.448 52.7417 75.5831 51.9889 74.4247C51.2822 73.337 51.2294 71.8309 51.3914 70.5875C51.5359 69.4769 51.8783 68.4223 52.2717 67.3825C51.1524 67.0487 50.2832 65.9995 49.9847 64.8688C49.5331 63.1587 50.4094 61.5 51.4921 60.2293C52.6683 58.8494 54.1489 57.6816 55.6406 56.6597C57.1283 55.6409 58.7951 54.6834 60.5576 54.2426ZM98.8092 40.8665C98.8119 40.8191 98.8902 40.8026 98.8974 40.8545C99.4112 44.5744 99.7088 48.2868 99.955 52.0323C100.08 53.9299 100.222 55.8257 100.377 57.7206C100.526 59.538 100.774 61.4039 100.718 63.2285C100.63 66.0858 99.2393 68.4089 96.9585 70.081C94.7735 71.6832 92.063 72.4752 89.4035 72.8099C87.859 73.0045 86.2929 73.0139 84.7466 72.8309C83.9436 72.7365 83.1416 72.6099 82.3547 72.4206L82.0146 72.3356C81.3951 72.1777 80.7036 71.9633 80.6155 71.2313C80.5725 70.877 80.7614 70.6157 81.0662 70.4376C81.4636 70.2054 81.9192 70.3423 82.3288 70.4479C83.0189 70.626 83.7167 70.779 84.4221 70.8846C85.9366 71.1119 87.4942 71.1253 89.0168 70.9682C91.5783 70.7034 94.2802 69.8743 96.2554 68.1624C97.1138 67.4187 97.8599 66.5122 98.2524 65.4357C98.7573 64.0513 98.6825 62.5408 98.6655 61.0915C98.6262 57.7206 98.6611 54.35 98.6141 50.979C98.5666 47.5978 98.6078 44.2424 98.8092 40.8665ZM73.0506 25.1146C76.0435 24.3445 79.0812 24.1441 82.1556 24.3763C85.0549 24.5946 88.358 25.2416 90.7256 27.0206C90.8407 27.107 90.7717 27.2703 90.6299 27.2479C89.0468 26.996 87.5036 26.5383 85.9272 26.2354C84.4109 25.9441 82.8676 25.7253 81.3235 25.6743C76.1022 25.5029 70.2923 26.6833 66.082 29.9308C64.1077 31.4534 62.6012 33.5013 62.0019 35.9371C61.387 38.4361 61.7195 41.1386 62.9544 43.3986C63.132 43.7243 63.0586 44.2393 62.6881 44.4125C61.5624 44.9382 60.7604 46.1029 60.7778 47.3597C60.7863 47.9696 60.9971 48.5544 61.3355 49.0582C61.6935 49.5911 62.2387 49.9638 62.6388 50.4618C62.7964 50.6578 62.8026 50.9276 62.6778 51.1079C62.9118 51.2104 63.1643 51.2654 63.3948 51.3862C63.5903 51.4887 63.5957 51.809 63.3948 51.9097C62.8868 52.1652 62.3376 51.894 61.9943 51.4824C61.935 51.4104 61.8809 51.3343 61.8323 51.2547C61.4214 51.1679 61.0535 50.962 60.7322 50.6806C60.1199 51.0466 60.0362 51.8609 60.5621 52.4829C60.8306 52.8006 61.212 52.9965 61.5978 53.1375L61.6439 53.154C62.0194 53.2874 62.3631 53.3616 62.607 53.661C62.7677 53.3267 62.9526 53.0113 63.1584 52.724C63.9063 51.6797 65.0566 50.7535 66.4212 50.8708C67.49 50.9629 68.4165 51.7263 68.6354 52.78C68.6515 52.8578 68.5338 52.9187 68.4989 52.8372C67.9859 51.6444 66.363 51.6005 65.3963 52.222C64.2595 52.9536 63.6382 54.3317 63.3889 55.6149C63.1437 56.8794 63.2856 58.4172 64.234 59.3788C64.622 59.7721 65.1501 60.0441 65.7011 60.1161C65.9705 60.151 66.2082 60.1166 66.4655 60.0647L66.6365 60.0293C66.7547 60.0047 66.8724 59.985 66.9968 59.9962L67.1817 60.0208L67.2868 60.07C67.3781 60.1108 67.3696 60.0996 67.2622 60.036C67.5764 60.0105 67.7393 60.2423 67.7563 60.4965C67.7662 60.5032 67.776 60.5099 67.7841 60.5197C68.9773 61.9766 69.8635 63.6513 71.1297 65.0603L71.5003 65.4733C72.4531 66.5306 73.5412 67.6773 74.8356 68.2259L74.9895 68.2894C75.3664 68.4483 75.7446 68.6653 75.7925 69.1185C75.8354 69.5244 75.515 69.8295 75.1453 69.9244C74.3038 70.1396 73.3442 69.3933 72.7279 68.9038C71.4027 67.851 70.2887 66.5095 69.3685 65.0979L69.2776 64.9569C68.5212 63.7788 67.8105 62.4352 67.5898 61.0365L67.55 61.1009C67.5039 61.1645 67.4505 61.2223 67.3907 61.2732C67.2363 61.4065 67.0474 61.4844 66.8514 61.5372C66.483 61.6361 66.0793 61.6558 65.7011 61.6173C64.9369 61.5394 64.2105 61.2461 63.6065 60.7716C61.7567 59.3242 61.5382 56.6306 62.2861 54.4458C61.6725 54.5921 60.973 54.1796 60.4936 53.8265C59.944 53.4212 59.4906 52.8359 59.3823 52.1477C59.2749 51.465 59.7113 50.5607 60.3584 50.2972C59.6866 49.4927 59.2959 48.3508 59.2552 47.4362C59.1854 45.8461 60.0322 44.3431 61.3324 43.4755C60.1096 40.8612 59.8742 37.8285 60.6973 35.0526C62.3309 29.5446 67.8033 26.4645 73.0506 25.1146ZM68.3932 66.9628L68.4084 66.9145C68.5387 66.4885 68.7065 65.6411 69.3448 65.9637C69.9539 66.272 69.565 67.1838 69.3519 67.6277C69.0968 68.1588 68.6564 68.5848 68.0652 68.6988C67.584 68.7919 67.0554 68.6724 66.7193 68.3015C66.6209 68.1937 66.5658 68.0751 66.5076 67.944C66.4909 67.9096 66.4785 67.8732 66.4705 67.8357C66.4595 67.8756 66.4383 67.912 66.4091 67.9413C66.1406 68.234 65.8868 68.5749 65.6921 68.9212C65.646 69.0031 65.5006 68.9454 65.5373 68.8559C65.7642 68.3024 65.7262 67.446 66.2319 67.0451C66.6777 66.6921 67.0966 66.97 67.3325 67.3811L67.3446 67.4026C67.6892 68.0272 68.2384 67.4339 68.3932 66.9628ZM63.5429 64.9619L63.5895 64.8974C64.0661 64.2473 64.87 63.4656 65.6747 64.0701C65.9302 64.2625 65.9396 64.5833 65.6747 64.7739L65.574 64.8455C65.2226 65.0943 64.8726 65.3288 64.6144 65.6854C64.3342 66.0728 64.0822 66.4836 63.7049 66.7874C63.0381 67.3252 61.9603 67.4313 61.3811 66.7064L61.3243 66.6344C61.2707 66.5667 61.2209 66.496 61.1753 66.4227L61.1403 66.4711L61.1305 66.4849L61.1224 66.4975C60.89 66.8727 60.5786 67.1927 60.2099 67.4353C59.4987 67.9033 58.6971 67.9686 57.8923 67.7207C57.8136 67.6961 57.8346 67.591 57.9107 67.5838C58.8645 67.4952 59.7936 66.8192 60.1812 65.9489L60.2251 65.8514C60.3822 65.5051 60.5581 65.1762 60.9457 65.0402C61.3234 64.9077 61.7195 65.0478 61.9782 65.3323C62.1948 65.5704 62.2503 66.0438 62.6406 65.9395C63.0685 65.825 63.3088 65.2912 63.5429 64.9619ZM60.8118 59.1801C61.0231 59.0199 61.3538 59.1917 61.412 59.4239C61.6752 60.4741 60.5809 61.7121 59.5291 61.7448C59.2608 61.7514 58.9953 61.6887 58.7584 61.5627C58.5722 61.4656 58.352 61.2182 58.1479 61.177C57.8843 61.1242 57.6506 61.4745 57.4649 61.6544C57.2349 61.8772 57.0066 62.0849 56.7488 62.275C56.6454 62.3511 56.4856 62.2231 56.529 62.1063L56.6163 61.8746C56.9323 61.0481 57.4765 59.8419 58.4952 60.1846C58.9943 60.3528 59.3698 60.9193 59.8957 60.4705C60.3164 60.1117 60.3553 59.526 60.8118 59.1801ZM65.3059 54.9509C66.2552 53.8637 68.4872 54.4377 68.9106 55.7608C69.0042 56.053 68.9066 56.4328 68.6779 56.6396C68.3762 56.912 67.9466 56.9944 67.5809 56.7809C67.2658 56.597 67.1364 56.2964 66.9051 56.0382C66.5658 55.6601 66.1044 55.4503 65.6286 55.2999C65.5073 55.364 65.3964 55.4461 65.2996 55.5433C65.2486 55.5939 65.1528 55.5245 65.198 55.4646C65.2589 55.3836 65.3341 55.3075 65.4191 55.2373L65.3779 55.2252C65.2531 55.1903 65.2258 55.0427 65.3059 54.9509ZM71.4765 42.9449C71.6891 42.9449 71.9371 43.1449 71.9098 43.3776L71.9017 43.442C71.8404 43.8849 71.6976 44.136 71.2532 44.3422C70.8782 44.5126 70.4767 44.617 70.0662 44.651C69.9096 44.6653 69.744 44.6662 69.5762 44.6541L69.5408 44.8572C69.4705 45.2644 69.4056 45.6711 69.3935 46.0859C69.3707 46.8546 69.6585 47.4881 69.9669 48.1745C70.5586 49.4931 70.6253 50.809 69.9808 52.1254C69.8863 52.3178 69.6196 52.4748 69.4043 52.4551C69.125 52.4301 68.9903 52.3495 68.8278 52.1254C68.6913 51.9375 68.7226 51.6712 68.8171 51.4744L68.8278 51.4529C69.1523 50.8251 69.2548 50.1164 69.0888 49.4264C68.933 48.7777 68.5803 48.1951 68.4223 47.5486C68.1659 46.4953 68.4393 45.451 68.9737 44.5476C68.5705 44.4313 68.1972 44.225 67.9483 43.91L67.9492 43.9096C67.8543 43.808 67.9063 43.5964 68.0728 43.6098L68.2616 43.6245C68.801 43.6693 69.2978 43.7163 69.8434 43.5664C70.1231 43.4894 70.3643 43.3606 70.6042 43.2057L70.6557 43.1717C70.956 42.9726 71.123 42.9444 71.4765 42.9449ZM72.7678 35.1617C74.1203 35.0852 75.2751 35.9761 75.8363 37.1609C76.4464 38.4482 76.1904 39.9247 75.6524 41.1909L75.4993 41.5453C75.2317 42.1592 74.8803 42.8894 74.332 43.2187C73.7166 43.5887 73.1845 43.1597 73.3657 42.4778C73.474 42.071 73.7668 41.7578 74.004 41.4227C74.2251 41.1095 74.4314 40.7856 74.6122 40.4473C74.9667 39.7842 75.2312 39.0455 75.2281 38.2862C75.2231 36.8991 74.3052 35.3107 72.7678 35.3309C72.6581 35.3322 72.6599 35.168 72.7678 35.1617ZM79.608 32.9246C79.5239 32.861 79.5995 32.7187 79.6935 32.7787C81.2618 33.7738 82.4331 35.6432 82.6689 37.4799C82.7996 38.4987 82.6998 39.5873 82.2648 40.5278C82.015 41.0674 81.5872 41.5824 80.9883 41.7305C80.4382 41.8661 79.8707 41.5525 79.6997 41.0164C79.6335 40.8088 79.7476 40.5914 79.92 40.4777C80.4776 40.1095 80.927 39.645 81.1902 39.0204C81.4636 38.3707 81.5724 37.6812 81.576 36.9801C81.584 35.3394 80.9274 33.9246 79.608 32.9246ZM98.7667 33.636C98.6937 33.5554 98.785 33.4373 98.8813 33.4874C100.015 34.0825 100.736 35.2221 100.942 36.47C101.144 37.692 100.872 39.3556 99.9241 40.2392C99.3893 40.7381 98.431 40.0746 98.8755 39.4321C99.1892 38.9788 99.528 38.6056 99.7075 38.0705C99.8677 37.5927 99.9246 37.1108 99.9156 36.6087C99.8968 35.5134 99.5043 34.4526 98.7667 33.636ZM84.9041 32.1057C86.8412 32.014 88.0152 34.2203 88.2841 35.8647C88.4502 36.8803 88.3253 37.9273 87.7632 38.8088L87.7296 38.8598C87.2659 39.5636 86.4223 40.3744 85.5132 40.041C85.1288 39.9001 85.0263 39.4889 85.285 39.177C85.6802 38.6996 86.2916 38.505 86.663 37.9953C87.0802 37.4235 87.2171 36.7072 87.193 36.0119L87.1894 35.9354C87.1249 34.6561 86.5136 32.2019 84.9041 32.2453C84.8137 32.2476 84.8146 32.1102 84.9041 32.1057ZM90.9633 31.7393C92.8368 31.5004 93.9781 33.6995 94.3299 35.2145C94.5497 36.1618 94.5976 37.2182 94.3165 38.1587L94.2955 38.2253C94.0668 38.9269 93.3918 40.1287 92.5101 39.7703C92.2689 39.6719 92.0223 39.4048 92.1377 39.1162C92.2854 38.7475 92.4985 38.6517 92.7827 38.4159C93.0015 38.2343 93.1542 37.973 93.2665 37.7166C93.5659 37.032 93.6331 36.2325 93.5919 35.4946L93.5861 35.4074C93.4804 33.9666 92.6972 31.8189 90.9633 31.8588C90.8841 31.8606 90.8895 31.7487 90.9633 31.7393ZM94.3939 29.6721C95.4368 29.2757 96.2907 30.2704 96.8905 30.9804C97.6415 31.8699 98.3227 32.8284 98.7076 33.9358C99.0509 34.9228 99.1113 36.0199 98.802 37.0244C98.6517 37.5205 98.4086 37.9836 98.0855 38.3891L98.0439 38.4401C97.7055 38.8517 97.3788 39.105 96.8242 38.9573C96.5987 38.8974 96.5033 38.6746 96.5423 38.462C96.626 38.0074 96.8605 37.8893 97.1648 37.5721C97.4329 37.2924 97.6317 36.9479 97.7655 36.5855C98.0416 35.8378 98.056 35.028 97.8707 34.2579C97.6634 33.3957 97.2552 32.5997 96.7835 31.8534L96.6815 31.6937C96.1815 30.9048 95.4685 29.6905 94.4136 29.8185C94.3232 29.8292 94.3219 29.6994 94.3939 29.6721Z" fill="black"/>
<path fill-rule="evenodd" clip-rule="evenodd" d="M90.979 54.1227C91.7819 54.6095 93.0047 55.7447 92.1413 56.9514C91.1249 58.0154 89.6613 56.7953 88.9403 56.2436C88.2716 55.8158 87.5206 56.9156 88.1409 57.415C93.3515 61.2643 95.4663 54.2503 91.3849 53.5505C90.9355 53.4735 90.7686 53.9724 90.979 54.1227ZM83.727 44.8398L83.9266 44.8049L84.0286 44.7879C84.6266 44.6894 85.3351 44.6232 85.7482 45.0912C85.9796 45.3539 86.0597 45.842 85.7482 46.0931C85.2004 46.5356 84.5953 46.3642 83.9387 46.4013C83.398 46.4327 82.8784 46.5217 82.3574 46.6702C81.2143 46.996 80.2834 47.5911 79.3072 48.2443C79.1792 48.3302 79.0485 48.1665 79.1094 48.047C79.6729 46.9459 80.765 46.0416 81.8588 45.4904C82.4424 45.1959 83.0811 44.9516 83.727 44.8398ZM84.1137 49.524C84.3021 49.524 84.4825 49.5875 84.6463 49.7056C84.8079 49.822 84.9542 49.9916 85.0759 50.2032C85.3069 50.6037 85.451 51.1567 85.451 51.7679C85.451 52.3791 85.3069 52.9321 85.0759 53.3326C84.9542 53.5442 84.8079 53.7138 84.6463 53.8297C84.4927 53.9455 84.3061 54.0093 84.1137 54.0118C83.9252 54.0118 83.7449 53.9478 83.5806 53.8297C83.419 53.7138 83.2727 53.5442 83.151 53.3326C82.9205 52.9321 82.7763 52.3791 82.7763 51.7679C82.7763 51.1567 82.9205 50.6037 83.151 50.2032C83.2727 49.9916 83.419 49.822 83.5806 49.7056C83.7449 49.5875 83.9252 49.524 84.1137 49.524ZM96.0441 49.524C96.2325 49.524 96.4125 49.5875 96.5767 49.7056C96.7383 49.822 96.8846 49.9916 97.0064 50.2032C97.2369 50.6037 97.381 51.1567 97.381 51.7679C97.381 52.3791 97.2369 52.9321 97.0064 53.3326C96.8846 53.5442 96.7383 53.7138 96.5767 53.8297C96.4125 53.9478 96.2325 54.0118 96.0441 54.0118C95.8552 54.0118 95.6753 53.9478 95.5111 53.8297C95.3495 53.7138 95.2031 53.5442 95.0814 53.3326C94.8509 52.9321 94.7068 52.3791 94.7068 51.7679C94.7068 51.1567 94.8509 50.6037 95.0814 50.2032C95.2031 49.9916 95.3495 49.822 95.5111 49.7056C95.6649 49.5899 95.8516 49.5263 96.0441 49.524ZM94.4208 44.3467L94.5734 44.378L94.675 44.3991C96.3225 44.753 98.4109 45.4496 99.182 47.0456C99.212 47.2761 99.1807 47.3253 99.1547 47.3575L99.1462 47.3682C99.1247 47.396 99.1082 47.434 99.0079 47.4653C98.9798 47.4585 98.9518 47.4515 98.9238 47.4443C98.563 47.3499 98.2775 47.2197 98.0013 47.085L97.7015 46.9378C97.3537 46.7678 97.0033 46.604 96.6313 46.4828C95.8386 46.2237 95.0221 46.0439 94.1939 45.9458C94.0174 45.9285 93.8487 45.8646 93.7051 45.7606C93.5683 45.6581 93.4716 45.5111 93.4316 45.3449C93.373 45.1109 93.39 44.9337 93.5158 44.7221C93.6107 44.5633 93.7463 44.4536 93.902 44.3901C94.067 44.3253 94.2473 44.3102 94.4208 44.3467Z" fill="black"/>
</svg>
