<svg width="1986" height="495" viewBox="0 0 1986 495" fill="none" xmlns="http://www.w3.org/2000/svg">
<path d="M314.58 419.18C314.58 435.016 320.871 450.203 332.069 461.401C343.267 472.599 358.454 478.89 374.29 478.89C390.126 478.89 405.314 472.599 416.511 461.401C427.709 450.203 434 435.016 434 419.18V180.34C434 164.504 427.709 149.316 416.511 138.119C405.314 126.921 390.126 120.63 374.29 120.63C358.454 120.63 343.267 126.921 332.069 138.119C320.871 149.316 314.58 164.504 314.58 180.34V419.18Z" fill="#01947A"/>
<path d="M16 419.18C16 435.016 22.2909 450.203 33.4887 461.401C44.6865 472.599 59.8739 478.89 75.71 478.89C91.5461 478.89 106.734 472.599 117.931 461.401C129.129 450.203 135.42 435.016 135.42 419.18V240.05C135.42 224.214 129.129 209.026 117.931 197.829C106.734 186.631 91.5461 180.34 75.71 180.34C59.8739 180.34 44.6865 186.631 33.4887 197.829C22.2909 209.026 16 224.214 16 240.05L16 419.18Z" fill="#009379"/>
<path d="M314.55 180.34C314.55 180.34 254.84 350.07 135.42 240.05V277.14C135.42 277.14 232.15 378.41 314.55 269.89V180.34Z" fill="#73C2B7"/>
<path d="M75.71 165.55C84.5944 165.55 93.2792 162.915 100.666 157.98C108.053 153.044 113.811 146.028 117.211 137.82C120.611 129.612 121.5 120.58 119.767 111.867C118.034 103.153 113.755 95.1489 107.473 88.8667C101.191 82.5846 93.1871 78.3064 84.4735 76.5731C75.7599 74.8399 66.728 75.7294 58.5199 79.1293C50.3118 82.5292 43.2963 88.2867 38.3604 95.6738C33.4246 103.061 30.79 111.746 30.79 120.63C30.79 132.544 35.5227 143.969 43.9468 152.393C52.3709 160.817 63.7965 165.55 75.71 165.55Z" fill="#009379"/>
<path d="M374.26 105.84C383.144 105.84 391.829 103.206 399.216 98.2696C406.603 93.3338 412.361 86.3182 415.761 78.1102C419.161 69.9021 420.05 60.8702 418.317 52.1566C416.584 43.4429 412.305 35.439 406.023 29.1568C399.741 22.8746 391.737 18.5964 383.024 16.8631C374.31 15.1299 365.278 16.0195 357.07 19.4194C348.862 22.8192 341.846 28.5768 336.91 35.9638C331.975 43.3509 329.34 52.0357 329.34 60.92C329.34 72.8335 334.073 84.2591 342.497 92.6833C350.921 101.107 362.347 105.84 374.26 105.84Z" fill="#01947A"/>
<path d="M666.98 410.91C666.869 411.083 666.749 411.25 666.62 411.41L682.07 402.78C679.082 402.799 676.144 403.549 673.513 404.967C670.882 406.384 668.639 408.425 666.98 410.91Z" fill="#01947A"/>
<path d="M726.3 359.37C726.3 359.21 726.3 359.04 726.3 358.87C726.3 358.7 726.3 358.69 726.3 358.6V358.02C726.3 357.1 726.21 356.19 726.16 355.29C726.16 355.06 726.16 354.84 726.16 354.63C726.11 353.73 726.04 352.84 725.97 351.95L725.91 351.2C725.81 350.11 725.71 349.04 725.59 347.97C725.47 346.9 725.38 346.06 725.26 345.12C725.26 344.8 725.18 344.48 725.13 344.12C725.13 343.99 725.13 343.87 725.13 343.75C725.02 342.92 724.9 342.1 724.78 341.29V341.1C724.61 340.1 724.44 339.03 724.25 338.01C724.239 337.912 724.219 337.815 724.19 337.72C724.05 336.92 723.9 336.13 723.73 335.35C723.71 335.192 723.68 335.035 723.64 334.88L723.49 334.17C723.317 333.363 723.137 332.563 722.95 331.77C722.95 331.62 722.89 331.48 722.85 331.33C722.64 330.43 722.41 329.54 722.17 328.66C722.161 328.581 722.141 328.504 722.11 328.43C721.92 327.67 721.71 326.92 721.49 326.18C721.468 326.089 721.441 325.999 721.41 325.91C721.32 325.57 721.21 325.24 721.11 324.91C720.9 324.22 720.69 323.54 720.47 322.91C720.35 322.53 720.22 322.14 720.08 321.76C719.48 319.98 718.84 318.23 718.15 316.53C717.87 315.863 717.59 315.197 717.31 314.53L717.12 314.11C716.81 313.4 716.49 312.69 716.12 311.99C716 311.72 715.87 311.45 715.74 311.19C715.41 310.48 715.06 309.78 714.74 309.09C705.847 291.03 692.087 277.557 673.46 268.67C654.833 259.783 631.403 255.323 603.17 255.29C575.65 255.29 551.57 259.733 530.93 268.62C510.583 277.5 494.673 290.39 483.2 307.29C471.733 323.957 466 344.033 466 367.52C466 391.007 471.867 411.073 483.6 427.72C495.353 444.34 511.687 457.097 532.6 465.99C553.533 474.59 577.613 478.89 604.84 478.89C629.213 478.89 649.853 475.593 666.76 469C683.667 462.407 697 453.377 706.76 441.91C707.39 441.19 708 440.47 708.59 439.74C708.89 439.38 709.18 439.02 709.47 438.65C711.686 435.863 713.71 432.93 715.53 429.87C722.64 417.92 713.75 402.78 699.84 402.78H682.07C679.082 402.799 676.144 403.549 673.513 404.967C670.882 406.384 668.639 408.425 666.98 410.91C666.869 411.083 666.749 411.25 666.62 411.41C666.25 411.96 665.84 412.49 665.42 413.03L664.8 413.79C663.392 415.481 661.858 417.062 660.21 418.52C659.9 418.8 659.58 419.07 659.21 419.34C659.06 419.47 658.9 419.61 658.73 419.74C658.56 419.87 658.09 420.26 657.73 420.51L656.66 421.34L656.02 421.8L655.08 422.47C653.68 423.45 652.2 424.39 650.64 425.29L649.37 426.01C648.86 426.3 648.37 426.58 647.8 426.86C636.053 432.86 621.29 435.86 603.51 435.86C587.463 435.86 573.56 433.28 561.8 428.12C550.333 422.96 541.16 415.937 534.28 407.05L533.54 406.05L533.4 405.85C533.26 405.65 533.12 405.45 532.99 405.24C527.212 396.964 523.523 387.412 522.24 377.4H708.2C712.989 377.403 717.584 375.506 720.977 372.126C724.37 368.747 726.284 364.159 726.3 359.37ZM525.3 344.73C528.98 331.71 537.127 320.79 549.74 311.97L549.86 311.88L550.24 311.62C563.147 302.44 579.933 297.853 600.6 297.86C621.527 297.86 638.01 302.16 650.05 310.76C650.72 311.21 651.37 311.67 652.05 312.14C663.143 320.307 669.363 331.167 670.71 344.72L525.3 344.73Z" fill="#01947A"/>
<path d="M1005.55 348.17V467.17C1005.55 473.64 998.87 478.88 990.63 478.88H964.55C956.3 478.88 949.62 473.64 949.62 467.17V358.06C949.62 340 945.177 326.813 936.29 318.5C927.69 309.9 913.5 305.6 893.72 305.6C878.82 305.6 865.347 308.467 853.3 314.2C841.253 319.933 831.507 327.243 824.06 336.13C823.6 336.67 823.14 337.21 822.7 337.75C821.79 338.87 820.93 339.99 820.12 341.13C819.8 341.57 819.49 342.02 819.19 342.47L818.95 342.83C818.84 342.99 818.73 343.15 818.63 343.32C816.881 346.004 815.388 348.847 814.17 351.81V467.18C814.17 473.65 807.49 478.89 799.25 478.89H773.23C764.98 478.89 758.3 473.65 758.3 467.18V277.18C758.3 270.72 764.98 265.48 773.23 265.48H799.28C807.52 265.48 814.2 270.72 814.2 277.18V326.82C814.2 326.71 814.27 326.61 814.31 326.5C814.52 325.89 814.73 325.28 814.95 324.68C815.4 323.42 815.89 322.18 816.4 320.94C817.13 319.2 817.92 317.46 818.76 315.74C819.36 314.52 819.99 313.31 820.65 312.1C826.011 302.388 832.991 293.662 841.29 286.3C850.479 278.086 861.126 271.669 872.68 267.38C884.72 262.76 898.343 260.45 913.55 260.45C925.923 260.333 938.243 262.072 950.1 265.61C952.1 266.223 954.037 266.89 955.91 267.61C964.468 270.847 972.397 275.55 979.34 281.51C987.896 289.006 994.531 298.442 998.69 309.03C1003.26 319.93 1005.55 332.977 1005.55 348.17Z" fill="#01947A"/>
<path d="M1133.56 206.7H1107.56C1103.6 206.7 1099.81 208.272 1097.01 211.07C1094.21 213.868 1092.64 217.663 1092.64 221.62V463.96C1092.64 467.918 1094.21 471.714 1097.01 474.514C1099.81 477.313 1103.6 478.887 1107.56 478.89H1133.56C1137.52 478.887 1141.31 477.313 1144.11 474.514C1146.91 471.715 1148.49 467.919 1148.49 463.96V221.62C1148.49 217.662 1146.91 213.867 1144.11 211.069C1141.31 208.272 1137.52 206.7 1133.56 206.7ZM1188.56 265.18H1052.47C1048.51 265.18 1044.72 266.752 1041.92 269.55C1039.12 272.348 1037.55 276.143 1037.55 280.1V293.68C1037.55 297.638 1039.12 301.434 1041.92 304.234C1044.72 307.033 1048.51 308.607 1052.47 308.61H1188.6C1192.56 308.607 1196.35 307.033 1199.15 304.234C1201.95 301.435 1203.53 297.639 1203.53 293.68V280.1C1203.53 276.142 1201.95 272.347 1199.15 269.549C1196.35 266.752 1192.56 265.18 1188.6 265.18H1188.56Z" fill="#01947A"/>
<path d="M1495.84 359.4C1495.84 359.24 1495.84 359.07 1495.84 358.9V358.63C1495.84 358.43 1495.84 358.24 1495.84 358.05C1495.84 357.13 1495.76 356.22 1495.71 355.32L1495.65 354.66C1495.65 353.76 1495.54 352.87 1495.46 351.98L1495.4 351.23C1495.3 350.14 1495.21 349.07 1495.09 348C1494.97 346.93 1494.88 346.09 1494.76 345.15C1494.76 344.83 1494.67 344.51 1494.63 344.15C1494.63 344.02 1494.63 343.9 1494.58 343.78C1494.46 342.95 1494.34 342.13 1494.23 341.32C1494.23 341.26 1494.23 341.2 1494.23 341.13C1494.07 340.13 1493.9 339.06 1493.71 338.04L1493.65 337.75C1493.5 336.95 1493.36 336.16 1493.19 335.38C1493.17 335.222 1493.13 335.065 1493.09 334.91C1493.09 334.67 1493 334.43 1492.94 334.2C1492.77 333.393 1492.59 332.593 1492.4 331.8C1492.38 331.651 1492.34 331.504 1492.3 331.36C1492.09 330.46 1491.87 329.57 1491.63 328.69C1491.62 328.612 1491.6 328.535 1491.57 328.46C1491.38 327.7 1491.17 326.95 1490.94 326.21C1490.92 326.119 1490.9 326.029 1490.87 325.94L1490.57 324.94C1490.36 324.25 1490.15 323.57 1489.92 322.94C1489.8 322.56 1489.67 322.17 1489.54 321.79C1488.94 320.01 1488.3 318.26 1487.61 316.56C1487.33 315.893 1487.05 315.227 1486.77 314.56C1486.71 314.42 1486.63 314.28 1486.58 314.14C1486.27 313.43 1485.94 312.72 1485.58 312.02C1485.47 311.75 1485.33 311.48 1485.2 311.22C1484.87 310.51 1484.53 309.81 1484.2 309.12C1475.32 291.06 1461.56 277.587 1442.93 268.7C1424.3 259.813 1400.89 255.353 1372.7 255.32C1345.19 255.32 1321.11 259.763 1300.47 268.65C1280.09 277.53 1264.18 290.42 1252.74 307.32C1241.27 323.94 1235.53 344.007 1235.53 367.52C1235.53 391.033 1241.41 411.1 1253.17 427.72C1264.92 444.34 1281.26 457.097 1302.17 465.99C1323.09 474.59 1347.17 478.89 1374.4 478.89C1398.78 478.89 1419.42 475.593 1436.32 469C1453.22 462.407 1466.55 453.377 1476.32 441.91C1476.95 441.19 1477.55 440.47 1478.15 439.74C1478.45 439.38 1478.74 439.02 1479.03 438.65C1481.25 435.863 1483.27 432.93 1485.09 429.87C1492.2 417.92 1483.3 402.78 1469.4 402.78H1451.59C1448.6 402.799 1445.66 403.549 1443.03 404.967C1440.4 406.384 1438.16 408.425 1436.5 410.91C1436.38 411.08 1436.26 411.25 1436.13 411.41C1435.76 411.96 1435.36 412.49 1434.93 413.03C1434.74 413.28 1434.53 413.54 1434.32 413.79C1432.91 415.483 1431.37 417.065 1429.72 418.52C1429.42 418.8 1429.09 419.07 1428.78 419.34C1428.63 419.47 1428.47 419.61 1428.3 419.74C1428.13 419.87 1427.65 420.26 1427.3 420.51C1426.95 420.76 1426.59 421.06 1426.22 421.34L1425.59 421.8C1425.28 422.03 1424.97 422.25 1424.59 422.47C1423.19 423.45 1421.71 424.39 1420.16 425.29L1418.88 426.01C1418.38 426.3 1417.88 426.58 1417.31 426.86C1405.56 432.86 1390.8 435.86 1373.02 435.86C1356.98 435.86 1343.08 433.28 1331.31 428.12C1319.84 422.96 1310.67 415.937 1303.79 407.05C1303.54 406.71 1303.29 406.37 1303.06 406.05C1303.01 405.988 1302.96 405.921 1302.92 405.85C1302.77 405.65 1302.63 405.45 1302.5 405.24C1296.78 396.962 1293.14 387.425 1291.9 377.44H1477.78C1482.56 377.43 1487.15 375.526 1490.53 372.146C1493.92 368.766 1495.82 364.183 1495.84 359.4ZM1294.84 344.76C1298.51 331.74 1306.66 320.82 1319.28 312L1319.4 311.91C1319.51 311.82 1319.65 311.74 1319.78 311.65C1332.68 302.47 1349.45 297.883 1370.09 297.89C1391.01 297.89 1407.49 302.19 1419.53 310.79C1420.2 311.24 1420.86 311.7 1421.53 312.17C1432.63 320.337 1438.85 331.197 1440.2 344.75L1294.84 344.76Z" fill="#01947A"/>
<path d="M1664.15 478.89C1637.2 478.89 1613.4 474.59 1592.77 465.99C1572.42 457.39 1556.51 444.92 1545.04 428.58C1533.57 411.953 1527.84 391.6 1527.84 367.52C1527.84 343.44 1533.57 323.087 1545.04 306.46C1556.51 289.547 1572.42 276.79 1592.77 268.19C1613.44 259.59 1637.23 255.29 1664.15 255.29C1691.07 255.29 1714.58 259.59 1734.67 268.19C1755.02 276.79 1770.93 289.547 1782.4 306.46C1793.87 323.087 1799.6 343.44 1799.6 367.52C1799.6 391.6 1793.87 411.953 1782.4 428.58C1770.93 444.92 1755.02 457.39 1734.67 465.99C1714.6 474.59 1691.09 478.89 1664.15 478.89ZM1664.15 435.89C1679.06 435.89 1692.39 433.31 1704.15 428.15C1716.19 422.703 1725.65 414.963 1732.53 404.93C1739.41 394.61 1742.85 382.14 1742.85 367.52C1742.85 352.9 1739.41 340.43 1732.53 330.11C1725.71 319.558 1715.98 311.197 1704.53 306.03C1692.78 300.583 1679.31 297.86 1664.11 297.86C1649.2 297.86 1635.72 300.583 1623.69 306.03C1612.09 311.114 1602.13 319.297 1594.88 329.68C1588 340 1584.56 352.613 1584.56 367.52C1584.56 382.14 1588 394.61 1594.88 404.93C1601.76 414.93 1611.22 422.67 1623.26 428.15C1635.33 433.31 1648.96 435.89 1664.15 435.89Z" fill="#01947A"/>
<path d="M1969.6 265.56V306.45C1969.6 307.524 1969.26 308.571 1968.63 309.441C1968 310.311 1967.11 310.958 1966.09 311.29C1965.15 311.29 1964.22 311.35 1963.29 311.4C1949.88 312.127 1938.08 315.223 1927.89 320.69C1916.14 326.69 1906.68 334.143 1899.51 343.05C1894.82 348.759 1890.79 354.986 1887.51 361.61V467.31C1887.51 473.13 1882.12 477.96 1875.05 478.89H1844.05C1836.98 477.96 1831.6 473.13 1831.6 467.31V276.89C1831.6 270.42 1838.28 265.18 1846.52 265.18H1872.57C1880.81 265.18 1887.5 270.42 1887.5 276.89V330.11C1889.79 322.528 1892.8 315.184 1896.5 308.18C1900.71 299.873 1906.06 292.201 1912.41 285.39C1919.15 277.82 1927.34 271.679 1936.49 267.33C1944.81 263.419 1953.82 261.157 1963 260.67C1963.8 260.61 1964.62 260.57 1965.44 260.54C1966.61 260.763 1967.66 261.386 1968.42 262.302C1969.18 263.218 1969.6 264.37 1969.6 265.56Z" fill="#01947A"/>
</svg>
