<svg width="896" height="281" viewBox="0 0 896 281" fill="none" xmlns="http://www.w3.org/2000/svg">
<path d="M239.469 71.4035C241.805 73.6515 243.981 75.9635 245.869 78.6035V80.2035C246.661 80.4675 247.453 80.7315 248.269 81.0035C249.149 82.2275 249.149 82.2275 249.917 83.8035C250.302 84.5587 250.302 84.5587 250.695 85.3315C252.639 90.5555 253.303 95.7315 253.279 101.251C253.282 101.883 253.285 102.515 253.289 103.163C253.297 105.259 253.294 107.355 253.29 109.451C253.294 110.963 253.298 112.475 253.303 113.987C253.314 118.083 253.314 122.147 253.312 126.227C253.311 129.651 253.315 133.075 253.319 136.467C253.328 144.548 253.328 152.627 253.323 160.708C253.318 169.028 253.328 177.348 253.345 185.668C253.359 192.828 253.364 199.988 253.362 207.188C253.36 211.46 253.362 215.748 253.373 219.988C253.383 224.004 253.382 227.988 253.371 232.068C253.37 233.532 253.372 235.004 253.378 236.468C253.475 259.588 253.475 259.587 245.874 268.148C244.434 269.516 242.978 270.78 241.41 271.996C240.154 272.924 240.154 272.923 239.474 274.547C237.818 275.523 237.818 275.523 235.722 276.547C235.043 276.886 234.362 277.224 233.666 277.571C228.29 279.963 223.826 280.42 217.986 280.396C217.229 280.408 216.474 280.421 215.69 280.435C205.13 280.442 198.01 276.155 190.41 269.075C187.178 265.715 185.258 261.995 183.458 257.715C183.034 256.827 183.034 256.827 182.602 255.923C180.634 250.083 180.93 243.603 180.89 237.523C180.882 236.659 180.874 235.787 180.866 234.899C180.841 232.059 180.821 229.211 180.801 226.339C180.785 224.355 180.768 222.379 180.751 220.395C180.707 215.195 180.667 209.995 180.629 204.795C180.588 199.483 180.544 194.155 180.5 188.875C180.414 178.475 180.333 168.075 180.254 157.675H178.654C177.294 159.027 177.294 159.027 175.902 160.723C172.222 165.091 172.222 165.091 170.654 166.475H169.054C168.79 167.267 168.526 168.059 168.254 168.875C167.094 170.075 167.094 170.075 165.654 171.275C165.188 171.671 164.718 172.067 164.238 172.475C162.446 173.827 160.598 174.947 158.654 176.075C157.877 176.528 157.102 176.979 156.294 177.451C155.454 177.921 154.614 178.395 153.75 178.875C152.926 179.345 152.094 179.819 151.246 180.299C144.518 183.643 137.566 184.499 130.126 184.427C129.286 184.419 128.454 184.412 127.59 184.405C112.79 184.078 98.7103 179.197 86.6303 170.485V168.885C86.0559 168.689 85.4783 168.493 84.8863 168.291C82.3583 167.163 80.5903 165.763 78.4783 163.987C76.0623 161.651 76.0623 161.651 73.0303 160.883C73.0291 161.334 73.0279 161.787 73.0267 162.251C72.9969 173.291 72.9494 184.331 72.8835 195.371C72.852 200.707 72.8262 206.011 72.8138 211.371C72.8017 216.531 72.774 221.691 72.736 226.811C72.7241 228.771 72.7178 230.731 72.7171 232.691C72.6993 258.451 72.6993 258.451 64.2371 268.851C63.6763 269.544 63.1171 270.235 62.5411 270.947C51.8211 279.747 41.5811 281.027 28.2211 280.067C18.3011 278.251 11.1011 270.947 5.02109 263.267C-0.122907 255.587 -0.010915 246.547 0.0130851 237.587C0.0109091 236.475 0.00806937 235.363 0.00461337 234.251C-0.00263463 231.251 0.000129321 228.251 0.00522372 225.211C0.00930372 222.059 0.00550444 218.899 0.00300204 215.771C9.8041e-05 210.475 0.00391538 205.211 0.0115714 199.851C0.0202914 193.747 0.0174497 187.611 0.00864169 181.531C0.00135369 176.267 0.000396127 170.971 0.00454013 165.771C0.00702013 162.635 0.00742672 159.507 0.00209872 156.411C-0.00256528 153.459 0.000759635 150.515 0.00993564 147.531C0.0130156 145.947 0.00833542 144.363 0.00331942 142.787C0.0639594 129.827 2.54731 119.427 11.4433 109.587C13.5953 107.891 13.5953 107.891 16.2433 106.387C16.9241 105.991 17.6033 105.595 18.3073 105.187C24.8033 101.491 30.2273 99.7151 37.6673 99.8351C38.2769 99.8356 38.8833 99.8361 39.5153 99.8367C43.9873 99.8723 43.9873 99.8723 45.8193 100.789C47.0993 101.273 48.3873 101.757 49.6673 102.237C52.8833 103.525 55.2513 104.821 57.8273 107.189C58.3193 107.582 58.8113 107.977 59.3153 108.381C66.8593 114.549 70.8353 121.741 72.1153 131.341C72.7705 135.525 73.5153 137.389 77.0113 139.981C77.5241 140.402 78.0353 140.821 78.5633 141.261C90.4033 150.861 103.443 158.061 118.963 157.901C120.115 157.915 120.115 157.915 121.291 157.929C128.339 157.9 135.291 156.761 141.291 152.849C141.943 152.431 142.595 152.017 143.267 151.585C143.853 151.194 144.435 150.803 145.043 150.401C145.915 149.84 146.795 149.281 147.691 148.705C153.155 144.897 157.211 140.465 161.291 135.185C161.737 134.657 162.179 134.129 162.643 133.585H164.243C164.426 133.064 164.608 132.545 164.796 132.009C166.188 128.777 167.98 125.849 169.796 122.809C172.092 118.985 174.3 115.177 176.244 111.129C176.583 110.487 176.921 109.849 177.268 109.185C179.42 104.873 180.612 100.865 181.34 96.0648C182.708 87.4248 186.356 80.0648 192.22 73.5048C193.524 72.6648 194.86 71.8568 196.22 71.1048C196.595 70.7208 196.971 70.3376 197.356 69.9448C208.316 59.2248 228.396 62.7848 239.436 71.1048L239.469 71.4035Z" fill="#4FA892"/>
<path d="M377.867 194.604C379.531 196.1 379.531 196.1 380.331 198.5C381.523 198.896 381.523 198.896 382.731 199.3C390.811 208.82 390.731 221.14 390.731 232.9C351.131 233.296 351.131 233.296 310.731 233.7C310.731 240.5 312.315 242.82 316.483 247.78C326.563 256.26 337.203 256.98 349.923 256.1C356.395 255.156 361.683 253.548 366.083 248.5C367.515 246.588 367.515 246.588 368.547 244.796C369.931 243.3 369.931 243.3 371.955 242.924C372.741 242.935 373.531 242.947 374.339 242.959C375.195 242.966 376.051 242.972 376.931 242.979C377.827 243.002 378.715 243.026 379.635 243.05C380.979 243.061 380.979 243.061 382.355 243.073C388.995 243.165 388.995 243.165 389.931 244.097C390.692 249.041 388.243 252.737 385.931 256.897H384.331C383.803 258.217 383.275 259.537 382.731 260.897H381.131C380.834 261.664 380.834 261.664 380.531 262.449C379.531 264.097 379.531 264.097 377.827 264.697C377.332 264.763 376.835 264.829 376.323 264.897V266.497C366.323 272.193 356.483 273.313 345.203 273.257C343.291 273.25 341.379 273.273 339.467 273.299C324.827 273.366 310.427 270.219 299.547 259.859C294.347 254.691 294.347 254.691 293.115 252.931V250.531H291.515C286.587 239.331 284.635 227.331 288.315 215.331C291.595 207.603 295.331 201.331 301.915 196.131C302.529 195.606 303.147 195.083 303.779 194.539C307.579 191.675 311.939 190.011 316.339 188.131C316.902 187.871 317.467 187.613 318.043 187.347C336.363 179.523 362.283 183.171 377.883 194.635L377.867 194.604ZM334.427 200.94C327.523 201.432 319.787 205.916 315.147 211.02C312.635 214.276 312.283 215.668 311.547 220.06H368.347C368.414 214.036 368.414 214.036 365.147 209.66C358.187 202.748 352.187 200.7 342.427 200.78C339.771 200.808 337.115 200.864 334.459 200.92L334.427 200.94Z" fill="#4FA892"/>
<path d="M673.867 186.603C674.452 186.786 675.035 186.968 675.635 187.156C685.315 190.26 691.795 195.556 697.075 204.196C697.403 204.682 697.731 205.164 698.067 205.668C703.219 213.66 702.203 223.988 702.675 233.028C662.675 233.424 662.675 233.424 621.875 233.828C622.795 241.212 624.683 245.428 630.515 250.068C640.515 256.988 652.995 257.564 664.755 255.796C669.867 254.484 674.915 252.74 677.955 248.22H679.555C679.786 247.577 680.018 246.932 680.255 246.268C681.151 244.22 681.151 244.22 682.751 243.42C684.135 243.343 685.519 243.315 686.903 243.314C687.727 243.313 688.543 243.312 689.391 243.311C690.255 243.314 691.111 243.317 691.999 243.32C692.863 243.317 693.727 243.314 694.615 243.311C695.439 243.312 696.255 243.313 697.103 243.314C697.86 243.315 698.615 243.316 699.399 243.317C701.151 243.42 701.151 243.42 701.951 244.221C701.561 251.645 698.663 257.021 693.631 262.461C682.911 271.821 669.631 273.501 655.871 273.421C654.015 273.414 652.159 273.437 650.303 273.462C634.223 273.536 620.303 268.702 608.463 257.462C604.311 253.086 601.711 248.502 600.383 242.662H599.583C597.399 229.542 598.143 217.302 605.183 205.862C605.694 204.99 606.207 204.11 606.735 203.214C608.847 200.462 611.287 198.422 613.983 196.262C614.66 195.685 615.335 195.11 616.031 194.51C619.775 191.726 624.111 190.014 628.351 188.262C628.848 188.055 629.343 187.848 629.855 187.634C641.615 183.202 662.495 180.922 673.935 186.666L673.867 186.603ZM626.507 211.083C624.395 213.643 624.395 213.643 622.635 220.203H681.035C678.771 212.651 677.563 208.683 671.035 204.523C665.339 201.515 660.235 200.843 653.835 200.883C653.294 200.88 652.755 200.877 652.195 200.874C641.795 200.894 634.355 204.418 626.435 211.034L626.507 211.083Z" fill="#4FA892"/>
<path d="M807.469 194.603C808.525 195.499 809.573 196.395 810.621 197.307C811.33 197.803 812.037 198.299 812.773 198.811C820.933 206.339 824.052 217.291 824.772 228.011C824.831 228.867 824.831 228.867 824.89 229.747C825.124 233.915 825.124 233.915 824.222 235.715C824.049 237.267 823.884 238.811 823.722 240.363C822.826 246.619 820.282 251.163 817.018 256.523H815.418C815.204 257.035 814.989 257.547 814.769 258.075C813.817 259.723 813.817 259.723 811.417 260.523C811.185 261.002 810.954 261.483 810.717 261.971C807.829 267.587 800.797 269.132 795.277 270.932C787.837 273.132 780.957 273.763 773.277 273.659C771.421 273.636 769.565 273.643 767.709 273.653C753.069 273.633 738.669 270.581 727.789 260.053C717.309 248.933 715.788 239.333 716.028 224.453C716.382 214.933 719.965 207.893 725.869 200.453C726.661 199.925 727.453 199.397 728.269 198.853C728.829 198.243 729.389 197.629 729.965 197.005C734.509 192.757 740.045 190.437 745.885 188.445C746.424 188.24 746.965 188.035 747.517 187.824C765.757 181.136 791.757 182.464 807.517 194.544L807.469 194.603ZM750.589 206.923C749.749 207.385 748.909 207.843 748.037 208.323C742.765 212.539 738.837 219.523 737.797 226.083C737.292 234.051 738.429 240.483 743.397 246.883C750.509 254.371 758.437 257.203 768.517 257.523C780.357 257.655 787.957 255.635 796.677 247.203C801.181 242.315 802.213 236.563 802.125 230.163C802.116 229.219 802.116 229.219 802.108 228.251C801.971 223.267 801.116 219.211 798.572 214.891C798.291 214.379 798.011 213.867 797.724 213.339C794.372 207.947 788.364 204.459 782.604 202.059C771.644 199.595 760.044 200.811 750.604 206.859L750.589 206.923Z" fill="#4FA892"/>
<path d="M496.268 192.203C503.78 199.715 505.868 206.443 506.028 216.763C506.044 217.707 506.059 218.651 506.075 219.619C506.123 222.635 506.16 225.651 506.197 228.659C506.227 230.635 506.258 232.603 506.29 234.579C506.477 246.739 506.538 258.979 506.497 271.139C503.049 271.163 499.601 271.177 496.177 271.189C495.193 271.196 494.209 271.203 493.193 271.21C492.257 271.212 491.321 271.215 490.361 271.218C489.057 271.224 489.057 271.224 487.737 271.23C485.737 271.139 485.737 271.139 484.937 270.342C484.846 268.782 484.811 267.222 484.797 265.662C484.787 264.662 484.776 263.662 484.765 262.63C484.761 262.091 484.757 261.55 484.752 260.998C484.739 259.31 484.721 257.622 484.701 255.934C484.644 251.134 484.596 246.334 484.555 241.534C484.529 238.598 484.496 235.662 484.459 232.734C484.446 231.622 484.436 230.502 484.429 229.39C484.449 218.11 484.449 218.11 480.133 207.95V206.35C478.805 205.795 477.469 205.27 476.133 204.75C475.656 204.539 475.181 204.327 474.685 204.11C466.365 200.798 457.325 201.614 449.005 204.472C445.637 205.944 442.637 207.8 439.645 209.88C437.773 211.152 437.773 211.152 435.981 212C433.909 213.104 433.733 214.576 432.973 216.744C432.569 217.343 432.165 217.944 431.749 218.56C430.349 221.168 430.261 222.872 430.229 225.824C430.214 226.832 430.198 227.84 430.181 228.88C430.176 229.976 430.171 231.064 430.166 232.16C430.152 233.288 430.138 234.408 430.122 235.536C430.084 238.488 430.061 241.432 430.04 244.416C430.016 247.432 429.979 250.44 429.943 253.456C429.874 259.36 429.821 265.296 429.776 271.216C426.328 271.239 422.88 271.253 419.456 271.266C418.472 271.273 417.488 271.279 416.472 271.286C415.536 271.289 414.6 271.291 413.64 271.294C412.336 271.3 412.336 271.3 411.016 271.307C409.016 271.216 409.016 271.216 408.216 270.419C408.136 269.347 408.111 268.275 408.109 267.203C408.105 266.511 408.102 265.819 408.098 265.107C408.099 264.342 408.099 263.579 408.1 262.787C408.097 261.987 408.094 261.187 408.091 260.355C408.084 257.691 408.082 255.027 408.081 252.363C408.079 250.523 408.076 248.675 408.073 246.835C408.068 242.971 408.067 239.099 408.067 235.235C408.068 230.267 408.057 225.315 408.043 220.355C408.034 216.547 408.032 212.739 408.033 208.915C408.032 207.083 408.028 205.251 408.022 203.419C408.014 200.859 408.017 198.307 408.021 195.747C408.017 194.984 408.012 194.219 408.008 193.435C408.011 192.74 408.015 192.043 408.018 191.331C408.018 190.726 408.017 190.123 408.017 189.499C408.216 188.019 408.216 188.019 409.817 186.419C411.665 186.224 411.665 186.224 413.945 186.235C414.761 186.236 415.577 186.238 416.425 186.239C417.281 186.249 418.137 186.259 419.025 186.269C419.881 186.27 420.737 186.27 421.625 186.271C428.001 186.307 428.001 186.307 429.865 187.223C430.129 194.351 430.393 201.463 430.665 208.823H432.265C432.529 207.239 432.793 205.655 433.065 204.023H434.665C434.862 203.577 435.061 203.135 435.265 202.671C439.769 194.351 448.225 188.751 456.945 185.551C471.185 181.455 484.465 183.887 496.465 192.183L496.268 192.203Z" fill="#4FA892"/>
<path d="M547.469 162.604C548.26 162.607 549.053 162.61 549.869 162.614C550.725 162.615 551.581 162.617 552.469 162.618C553.365 162.628 554.269 162.638 555.189 162.648C556.541 162.649 556.541 162.649 557.925 162.649C564.629 162.686 564.629 162.686 565.541 163.601C565.667 165.257 565.741 166.921 565.793 168.577C565.827 169.585 565.86 170.593 565.895 171.633C565.927 172.705 565.959 173.777 565.99 174.849C566.025 175.921 566.06 177.001 566.095 178.073C566.18 180.713 566.262 183.353 566.341 185.993C566.966 186.014 567.589 186.034 568.237 186.054C571.053 186.147 573.869 186.245 576.717 186.344C578.197 186.391 578.197 186.391 579.701 186.439C580.637 186.472 581.573 186.506 582.533 186.541C583.397 186.57 584.269 186.599 585.157 186.629C587.157 186.793 587.157 186.793 587.957 187.597C588.026 188.789 588.042 189.981 588.035 191.173C588.031 192.253 588.031 192.253 588.027 193.349C588.017 194.485 588.017 194.485 588.007 195.645C588.003 196.405 587.999 197.165 587.996 197.949C587.986 199.829 587.973 201.717 587.957 203.597C587.331 203.617 586.709 203.637 586.061 203.658C583.245 203.751 580.429 203.848 577.581 203.948C576.597 203.979 575.613 204.011 574.597 204.043C573.661 204.076 572.725 204.11 571.765 204.144C570.461 204.188 570.461 204.188 569.141 204.233C567.189 204.176 567.189 204.176 566.341 205.201C566.241 207.273 566.192 209.321 566.177 211.385C566.169 212.033 566.161 212.681 566.153 213.345C566.127 215.497 566.107 217.649 566.088 219.801C566.071 221.289 566.054 222.777 566.037 224.265C565.993 228.185 565.953 232.113 565.915 236.025C565.875 240.025 565.83 244.025 565.786 248.025C565.7 255.881 565.619 263.705 565.54 271.625C562.092 271.648 558.644 271.663 555.22 271.675C554.236 271.682 553.252 271.689 552.236 271.696C551.3 271.698 550.364 271.701 549.404 271.703C548.54 271.708 547.668 271.712 546.78 271.716C544.78 271.625 544.78 271.625 543.98 270.828C543.88 268.756 543.832 266.708 543.816 264.644C543.809 263.996 543.801 263.348 543.792 262.684C543.767 260.532 543.747 258.38 543.728 256.228C543.711 254.74 543.694 253.252 543.677 251.764C543.633 247.844 543.593 243.916 543.555 240.004C543.515 236.004 543.47 232.004 543.426 228.004C543.34 220.148 543.259 212.324 543.18 204.404C532.86 204.008 532.86 204.008 522.38 203.604C521.068 200.98 521.436 198.084 521.428 195.204C521.419 194.576 521.409 193.948 521.399 193.3C521.394 191.668 521.48 190.036 521.579 188.404C523.179 186.804 523.179 186.804 525.267 186.62C526.131 186.629 526.995 186.637 527.883 186.646C529.283 186.653 529.283 186.653 530.715 186.661C531.691 186.675 532.675 186.688 533.683 186.702C534.667 186.709 535.651 186.716 536.667 186.724C539.107 186.742 541.547 186.769 543.979 186.802C543.97 186.131 543.962 185.458 543.953 184.77C543.926 182.29 543.906 179.802 543.891 177.322C543.879 175.714 543.859 174.114 543.838 172.506C543.833 171.498 543.828 170.498 543.823 169.458C543.814 168.53 543.806 167.594 543.797 166.642C544.031 163.762 544.585 162.906 547.509 162.61L547.469 162.604Z" fill="#4FA892"/>
<path d="M895.468 185.003V204.203C892.828 204.731 890.188 205.259 887.468 205.803C885.58 206.451 883.708 207.147 881.868 207.899C877.212 209.803 877.212 209.803 875.468 209.803C875.204 210.595 874.94 211.387 874.668 212.203C873.748 212.743 873.748 212.743 872.804 213.291C870.324 214.811 869.284 216.315 867.716 218.747C866.868 220.059 865.996 221.347 865.068 222.595H863.468C863.204 238.675 862.94 254.835 862.668 271.395H841.868C840.644 270.171 840.964 269.083 840.964 267.379C840.961 266.687 840.957 265.995 840.954 265.283C840.954 264.519 840.955 263.755 840.955 262.963C840.952 262.163 840.95 261.363 840.947 260.531C840.939 257.867 840.938 255.203 840.937 252.539C840.934 250.699 840.932 248.851 840.929 247.011C840.924 243.147 840.922 239.275 840.923 235.411C840.923 230.443 840.912 225.491 840.898 220.531C840.889 216.723 840.888 212.915 840.888 209.091C840.887 207.259 840.884 205.427 840.878 203.595C840.87 201.035 840.872 198.483 840.877 195.923C840.872 195.16 840.868 194.395 840.863 193.611C840.867 192.917 840.87 192.219 840.873 191.507C840.873 190.903 840.873 190.299 840.872 189.675C841.071 188.195 841.071 188.195 842.672 186.595C844.52 186.401 844.52 186.401 846.8 186.411C847.616 186.413 848.432 186.415 849.28 186.416C850.136 186.426 850.992 186.436 851.88 186.446C852.736 186.446 853.592 186.447 854.48 186.447C860.856 186.484 860.856 186.484 862.72 187.399C862.984 194.527 863.248 201.639 863.52 208.999C865.448 206.111 866.992 203.759 868.472 200.759C872.76 192.967 879.032 188.279 887.352 185.639C888.208 185.425 889.064 185.211 889.952 184.99C890.547 184.808 891.136 184.627 891.752 184.439C893.152 184.19 893.152 184.19 895.552 184.99L895.468 185.003Z" fill="#4FA892"/>
<path d="M49.0671 39.4035C55.5871 44.4035 61.8671 50.2035 63.4671 58.6035C64.1935 67.9635 62.9143 75.1635 57.5151 82.9235C52.8431 88.3155 47.0351 90.4035 40.0751 91.0035C32.4031 91.3571 25.9151 90.6899 19.7551 85.7475C13.4591 79.8755 9.35508 73.6675 8.95508 64.9475C9.31668 56.9475 12.0031 50.1475 17.6751 44.4675C25.9951 37.0835 38.7951 33.5075 49.0351 39.4915L49.0671 39.4035Z" fill="#4FA892"/>
<path d="M230.667 3.40347C237.019 7.90747 241.947 12.7635 243.627 20.6035C244.331 28.3875 244.771 36.4435 240.739 43.3235C239.627 44.5875 239.627 44.5875 237.227 45.3875C236.691 46.4515 236.155 47.5155 235.627 48.5875C234.267 49.7155 234.267 49.7155 232.675 50.6835C232.161 51.0075 231.643 51.3315 231.115 51.6675C224.379 54.9395 216.635 55.2115 209.355 53.7235C202.331 51.2915 195.835 45.5635 192.395 39.0035C190.011 31.8515 189.379 23.0835 192.189 15.8835C194.469 12.0035 197.909 7.40347 202.029 5.40347C202.458 5.04027 202.885 4.67707 203.325 4.29947C211.085 -1.01253 222.605 -1.49253 230.685 3.36347L230.667 3.40347Z" fill="#4FA892"/>
<path d="M506.668 209.803H507.468V244.203H506.668V209.803Z" fill="#000002"/>
<path d="M506.668 252.203H507.468V265.803H506.668V252.203Z" fill="#000002"/>
<path d="M824.268 235.404H825.068V239.404H824.268V235.404Z" fill="#000002"/>
<path d="M431.468 206.604C431.732 207.396 431.996 208.188 432.268 209.004C431.74 208.74 431.212 208.476 430.668 208.204C430.932 207.676 431.196 207.148 431.468 206.604Z" fill="#4FA892"/>
</svg>
