<svg width="252" height="350" viewBox="0 0 252 350" fill="none" xmlns="http://www.w3.org/2000/svg">
<path fill-rule="evenodd" clip-rule="evenodd" d="M214.195 163.091C214.177 164.309 214.055 167.108 213.749 168.288C217.154 162.826 222.257 156.857 223.033 150.168C222.791 150.102 221.718 150.003 221.531 149.862C219.769 150.681 220.102 148.161 219.842 146.995C219.138 144.527 217.661 142.099 217.019 139.615C215.332 138.885 218.72 138.575 219.213 138.561C217.166 136.281 216.225 133.147 214.767 130.487C212.626 125.967 210.708 121.346 208.996 116.653C208.622 119.594 208.555 122.566 208.783 125.523C209.487 138.188 214.242 150.367 214.195 163.091ZM96.0065 140.593C97.0659 140.771 98.8314 140.939 99.8887 141.026C98.5009 140.198 94.3993 138.621 96.9841 137.204C97.7811 136.913 98.6363 137.328 99.44 137.457C102.778 138.006 106.899 137.977 110.276 137.7C109.045 136.689 107.424 135.234 106.223 134.188C105.584 133.632 104.965 133.421 105.684 132.591C106.949 131.411 109.213 132.28 110.676 132.798C114.713 135.061 119.272 137.516 123.604 139.257C123.65 138.65 123.622 137.865 124.207 137.457C125.924 136.647 127.188 136.884 129.015 136.668C131.144 136.349 133.037 135.986 135.145 135.422C136.524 134.37 137.365 131.266 139.571 131.613C137.618 126.695 140.595 121.564 141.713 116.854C143.109 112.035 143.842 107.03 143.862 102.019C143.875 93.9955 148.52 87.8396 155.231 83.7228C157.876 81.9352 159.653 77.5871 162.928 76.7162C163.345 75.1169 163.37 74.4144 163.736 72.803C163.919 72.3401 164.056 69.8284 164.518 69.9138C165.027 67.4259 167.622 66.4281 169.868 65.907C172.788 65.3015 176.863 64.568 179.488 66.2766C180.248 66.9096 180.582 67.9695 180.638 68.9164C180.93 70.1773 181.536 71.4836 182.244 72.5776C183.451 72.1696 182.768 71.4092 183.961 71.2322C194.861 69.6157 206.959 77.6165 214.031 85.4216C226.849 98.5927 237.09 116.573 235.413 135.345C235.864 135.279 237.862 134.965 237.833 135.597C237.736 138.344 237.23 140.635 237.091 143.38C237.23 147.017 233.454 147.455 230.726 148.352C230.894 158.902 227.064 169.455 221.068 178.128C219.612 179.834 217.426 185.756 214.767 183.397C214.454 183.03 216.884 180.49 217.316 179.863C218.792 178.003 222.702 168.797 219.939 166.958C219.325 168.946 213.376 178.502 212.316 173.078C210.907 173.896 208.58 174.454 206.897 174.369C203.732 176.085 200.652 177.937 197.612 179.863C196.197 182.645 194.12 185.317 192.38 187.988C204.421 215.817 216.173 261.62 231.667 287.832C233.018 289.543 225.586 292.453 224.274 293.081C226.784 297.16 227.098 301.886 229.008 306.278C229.372 306.219 229.739 306.297 230.067 306.472C232.423 308.069 233.312 313.784 233.446 316.602C233.338 317.859 233.803 319.76 232.787 320.685C232.929 320.839 233.035 321.027 233.11 321.219C233.826 321.776 233.738 323.007 233.355 323.771C232.01 326.565 222.177 326.305 218.986 326.903C207.683 327.861 198.196 328.012 186.895 326.965C185.508 326.674 186.557 324.508 187.242 323.921C186.925 323.728 186.723 323.377 186.861 322.925C189.431 315.573 198.717 316.07 204.336 312.144C202.858 311.289 203.812 311.562 204.74 311.894C205.725 311.275 206.683 310.578 207.571 309.807C206.889 309.386 207.226 309.108 207.963 309.461C209.126 308.528 210.031 307.086 211.512 306.634C212.963 306.278 212.963 305.657 212.963 305.266C212.1 301.793 211.157 298.231 210.672 294.708C210.155 295.471 205.694 289.358 204.74 287.832C201.031 281.955 201.042 276.163 198.446 269.772C193.117 255.854 182.201 226.683 175.543 213.372C159.967 238.771 167.553 273.121 157.944 300.205C157.517 301.019 156.714 304.07 155.602 303.19C155.17 303.291 154.71 303.346 154.298 303.404C154.417 306.365 154.639 309.317 155.131 312.247C155.589 312.368 155.978 312.609 156.179 313.029C156.951 312.463 158.427 320.823 158.554 321.674C158.556 322.773 159.502 325.219 158.638 325.872C159.883 326.382 160.086 328.266 159.211 329.235C156.61 332.733 143.933 331.772 139.257 332.358C133.343 332.211 108.603 334.427 106.885 328.813C106.543 327.532 107.129 325.914 108.319 325.421C107.843 324.308 108.984 323.233 109.682 322.452C113.798 318.168 120.127 317.493 125.607 315.629C125.403 315.419 132.761 311.647 134.356 310.714C134.251 309.447 136.882 310.717 136.889 310.714C138.143 308.496 139.032 305.045 139.873 302.652C138.321 302.17 134.581 301.743 133.888 300.205C131.66 299.457 133.895 296.225 134.356 294.708C147.414 262.016 135.026 220.78 154.298 189.924C150.766 187.899 146.713 183.469 150.202 179.752C150.901 178.858 152.609 176.077 152.581 176.562C153.23 173.914 154.679 169.351 155.131 166.673C156.789 156.84 155.702 147.631 154.298 137.7C152.35 145.173 145.634 151.398 138.803 154.812C136.137 155.913 132.616 158.185 129.689 157.468C127.047 156.686 122.249 151.26 121.683 148.653C113.982 149.569 105.986 148.834 98.6258 146.412C97.681 146.054 96.5629 146.084 96.855 144.743C97.1464 143.604 99.2239 143.894 100.117 144.106C98.7518 143.348 95.2072 143.15 95.2343 141.17C95.2804 140.757 95.5849 140.522 96.0065 140.593Z" fill="white"/>
<path fill-rule="evenodd" clip-rule="evenodd" d="M180.611 67.3395C180.494 67.387 180.414 67.5653 180.367 67.8332C180.236 67.8739 180.125 67.9703 180.091 68.1155C179.992 68.5424 180.108 68.9876 180.197 69.4131L180.207 69.4622C180.291 69.8741 180.394 70.2836 180.52 70.6851L180.539 70.7868C180.845 72.4462 181.436 74.0239 182.13 73.7559L181.97 74.0481C179.247 78.9941 171.467 92.2742 165.394 90.3813C161.857 88.9627 161.907 84.3513 162.166 81.142C164.792 82.754 165.283 70.4148 164.745 69.0512C164.316 68.7357 164.11 71.5742 163.95 71.9655C163.602 73.5225 163.175 75.0594 162.775 76.6035C161.928 76.7712 161.127 77.109 160.419 77.5931C160.385 77.6125 160.35 77.6301 160.317 77.6502C159.892 77.909 159.561 78.239 159.265 78.6046C158.931 78.9786 158.646 79.388 158.376 79.8089C157.783 80.4833 157.217 81.1827 156.633 81.8642C156.356 82.1877 156.072 82.5012 155.782 82.8069L155.558 82.9951C155.521 83.0263 155.483 83.0574 155.445 83.0882C148.735 87.2806 144.09 93.5533 144.077 101.724C144.057 106.828 143.324 111.926 141.928 116.835C140.81 121.632 137.197 126.535 139.15 131.544C136.945 131.191 136.74 134.028 135.361 135.1L134.927 135.218C132.99 135.739 131.213 136.175 129.231 136.477C127.404 136.697 125.292 136.456 123.575 137.28C122.99 137.696 123.199 138.446 123.153 139.065C118.821 137.291 114.93 134.841 110.893 132.536L110.757 132.487C109.263 131.956 106.598 131.159 105.37 132.324C104.652 133.17 105.377 133.924 106.015 134.491C107.216 135.556 108.491 136.533 109.721 137.563C106.405 137.84 103.079 137.619 99.7988 137.081L99.62 137.051C98.8164 136.92 97.8689 136.607 97.0718 136.904C94.4872 138.347 97.4779 140.033 98.8656 140.876C97.8083 140.788 96.7527 140.656 95.6932 140.475C95.2718 140.402 94.9673 140.643 94.9209 141.063C94.894 143.08 97.5488 143.189 98.9141 143.96L98.8046 143.934C97.912 143.727 96.6287 143.545 96.349 144.659C96.0568 146.025 97.8978 146.578 98.8426 146.942C106.202 149.409 114.198 150.158 121.899 149.225C122.465 151.88 127.263 157.408 129.905 158.204C132.832 158.934 136.352 156.62 139.018 155.499C145.85 152.021 152.179 146.285 154.128 138.674C155.765 150.475 155.103 162.372 152.645 173.984C152.247 174.889 151.828 175.78 151.355 176.649C151.213 176.672 151.092 176.767 151.064 176.96C151.049 177.066 151.028 177.169 151.004 177.27C150.534 178.07 150.018 178.838 149.54 179.633C149.441 179.797 149.343 179.968 149.254 180.143C146.068 183.903 149.951 188.749 153.424 190.776C134.152 222.205 146.599 261.813 133.542 295.113L133.513 295.207C133.017 296.791 131.508 300.051 133.691 300.797C134.384 302.364 137.877 302.548 139.428 303.039C138.588 305.476 137.653 307.887 136.398 310.146L136.376 310.156C135.876 309.789 134.805 309.409 134.362 309.809C134.254 309.823 134.147 309.853 134.042 309.905C133.357 310.246 132.806 310.898 132.15 311.308C131.796 311.53 131.428 311.731 131.048 311.907C130.695 312.071 130.32 312.179 130.032 312.449C129.94 312.534 129.917 312.642 129.94 312.742C129.712 312.86 129.485 312.979 129.259 313.098L129.135 313.021C127.133 311.772 125.522 311.096 128.436 313.494C127.392 313.977 126.321 314.4 125.244 314.796C124.425 314.402 123.552 314.115 122.651 314.075C122.489 314.275 123.727 315.05 123.931 315.263C118.451 317.162 112.424 318.649 108.308 323.013L108.216 323.117C107.515 323.903 106.49 324.952 106.946 326.037C105.755 326.539 105.169 328.187 105.511 329.492C107.229 335.21 133.559 332.954 139.472 333.103C144.149 332.506 156.825 333.485 159.425 329.922C160.301 328.935 160.098 327.016 158.852 326.496C159.717 325.831 158.77 323.34 158.768 322.221L158.748 322.092C158.616 321.256 158.042 317.987 157.447 315.702C157.434 315.522 157.41 315.338 157.382 315.152L157.363 315.034C157.244 314.306 157.063 313.565 156.593 312.979C156.255 312.559 155.787 312.299 155.28 312.205C155.144 311.335 155.032 310.463 154.936 309.59C154.869 308.563 154.843 307.534 154.855 306.505C154.861 305.986 154.874 305.466 154.9 304.947C154.918 304.565 154.897 304.111 154.993 303.721C155.058 303.787 155.15 303.823 155.253 303.787C155.472 303.712 155.673 303.574 155.874 303.461C155.881 303.456 155.887 303.452 155.894 303.447C156.966 304.144 157.742 301.162 158.159 300.352C167.768 272.765 160.181 241.017 175.757 215.147C177.908 219.766 179.756 224.003 181.825 228.654C188.289 243.18 196.269 268.766 201.621 284.146C203.077 287.29 204.788 290.329 206.822 293.136C207.473 293.874 207.909 294.96 208.851 295.357L208.933 295.37C209.184 295.839 209.533 296.235 210.052 296.222C210.179 296.219 210.309 296.204 210.44 296.182C210.899 299.382 211.477 302.603 212.246 305.752L212.142 305.709C211.639 305.501 211.11 305.324 210.594 305.37C209.341 305.687 209.805 306.784 210.795 307.145C209.563 307.528 208.729 308.609 207.813 309.509C207.04 309.092 206.173 308.876 205.246 308.967C205.104 308.981 204.996 309.043 204.921 309.128C204.868 309.128 204.816 309.131 204.767 309.139L204.868 309.2C204.704 309.477 204.821 309.899 205.246 309.901C205.58 309.903 205.901 309.933 206.212 309.991C206.428 310.117 206.643 310.245 206.854 310.378C206.14 311.009 205.38 311.592 204.597 312.124C204.183 311.913 203.746 311.735 203.291 311.593C202.703 311.409 202.447 312.344 203.037 312.513C203.162 312.549 203.286 312.589 203.409 312.632L203.53 312.705C203.559 312.722 203.588 312.74 203.619 312.758C198 316.757 188.502 316.251 185.933 323.739C185.848 324.022 185.892 324.266 186.012 324.458C185.455 324.969 185.198 325.888 185.323 326.593L185.313 326.652C185.217 327.223 185.354 327.724 185.967 327.854C190.053 328.235 194.129 328.477 198.233 328.552L198.564 328.555C204.444 328.594 233.044 328.38 234.334 324.601C234.678 323.901 234.784 322.815 234.281 322.192C234.222 321.856 234.107 321.55 233.903 321.311C234.731 320.473 234.324 318.362 234.425 317.299C234.243 313.749 233.524 309.943 231.356 307.038C231.321 306.992 231.278 306.964 231.234 306.95C230.855 306.569 230.358 306.328 229.789 306.296C229.771 306.252 229.753 306.208 229.736 306.164C229.294 305.12 228.874 304.057 228.457 302.989C228.147 301.776 227.824 300.566 227.501 299.362C227.178 298.16 226.861 296.956 226.552 295.75C226.306 294.788 226.094 293.705 225.667 292.786C225.679 292.747 225.69 292.708 225.703 292.668L226.146 292.489C229.053 291.306 233.658 289.311 232.646 287.994C221.864 265.566 211.309 233.637 201.415 210.386C201.26 209.931 201.097 209.477 200.917 209.028C200.48 207.935 200.037 206.844 199.588 205.755L199.318 205.103L195.008 194.72C194.556 193.633 194.048 192.552 193.692 191.429C193.349 190.348 193.257 189.271 193.908 188.287C194.491 187.406 195.312 186.677 195.968 185.85C196.465 185.224 196.949 184.556 197.383 183.854C197.777 183.334 198.106 182.738 198.4 182.259C198.871 181.49 199.47 180.639 199.811 179.751C200.252 179.473 200.694 179.196 201.137 178.922C201.902 178.493 202.655 178.043 203.388 177.557C204.314 177.006 205.246 176.465 206.185 175.935C206.524 175.767 206.863 175.599 207.202 175.432C208.22 175.52 211.03 174.265 211.988 173.415C212.097 173.393 212.206 173.368 212.315 173.341C212.358 173.884 212.535 174.375 212.947 174.739C215.691 176.102 219.188 169.93 220.151 167.87C222.067 169.743 217.497 179.008 216.021 180.902L215.942 181.019C215.547 181.611 215.133 182.276 214.573 182.714L214.517 182.757C214.133 183.041 214.062 183.485 214.375 183.859C217.033 186.261 219.824 180.985 221.281 179.247C227.276 170.413 231.107 159.664 230.939 148.918C233.666 148.005 237.442 147.558 237.303 143.854C237.443 141.058 237.948 138.292 238.046 135.494C238.074 134.851 236.076 135.17 235.625 135.238C236.289 128.809 235.286 122.282 233.496 116.103C228.797 100.293 209.445 71.7974 190.398 70.7687C190.415 70.7376 190.407 70.6957 190.364 70.6846C189.502 70.4605 188.549 70.4963 187.664 70.5245C186.741 70.5538 185.804 70.5602 184.887 70.6644C183.936 70.7724 182.93 71.1221 182.291 71.8142L182.07 71.4147C181.813 70.9483 181.566 70.4772 181.379 69.9625C181.284 69.7025 181.21 69.4329 181.143 69.1605C181.066 68.7719 181.047 68.3674 180.863 68.0145C180.858 68.0053 180.852 67.9976 180.847 67.9891C180.781 67.7667 180.705 67.5489 180.611 67.3395ZM157.234 326.483C157.507 326.76 157.979 326.88 158.397 326.748C159.786 330.698 152.25 330.45 149.831 330.672C147.252 330.947 100.274 333.393 108.219 327.602C117.54 331.157 148.715 331.55 157.234 326.483ZM134.356 310.82C134.983 311.468 135.929 311.755 136.602 312.373C138.503 313.983 140.033 316.248 142.662 316.675C146.114 317.32 149.227 315.614 152.316 314.264C152.7 314.245 153.102 314.083 153.496 313.962C153.51 313.991 153.524 314.02 153.54 314.046C153.559 314.038 153.579 314.032 153.602 314.028C153.636 314.023 153.669 314.019 153.703 314.014C153.782 313.951 153.866 313.897 153.952 313.852C154.004 313.844 154.056 313.838 154.108 313.835C154.744 313.796 155.435 313.944 155.844 314.472C155.879 314.517 155.911 314.565 155.941 314.613C156.139 315.315 156.164 316.164 156.069 316.758C156.038 316.952 156.119 317.143 156.256 317.253C156.378 320.192 156.708 323.143 156.939 326.043C155.784 326.458 154.585 326.775 153.385 326.975C145.106 327.994 136.739 328.467 128.396 328.211C123.43 328.031 118.471 327.587 113.556 326.849C111.967 326.699 110.341 326.084 108.754 326.332C108.686 326.204 108.58 326.095 108.434 326.02C112.503 320.443 119.459 318.935 125.523 316.49C126.525 317.131 127.142 318.465 128.257 318.863C128.69 318.928 129.293 318.672 129.229 318.122C129.049 316.996 127.834 316.483 127.016 315.83C127.894 315.419 128.755 314.973 129.595 314.477C130.42 315.222 131.397 315.788 132.17 316.582C131.731 317.655 133.562 317.563 133.582 316.42C133.455 315.157 131.455 314.622 130.562 313.885C131.957 313.035 133.203 311.963 134.356 310.82ZM232.676 321.863C232.725 321.959 232.804 322.047 232.922 322.115C233.125 322.232 233.027 322.856 233.017 323.066L233.017 323.081C233.005 323.458 232.982 323.834 232.949 324.21C232.606 324.52 232.167 324.755 231.678 324.897C216.816 327.271 201.668 327.463 186.662 326.602C186.731 326.202 187.022 325.874 187.281 325.541C196.767 326.348 206.482 325.503 215.985 324.717C221.54 323.986 227.361 323.684 232.676 321.863ZM211.038 307.257C213.487 308.101 215.766 309.272 217.938 310.674C218.744 311.2 219.514 311.802 220.442 312.103C223.653 313.071 228.468 308.424 228.545 308.372C229.661 307.621 230.843 308.321 231.45 309.363C231.506 309.459 232.436 314.786 232.408 317.395C232.575 318.282 232.13 319.732 232.367 320.699C232.18 320.923 231.915 321.029 231.736 321.264C231.671 321.349 231.689 321.445 231.745 321.517C223.073 322.231 214.451 323.587 205.738 323.873C199.775 324.188 193.8 324.116 187.835 324.044C189.192 320.056 193.814 319.003 197.345 317.69C200.012 316.731 202.468 315.302 204.629 313.466C205.566 314.124 206.305 315.047 206.969 315.974C207.271 316.35 207.89 316.635 208.213 316.113C208.546 315.571 207.897 314.886 207.095 314.287C206.673 313.662 206.141 313.129 205.528 312.69C206.206 312.086 206.858 311.457 207.468 310.788C208.735 311.647 209.666 312.882 210.577 314.081C211.015 314.559 211.834 313.927 211.474 313.388C211.187 313.017 210.863 312.674 210.516 312.353C209.993 311.366 209.24 310.455 208.326 309.823L208.396 309.735C209.159 308.755 209.819 307.579 211.038 307.257ZM232.62 321.237C232.641 321.263 232.663 321.288 232.687 321.312C232.666 321.355 232.649 321.4 232.638 321.446L232.415 321.464C232.492 321.4 232.56 321.321 232.62 321.237ZM140.243 303.2C144.787 304.059 149.481 304.389 154.067 303.68C153.535 306.644 153.203 309.627 153.377 312.637C146.52 314.618 143.671 317.921 137.966 311.32C138.242 310.9 138.401 310.384 138.586 309.887C139.374 307.728 140.026 305.495 140.243 303.2ZM223.696 293.479C223.761 293.622 223.878 293.74 224.046 293.792C224.106 294.057 224.168 294.323 224.235 294.587C224.346 295.953 224.861 297.307 225.394 298.567L225.502 298.828C225.854 299.876 226.222 300.921 226.585 301.968C226.861 303.056 227.103 304.152 227.356 305.245C227.405 305.987 227.51 306.722 227.672 307.448C227.68 307.482 227.69 307.513 227.701 307.543C227.447 307.656 227.202 307.788 226.971 307.92C220.014 313.151 221.215 309.654 214.536 306.725C214.574 306.444 214.434 306.19 214.319 305.899L214.304 305.861C214.297 305.842 214.29 305.824 214.283 305.805C214.294 305.694 214.288 305.575 214.258 305.448C213.582 302.679 212.64 299.958 211.758 297.249C211.617 296.841 211.454 296.442 211.287 296.044C215.522 295.99 219.711 294.861 223.696 293.479ZM225.529 294.824C225.611 295.186 225.7 295.543 225.781 295.887L225.901 296.402C225.73 295.882 225.596 295.354 225.529 294.824ZM185.24 71.4443C186.714 71.8031 188.225 71.9497 189.707 72.2474C199.925 73.4666 207.758 80.7165 214.506 87.9149C227.287 101.349 234.724 117.878 234.175 136.56C229.611 137.392 225.093 138.61 220.443 138.876C221.118 137.852 219.987 136.57 219.597 135.589C212.87 122.585 207.676 108.229 203.459 94.5378L203.573 95.1354C204.898 102.007 206.44 108.849 208.795 115.45C208.113 114.779 196.908 105.862 197.784 108.81C201.207 111.488 205.074 113.609 208.66 116.066C204.396 130.321 210.561 144.764 211.733 159.025C212.027 162.196 212.001 165.389 212.397 168.548C212.547 168.905 212.389 169.632 212.611 169.971C212.447 170.81 212.102 171.574 211.39 172.228C211.09 172.504 210.763 172.742 210.419 172.955C209.56 173.085 208.698 173.416 207.998 173.722C206.442 174.404 205.073 175.409 203.682 176.37L203.645 176.395C201.402 177.548 199.162 178.858 196.913 180.224L196.812 180.276C195.976 180.716 195.121 181.112 194.392 181.721C194.359 181.749 194.337 181.781 194.322 181.814L192.956 182.658C182.016 189.414 170.736 196.094 157.91 191.272C154.306 189.82 149.067 186.877 149.74 182.327C149.872 181.89 150.074 181.48 150.302 181.081C150.366 180.996 150.431 180.911 150.497 180.828C150.994 180.2 151.55 179.623 151.982 178.944C152.157 178.668 152.315 178.384 152.452 178.091C152.55 178.061 152.636 177.993 152.691 177.874C153.308 176.526 153.913 175.177 154.476 173.806C161.304 149.988 153.016 124.397 150.671 100.374C150.509 98.9984 150.27 97.6088 150.27 96.2232C150.27 96.1582 150.176 96.1603 150.171 96.2232C149.344 102.355 149.971 108.543 150.758 114.647C151.764 122.283 153.087 129.887 153.996 137.536C151.58 145.247 144.815 150.818 137.711 154.159C136.502 154.734 135.266 155.246 134.006 155.697L133.922 155.726C132.537 156.211 130.975 156.96 129.639 155.978C127.075 154.238 125.266 151.581 123.604 149.023C124.277 148.951 124.949 148.887 125.623 148.841C127.276 150.734 129.302 152.34 131.44 153.653C132.312 154.153 133.302 153.941 133.704 152.963C134.085 152.04 133.619 150.962 133.282 150.073L133.233 149.943C131.527 145.339 128.564 141.119 124.564 138.236C127.582 137.632 130.717 137.651 133.612 136.458C133.454 136.623 133.661 136.809 133.762 136.95C133.726 137.223 133.924 137.422 134.168 137.495C136.53 140.584 138.32 144.241 138.694 148.158C138.595 149.492 139.788 151.032 140.937 149.632C141.835 145.733 138.301 139.639 135.193 137.233C138.309 135.093 137.401 132.004 139.358 131.99C139.863 132.961 140.523 133.89 141.354 134.612C141.73 134.917 142.187 135.148 142.59 135.419C143.014 135.705 143.456 135.077 143.12 134.732L143.032 134.626C141.755 133.098 140.24 131.597 139.976 129.531C139.595 126.986 140.738 124.408 141.614 122.084C143.294 117.627 144.408 112.991 144.951 108.259C145.566 104.02 144.818 99.6227 146.269 95.5204C146.557 94.378 146.972 93.3374 147.48 92.3718C147.492 92.3617 147.504 92.3514 147.515 92.3388C148.118 91.6405 148.6 90.8637 149.163 90.1323C149.751 89.3671 150.389 88.639 151.064 87.95C152.193 86.7988 153.44 85.8382 154.739 84.9133C154.763 84.9046 154.788 84.8933 154.812 84.8789C155.055 84.735 155.289 84.5602 155.515 84.3682L155.537 84.3529C156.292 83.8275 157.064 83.2571 157.653 82.5438C158.232 81.8433 158.644 81.0266 159.117 80.2551C159.763 79.4665 160.379 78.6216 161.158 77.9646C161.599 77.7128 162.057 77.4756 162.451 77.1607C162.515 77.1338 162.581 77.1082 162.647 77.0841C162.479 77.7678 162.226 78.397 161.997 79.0916C161.666 78.9519 161.213 79.1068 161.158 79.617L161.137 79.8074C160.805 82.9318 160.637 86.7126 162.473 89.4178C166.517 95.2842 172.557 90.2756 175.612 86.1506C178.353 82.8607 180.658 79.2013 182.36 75.2684L182.388 75.2164C182.705 74.6146 183.392 72.7793 183.586 71.8974C184.077 71.6389 184.674 71.5136 185.24 71.4443ZM198.187 180.783C198.2 180.799 198.214 180.812 198.229 180.824C197.655 181.639 197.109 182.482 196.546 183.3C197.007 182.545 197.441 181.784 197.826 181.014C197.946 180.937 198.067 180.86 198.187 180.783ZM230.286 149.121C228.094 161.026 224.961 173.552 216.233 182.453C218.95 178.625 221.062 174.157 221.677 169.476C221.702 168.22 221.245 166.893 219.855 166.707C219.618 166.675 219.438 166.888 219.354 167.077L219.345 167.096C218.799 168.401 218.088 169.642 217.247 170.779L217.164 170.887C216.529 171.708 213.834 175.057 213.458 173.457C213.733 165.365 222.092 162.029 223.461 150.884C225.803 150.636 228.026 149.746 230.286 149.121ZM212.316 172.736C212.307 172.863 212.302 172.989 212.304 173.113C212.18 173.061 212.052 173.02 211.922 172.988C212.054 172.906 212.185 172.822 212.316 172.736ZM212.44 171.864C212.394 172.097 212.355 172.331 212.331 172.563C212.093 172.639 211.856 172.722 211.622 172.809C211.764 172.681 211.899 172.545 212.026 172.401C212.174 172.233 212.313 172.053 212.44 171.864ZM209.209 116.63C210.921 121.411 212.839 126.117 214.98 130.721C216.418 133.416 217.377 136.555 219.366 138.893C219.386 138.912 219.405 138.929 219.425 138.945L219.392 138.947C218.8 138.973 215.579 139.29 217.232 140.019C217.874 142.549 218.715 145.022 219.418 147.536L219.434 147.609C219.691 148.825 220.017 151.274 221.743 150.457C221.931 150.6 222.155 150.701 222.397 150.768C221.621 157.582 217.313 162.017 213.908 167.58C214.669 164.644 214.447 161.578 214.182 158.581L214.116 157.843C212.709 144.099 207.546 130.583 209.209 116.63ZM194.909 160.319C197.684 156.858 211.335 122.593 201.688 143.352C198.26 150.579 195.437 158.315 189.781 164.171C189.39 164.591 189.905 165.33 190.414 164.991C192.239 163.771 193.717 162.154 194.909 160.319ZM204.789 118.905C204.8 118.849 204.729 118.819 204.698 118.867C200.989 126.191 198.341 134.063 194.15 141.166C191.62 145.564 188.585 149.664 185.109 153.361C184.847 153.638 185.24 154.022 185.523 153.775C195.446 144.618 200.27 131.306 204.789 118.905ZM131.653 149.061L131.66 149.062L131.751 149.298C131.782 149.378 131.813 149.458 131.845 149.539C131.83 149.532 131.815 149.526 131.799 149.52C131.767 149.487 131.734 149.454 131.702 149.419C131.709 149.298 131.694 149.178 131.653 149.061ZM235.586 135.525C236.09 135.723 236.709 135.761 237.266 135.809C236.642 138.747 236.104 141.708 235.539 144.654C235.279 145.559 234.665 145.876 233.816 146.163L233.134 146.381C229.948 147.402 226.745 148.451 223.46 149.077C223.229 148.927 222.901 148.934 222.748 149.175C222.588 149.19 222.424 149.199 222.262 149.214C221.384 145.972 219.882 142.831 217.873 140.142C223.49 140.323 229.147 138.841 234.491 137.184C234.708 137.289 234.993 137.224 235.084 136.975L235.166 136.951C236.063 136.685 237.253 136.031 235.367 136.363C235.481 136.098 235.544 135.812 235.586 135.525ZM106.424 133.126C110.148 132.511 112.993 135.528 116.171 136.914C118.073 137.73 123.143 140.262 124.987 139.42C127.514 141.853 129.647 144.696 131.139 147.885C130.732 147.861 130.326 147.843 129.919 147.83C129.182 147.594 128.396 147.581 127.631 147.809C119.968 147.894 112.301 149.383 104.669 147.495L104.494 147.463C102.926 147.165 97.574 146.033 97.2691 144.924C97.3492 144.442 98.7883 144.952 99.0649 145.006C101.264 145.44 103.499 145.646 105.728 145.863C106.348 145.923 106.34 144.959 105.728 144.898C103.045 144.631 100.503 143.623 98.0417 142.575C97.7801 142.459 97.0868 142.219 96.6071 141.907C98.8816 142.294 101.225 142.361 103.527 142.279C104.319 142.176 104.375 140.972 103.527 140.996C101.973 141.168 100.489 140.401 99.2205 139.591L98.9444 139.412C96.8303 138.033 96.978 137.973 99.6497 138.486C103.576 139.201 107.549 139.174 111.514 138.901C112.08 138.892 112.471 138.13 112.002 137.722C110.177 136.146 108.22 134.739 106.424 133.126ZM124.422 138.869L124.465 138.91C124.556 138.998 124.631 139.075 124.673 139.116L124.689 139.133C124.745 139.185 124.8 139.24 124.855 139.293C124.612 139.375 124.343 139.38 124.066 139.337C124.234 139.232 124.358 139.061 124.422 138.869ZM194.382 126.248L194.361 126.27C191.966 128.863 189.539 133.067 187.554 136.382C187.293 139.1 193.16 127.825 194.373 126.259L194.382 126.248ZM134.103 136.278C134.08 136.306 134.058 136.336 134.036 136.366L134.004 136.412L133.953 136.38C133.934 136.369 133.914 136.362 133.893 136.357C133.964 136.331 134.033 136.304 134.103 136.278ZM145.062 127.428C142.907 127.766 147.313 130.444 147.895 130.828C148.267 130.97 151.809 133.894 151.594 132.945L151.494 132.817C149.844 130.717 147.597 128.316 145.062 127.428ZM229.363 121.815C228.566 120.531 224.228 122.222 222.857 122.424C222.086 122.628 221.323 122.869 220.544 123.04C219.936 123.26 217.097 123.046 218.139 124.25C219.226 124.834 220.645 124.383 221.758 124.072C223.973 123.467 226.196 122.761 228.464 122.425C228.532 122.391 228.536 122.414 228.476 122.495C227.988 123.579 226.962 124.596 225.807 124.946C225.727 124.969 225.76 125.091 225.841 125.071C227.103 124.82 230.041 123.42 229.363 121.815Z" fill="black"/>
<path fill-rule="evenodd" clip-rule="evenodd" d="M159.758 34.6474C166.731 28.9785 177.906 27.1379 185.37 32.8571C191.17 38.2245 193.57 53.4767 192.544 61.141C192.258 66.0568 188.503 71.6286 182.992 70.0738C182.056 69.9816 181.147 69.6228 180.202 69.5476C179.072 69.4175 177.934 69.4153 176.806 69.5746C174.349 69.9223 172.171 71.2272 169.786 71.8373C165.361 72.9692 160.423 72.2078 156.614 69.658C144.026 61.3802 149.728 42.6592 159.758 34.6474Z" fill="white"/>
<path fill-rule="evenodd" clip-rule="evenodd" d="M160.687 71.9735C160.558 71.9288 160.428 71.8823 160.3 71.8346C160.292 71.8643 160.278 71.8928 160.262 71.9205C160.244 71.965 160.226 72.0084 160.206 72.0519C160.367 72.053 160.528 72.0243 160.687 71.9735ZM160.946 17.039C161.003 16.9108 161.069 16.7878 161.143 16.6689C160.963 16.7273 160.782 16.8079 160.619 16.9119C160.729 16.949 160.838 16.9914 160.946 17.039ZM188.489 33.8115C188.496 33.8102 188.504 33.8092 188.511 33.8079C188.417 33.556 188.248 33.3183 188.062 33.1466C188.029 33.1157 187.992 33.0872 187.957 33.0577C188.155 33.293 188.334 33.544 188.489 33.8115ZM138.092 60.1481C138.185 59.2637 138.304 58.3825 138.457 57.5065C138.605 56.6677 138.729 55.7706 139.156 55.0261C139.58 54.2849 140.005 53.5647 140.51 52.9126C140.438 52.5796 140.342 52.2668 140.26 52.0144C139.783 50.5616 139.313 48.7164 140.304 47.3664C140.534 47.0535 140.815 46.8139 141.137 46.5975C141.273 46.5053 141.5 46.4215 141.605 46.2943C141.679 46.2041 141.654 46.2529 141.657 46.2084C141.675 45.9687 141.113 45.4628 140.982 45.273C140.736 44.9219 140.552 44.5265 140.412 44.1224C139.859 42.5232 140.235 40.7618 140.568 39.1593C140.744 38.31 140.938 37.4584 141.002 36.591C141.061 35.7765 140.95 34.9812 140.884 34.171C140.82 33.3713 140.837 32.5463 141.18 31.806C141.347 31.4455 141.601 31.1273 141.909 30.8792C142.21 30.6364 142.586 30.4954 142.879 30.2536C143.172 30.0128 143.088 29.6873 143.012 29.3543C142.907 28.9026 142.775 28.454 142.762 27.9874C142.739 27.174 143.07 26.3817 143.589 25.7668C144.123 25.1316 144.887 24.702 145.711 24.6055C146.089 24.5609 146.46 24.6363 146.835 24.6098C147.206 24.5844 147.287 24.3988 147.357 24.0594C147.518 23.2821 147.452 22.5143 147.835 21.789C148.174 21.1442 148.778 20.7072 149.444 20.4496C150.667 19.9766 152.088 20.0742 153.378 20.353C154.139 18.1134 156.515 16.6446 158.853 16.6266C159.218 16.0073 159.836 15.5449 160.541 15.2733C161.707 14.8226 162.942 15.0857 164.157 15.0857H164.162C164.284 15.0782 164.406 15.0751 164.528 15.0762C164.643 15.0697 164.757 15.0602 164.872 15.0476C166.254 14.8841 167.622 14.3179 168.992 14.8726C169.602 15.1197 170.088 15.5004 170.395 15.9861C170.859 16.1122 171.316 16.2565 171.764 16.4241C173.708 16.4748 175.633 17.5173 176.616 19.2067C177.999 19.0498 179.5 19.3159 180.416 20.4464C180.654 20.7406 180.838 21.0862 180.961 21.4531C181.894 21.7549 182.757 22.2927 183.322 23.1027C183.838 23.8418 183.937 24.7975 183.588 25.591C184.421 26.1945 185.072 27.0584 185.385 28.0786C185.576 28.6984 185.604 29.3389 185.482 29.9489C186.334 30.1381 187.15 30.4888 187.873 31.0151C188.63 31.5665 189.576 32.444 189.626 33.454C189.629 33.5281 189.626 33.6023 189.62 33.6762C191.288 33.559 192.988 33.8415 194.115 35.1784C194.961 36.1815 195.329 37.4733 195.103 38.6493C197.086 39.0523 198.962 40.0895 200.27 41.6229C201.221 42.7374 202.066 44.1542 202.015 45.6717C202 46.1288 201.892 46.5891 201.707 47.0143V47.0153C201.786 47.1649 201.868 47.3314 201.947 47.5085C203.175 48.3684 204.068 49.7164 204.571 51.2021C204.977 52.4056 205.232 53.9689 204.799 55.1937C204.733 55.3803 204.649 55.5564 204.551 55.7196C204.633 55.8066 204.71 55.8936 204.786 55.9816C205.614 56.9497 206.452 58.1693 206.395 59.5023C206.372 60.039 206.173 60.5788 205.847 61.0219C206.992 62.1832 207.914 63.6488 207.823 65.2851C207.745 66.7093 206.963 68.1558 205.739 68.8398C205.943 69.9374 205.67 71.0954 204.815 71.9523C204.389 72.3807 203.887 72.6628 203.354 72.8134C203.236 74.1061 202.089 75.1464 200.87 75.4453C200.643 75.5017 200.417 75.5356 200.191 75.5514C199.095 76.0892 197.787 76.0275 196.669 75.5344C196.339 75.9534 195.91 76.2949 195.409 76.5399C195.207 76.6395 194.992 76.7223 194.769 76.789C193.189 77.2566 191.569 76.6226 190.188 75.8824C190.143 75.859 190.061 75.8293 189.989 75.7965C189.799 76.0096 189.451 76.2207 189.269 76.3246C188.654 76.6777 187.903 76.842 187.197 76.7954C186.369 76.7403 185.638 76.4667 184.962 76.0775C184.863 76.0945 184.764 76.104 184.664 76.1093C184.028 76.1431 183.461 75.9418 182.95 75.6236C182.613 75.6682 182.268 75.6639 181.918 75.6024C181.147 75.7985 180.396 75.4868 179.793 74.9916C179.526 74.7721 179.3 74.5144 179.058 74.2683C178.807 74.0127 178.616 73.9534 178.323 73.7816C177.628 73.3754 177.544 72.3457 177.846 71.6012C177.788 71.4708 177.755 71.3255 177.755 71.1643C177.758 69.7582 178.405 68.4686 179.2 67.3435C179.556 66.8419 179.942 66.3508 180.365 65.9055C180.705 65.548 181.183 64.968 181.687 64.8226C181.717 64.8005 181.749 64.7781 181.781 64.757C181.683 64.4154 181.626 64.0677 181.651 63.7124C181.676 63.3475 181.794 63.0018 181.982 62.7071C181.35 61.4802 181.082 60.1344 181.21 58.7304C180.694 57.9996 180.304 57.1927 180.103 56.3083C179.979 55.761 179.908 55.1852 179.917 54.6241C179.921 54.3549 180.02 54.0144 180.022 53.7356C180.007 53.8236 179.893 53.4948 179.848 53.4131C179.337 52.4641 178.681 51.7238 178.572 50.6051C178.508 49.9506 178.663 49.2275 179.055 48.6909C178.804 47.7004 178.807 46.6367 179.203 45.6919C179.309 45.4395 179.431 45.1924 179.57 44.9581C179.506 44.7608 179.446 44.5614 179.37 44.3821C179.34 44.3111 179.311 44.2391 179.281 44.167C178.994 43.9134 178.727 43.6367 178.502 43.3651C178.004 42.764 177.623 42.0747 177.575 41.2803C177.552 40.8826 177.645 40.5019 177.761 40.1245C177.812 39.9537 177.842 39.7639 177.903 39.5974C177.937 39.505 178.018 39.4108 178.047 39.3238C178.053 39.3047 178.059 39.2888 178.063 39.2761C178.059 39.2634 178.055 39.2368 178.055 39.1869C178.054 38.8062 178.005 38.434 178.002 38.0671C177.654 38.4192 177.234 38.6821 176.757 38.836C175.795 39.1446 174.792 39.0046 173.941 38.5284C173.025 39.1562 171.995 39.7245 170.916 39.9527C170.275 40.0883 169.632 40.0322 168.988 40.116C168.349 40.1997 167.731 40.4786 167.129 40.696C165.789 41.1807 164.452 41.6779 163.107 42.1499C162.022 42.5307 160.847 42.8329 159.71 42.6187C159.391 43.1106 158.977 43.5264 158.446 43.8318C158.065 44.0492 157.647 44.1965 157.216 44.2698C156.834 44.3345 156.387 44.3091 156.077 44.571C155.775 44.8255 155.586 45.205 155.315 45.4915C155.013 45.8117 154.639 46.0896 154.248 46.2889C153.934 46.4491 153.614 46.5646 153.289 46.64C153.317 47.3643 153.345 48.0875 153.353 48.8129C153.369 50.3887 153.363 51.9645 153.384 53.5404C153.405 55.1109 153.455 56.6815 153.538 58.25C153.616 59.7219 153.727 61.199 154.078 62.635C155.242 67.3997 159.602 70.8112 164.484 70.9851C165.933 71.0371 167.367 70.8335 168.753 70.4071C170.189 69.965 171.47 69.055 172.942 68.7751C173.327 68.7029 173.69 69.0901 173.469 69.4622C173.089 70.1018 172.628 70.492 171.997 70.8769C171.337 71.2789 170.601 71.5769 169.875 71.8377C168.539 72.317 167.126 72.5949 165.708 72.6723C164.627 72.7316 163.541 72.6575 162.482 72.4539C162.408 72.6819 162.276 72.9035 162.177 73.1145C162.162 73.1453 162.112 73.1241 162.121 73.0923C162.137 73.0393 162.148 72.9926 162.152 72.9544C161.796 73.4189 161.246 73.7401 160.681 73.8961C160.282 74.0064 159.859 74.0402 159.449 73.9937C159.316 73.9787 159.19 73.9566 159.065 73.929C158.647 74.2948 158.113 74.5388 157.576 74.6607C157.668 75.2206 157.392 75.8315 156.75 75.9905C156.481 76.0573 156.222 76.0584 155.964 76.034C155.755 76.1316 155.53 76.2079 155.291 76.2599C154.981 76.3278 154.61 76.2407 154.375 76.016C154.247 76.1061 154.127 76.1687 154.009 76.3118C153.52 76.9015 152.466 76.4317 152.419 75.7498C152.265 75.7498 152.109 75.7519 151.953 75.7572C151.916 75.7742 151.879 75.7912 151.84 75.8092C151.159 76.1262 150.453 76.4031 149.699 76.1538C149.56 76.1081 149.433 76.0499 149.317 75.9821C148.786 76.0298 148.262 76.0308 147.724 75.8569C147.405 75.7539 147.107 75.5907 146.857 75.3765C146.026 75.6204 145.149 75.7307 144.322 75.4284C143.703 75.2026 143.205 74.8463 142.854 74.3764C142.317 74.3956 141.773 74.2662 141.282 74.0106C140.442 73.5758 139.854 72.7496 139.443 71.9215C138.54 70.0943 138.006 68.1314 137.796 66.107C137.589 64.1133 137.884 62.1302 138.092 60.1481Z" fill="black"/>
<path fill-rule="evenodd" clip-rule="evenodd" d="M163.768 64.3626C164.481 64.0718 165.117 63.5867 165.582 62.967C165.743 62.7516 165.785 62.5241 165.751 62.316C165.713 62.0821 165.575 61.87 165.386 61.7278C165.197 61.5851 164.96 61.5148 164.731 61.5506C164.532 61.5818 164.334 61.6907 164.177 61.9167L164.145 61.9619C163.868 62.3359 163.508 62.6428 163.098 62.8406C162.702 63.0312 162.26 63.1202 161.802 63.0685C160.93 62.9699 160.329 62.4983 159.69 61.8578C159.611 61.7769 159.532 61.6935 159.452 61.6088C159.402 61.532 159.332 61.4826 159.255 61.4567C159.169 61.428 159.071 61.4296 158.982 61.4607C158.896 61.4907 158.82 61.5475 158.768 61.6232C158.719 61.6951 158.691 61.784 158.7 61.8862C158.759 62.5499 159.106 63.1423 159.599 63.6075C160.146 64.1241 160.871 64.4814 161.554 64.6068C162.307 64.7449 163.074 64.6459 163.768 64.3626ZM161.199 54.1228C160.399 54.6096 159.179 55.7446 160.04 56.9513C161.054 58.0153 162.514 56.7954 163.233 56.2436C163.9 55.816 164.649 56.9158 164.031 57.4151C158.833 61.2641 156.724 54.2501 160.795 53.5505C161.243 53.4734 161.409 53.9722 161.199 54.1228ZM170.514 49.6454C170.425 48.5472 168.753 48.2978 168.587 49.3846C168.438 50.3581 168.613 51.2524 169.051 52.1288C169.47 52.9662 170.523 52.5755 170.603 51.813C170.709 50.791 170.569 50.3286 170.514 49.6454ZM157.784 49.1592C157.551 48.8538 157.214 48.6453 156.811 48.7631C155.551 49.1314 155.922 50.9208 156.365 51.7917C156.605 52.2647 157.383 52.3846 157.734 51.9682C158.306 51.2891 158.581 49.9328 157.853 49.2639C157.833 49.2293 157.811 49.1944 157.784 49.1592ZM169.069 44.8398L168.87 44.805C168.254 44.6985 167.489 44.5961 167.053 45.0913C166.822 45.3538 166.743 45.8419 167.053 46.0932C167.599 46.5354 168.203 46.364 168.858 46.4015C169.397 46.4324 169.916 46.5217 170.435 46.6703C171.575 46.9962 172.504 47.5911 173.478 48.2443C173.605 48.33 173.736 48.1666 173.675 48.0471C173.113 46.946 172.024 46.0415 170.933 45.4902C170.351 45.1959 169.713 44.9518 169.069 44.8398ZM158.933 44.3466L158.781 44.3778C157.123 44.7244 154.969 45.4168 154.184 47.0456C154.154 47.276 154.185 47.3253 154.211 47.3576L154.22 47.3683C154.241 47.3958 154.258 47.4338 154.357 47.4651C154.385 47.4585 154.413 47.4516 154.441 47.4441C154.801 47.3498 155.086 47.2199 155.362 47.085L155.66 46.9377C156.007 46.7677 156.357 46.6038 156.728 46.4828C157.519 46.2247 158.333 46.0429 159.159 45.9458C159.338 45.9248 159.511 45.8643 159.647 45.7607C159.776 45.6623 159.875 45.5262 159.92 45.3451C159.978 45.1109 159.961 44.9335 159.835 44.7222C159.741 44.5635 159.606 44.4535 159.45 44.3903C159.292 44.3259 159.112 44.3107 158.933 44.3466Z" fill="black"/>
<path fill-rule="evenodd" clip-rule="evenodd" d="M118.27 148.829C117.166 138.791 115.495 128.495 111.276 119.197C109.826 107.174 112.268 89.9542 101.168 81.8464C101.31 80.4069 98.7388 79.1664 97.547 78.398C95.611 77.1253 92.9925 74.6249 90.7009 76.0257C89.978 75.8043 88.1952 76.7105 87.3745 74.745C86.5338 72.7317 86.6559 68.6948 85.9856 68.3262C86.2814 65.417 73.2488 63.4705 69.8474 67.5827C68.2322 70.7368 70.0874 71.7408 66.4456 75.887C64.8374 75.9861 63.3033 76.3953 61.8201 76.9562C60.5954 77.1262 59.3772 77.3329 58.1645 77.548C42.6974 78.9845 41.528 90.4698 40.1571 102.804C38.9834 119.371 33.8849 135.877 36.0891 152.576C34.8708 158.547 34.7907 164.918 36.2454 170.832C31.4757 177.823 34.9331 181.691 37.908 188.337C38.4115 189.533 38.8497 190.765 39.0725 192.04C39.0137 193.029 39.0203 194.018 39.1934 194.999C39.6982 197.235 43.4117 196.922 43.5772 194.663C43.8676 193.18 43.7776 191.641 44.0028 190.15C43.9898 190.228 43.9669 190.377 43.9669 190.389C44.5115 186.638 45.3894 185.183 47.8143 182.321C50.9277 177.804 49.0131 172.129 49.7237 167.074C49.9184 165.385 50.176 163.718 50.3483 162.026C51.3982 162.645 52.5394 163.162 53.7317 163.485C52.9805 169.302 54.2872 175.146 55.7401 180.773C59.6724 195.268 64.8857 210.151 62.6213 225.362C62.6224 225.355 60.1523 237.794 58.2014 243.933C55.8425 251.72 53.9432 259.52 50.606 266.986C48.8186 272.36 45.0371 277.458 45.184 283.244C43.8784 285.181 46.2291 287.509 48.3007 287.503C48.3007 290.126 46.9203 295.068 46.9203 295.068C46.7034 296.9 45.7694 299.234 47.1816 300.79C45.2618 305.695 44.5873 311.004 44.0604 316.195C43.8591 318.658 43.6283 321.626 46.2562 323.023C48.7046 324.086 51.5549 323.618 54.1693 323.935C56.6987 323.939 59.3162 324.604 61.8038 324.029C64.6609 323.213 65.2361 320.108 64.6982 317.625C64.3511 315.04 63.9353 312.463 63.4802 309.893C62.1301 304.298 61.7523 298.09 60.0228 292.707C60.9917 292.525 61.964 292.035 62.6213 291.321C64.2913 291.266 65.5227 290.019 65.9318 288.545C66.2271 287.594 67.4986 287.399 68.355 287.097C68.5151 287.917 68.9831 288.607 69.3641 289.354C69.0388 290.938 70.1249 292.791 71.918 292.828C72.1771 293.078 72.4177 293.333 72.6822 293.571C70.6432 296.581 69.1311 299.981 68.748 303.566C68.2865 306.316 67.8036 310.723 71.4325 311.538C72.8025 311.719 74.2768 312.071 75.6193 311.57C77.116 312.244 78.7073 312.567 80.3188 312.855C87.2255 314.025 93.8867 313.926 100.851 314.712C102.688 314.968 110.05 315.726 111.276 314.712C112.77 315.018 111.866 313.9 112.495 312.855C112.996 312.071 114.333 310.568 113.47 310.133C111.659 309.348 110.053 307.806 108.396 306.93C100.651 302.508 83.9466 294.978 84.0625 294.766C84.0397 294.916 84.1638 291.13 84.783 290.126C85.654 289.26 87.3899 289.412 88.2991 288.584C88.8761 288.611 93.205 287.361 92.8344 285.269C92.3596 283.599 93.9108 281.552 92.8344 280.141C96.3981 247.487 104.691 215.816 109.267 183.335C109.368 183.246 109.468 183.156 109.57 183.067C111.93 183.463 113.763 181.085 114.479 179.213C114.824 178.861 115.156 178.499 115.461 178.107C117.384 175.598 117.419 172.331 117.637 169.346C118.113 168.996 118.419 168.451 118.445 167.807C118.521 165.889 118.602 163.97 118.682 162.053C118.684 162.053 118.684 162.053 118.684 162.052C119.276 161.098 119.356 160.025 119.188 158.931C119.25 155.395 119.793 152.083 118.27 148.829Z" fill="white"/>
<path fill-rule="evenodd" clip-rule="evenodd" d="M69.7695 67.234C69.8051 66.9209 70.2215 66.9256 70.2613 67.234C70.6991 70.9601 69.2324 75.2379 65.625 76.9743C68.3299 79.3711 70.2336 82.5753 73.4795 84.3847C80.2899 88.8354 90.1317 84.6709 91.6462 76.8217C89.9654 76.435 86.8334 76.4678 86.3231 74.4977C86.0764 74.2441 85.9493 72.0709 85.9645 70.4681C85.9491 70.17 85.9396 69.8718 85.9295 69.5757C85.9037 69.3358 85.8964 69.0913 85.899 68.8454C85.9043 68.3118 86.7006 68.3222 86.734 68.8454C86.7478 69.0599 86.7571 69.2771 86.7657 69.4953C86.7715 69.5529 86.7794 69.6103 86.7865 69.6678C86.896 70.0669 86.9718 70.4841 87.0613 70.8629C87.1094 71.0668 87.1593 71.273 87.2127 71.4789C87.2894 72.0186 87.4269 72.5459 87.6622 73.0452C88.2878 74.3728 89.8306 75.5128 91.3514 75.5251C91.6772 75.5277 92.0011 75.4797 92.3272 75.4879C92.8582 75.5015 93.292 75.7125 93.7658 75.9275C94.1936 76.1215 94.5954 76.2527 95.0081 76.2521C112.033 82.0441 109.689 103.247 112.282 117.582C114.925 131.818 120.384 145.543 121.188 160.092C121.429 161.6 119.768 162.16 118.738 162.874C118.463 166.669 120.055 170.511 118.951 174.268C117.929 177.339 113.811 184.723 109.876 183.56C105.414 217.579 95.0429 249.107 94.0617 283.54C95.0552 286.419 92.2027 288.51 89.5717 288.931L89.2131 289.138C88.0136 289.829 86.7742 290.505 85.4619 290.932C85.429 290.951 85.3963 290.97 85.3629 290.989C85.299 291.024 85.2305 291.044 85.1604 291.055C85.2339 291.936 85.5115 292.764 85.8695 293.569C91.3283 294.832 96.1227 298.149 101.256 300.318C104.567 302.362 114.675 305.314 115.442 308.903L115.463 309.012C115.771 310.621 114.909 312.605 113.084 312.757C114.037 313.465 113.412 314.894 112.374 315.17C111.127 315.503 109.773 315.361 108.489 315.464C96.3766 315.846 84.1575 314.772 72.3512 312.048C71.3596 311.818 70.327 311.518 69.4913 310.924C64.3677 306.855 69.7007 298.245 70.9601 292.967C70.5028 292.894 70.0506 292.794 69.6063 292.662L69.507 292.632C69.0753 292.501 68.6289 292.343 68.2936 292.037C68.2799 292.025 68.2683 292.011 68.2553 291.998C66.0969 291.967 68.2952 287.198 68.4893 285.922C67.6121 287.796 66.8959 289.797 65.8453 291.581C65.1219 292.682 63.5356 291.918 62.4702 291.841C62.8245 298.365 64.3763 304.725 65.9701 311.045C67.2644 316.293 69.4863 322.6 62.154 324.195C57.1038 325.523 45.0693 325.015 42.9167 319.468C42.2819 314.951 43.6722 310.373 44.3598 305.921L44.4804 305.288C45.3012 300.961 46.0601 296.613 47.2505 292.366C47.4143 291.674 47.616 290.997 47.833 290.324C47.8612 289.931 47.8818 289.538 47.8564 289.144C47.8232 288.627 47.7259 288.122 47.6227 287.615C47.6094 287.551 47.5975 287.476 47.5853 287.396C45.4588 286.412 43.8798 285.299 43.676 284.097C43.4675 282.957 43.889 281.802 44.2015 280.714L44.2198 280.65C51.0682 256.52 64.0953 234.776 61.8752 209.038C61.0586 196.378 55.0832 184.735 54.075 172.109C53.4951 169.59 52.9714 167.045 52.8871 164.449C52.5288 164.364 52.1679 164.287 51.8115 164.194C51.6024 165.317 51.338 166.431 50.9046 167.478C50.7374 169.55 50.8443 171.645 51.2037 173.694C51.2864 174.166 51.0573 174.577 50.6695 174.727C51.6014 177.641 51.7852 181.296 49.3819 183.553L49.1828 183.685C47.095 185.08 46.8768 185.474 46.3911 188.073L44.7926 194.639C44.5922 195.452 44.3521 196.28 43.7745 196.918C42.2418 198.611 39.8023 197.506 39.0119 195.701C38.2905 193.852 38.2959 191.817 37.7692 189.913C37.3688 187.946 36.2586 186.266 35.1582 184.617C32.6983 180.831 32.5019 175.56 35.2448 171.852C35.4843 171.238 35.7037 170.635 35.9582 170.031C35.009 168.914 35.6199 167.154 35.5109 165.787C35.5091 164.659 35.4884 163.53 35.4542 162.402C35.254 155.739 34.57 149.117 34.5452 142.453C34.2791 133.472 36.6348 124.772 38.0004 115.964C39.1747 107.265 39.1122 98.3962 41.0334 89.7988C44.6088 72.9236 64.6721 79.3572 68.0663 72.7072C69.092 71.0432 69.5512 69.1495 69.7695 67.234ZM45.2622 317.399C44.9587 319.643 46.5295 320.182 48.3307 320.864C52.9232 322.554 58.2258 322.955 62.8938 321.344C63.721 320.993 64.3128 320.467 64.6068 319.697C58.1284 320.291 51.3256 319.859 45.2622 317.399ZM69.9608 307.406C70.3673 309.422 72.9554 309.659 74.6884 309.998C78.827 310.867 83.006 311.565 87.2083 312.058C95.3518 313.044 103.59 313.213 111.773 312.839C111.994 312.744 112.136 312.56 112.415 312.56L112.449 312.561C112.465 312.561 112.48 312.562 112.495 312.563C112.359 312.473 112.243 312.355 112.156 312.215C98.0904 310.663 83.9391 309.607 69.9608 307.406ZM83.7121 290.126C80.3338 290.714 76.8855 291.025 73.4744 290.49C73.2443 293.322 72.1515 296.073 71.2919 298.783C76.0048 300.033 79.1241 294.787 83.3398 293.788C83.1009 292.535 83.1856 291.218 83.7121 290.126ZM48.8914 287.96C48.9028 287.98 48.9087 288.004 48.9065 288.032C48.8901 291.332 48.5566 294.62 48.072 297.887C51.0665 294.648 56.0784 293.828 60.206 295.175L60.1879 294.964C60.0818 293.769 59.9232 292.544 60.1176 291.359L59.9284 291.306C57.7994 290.717 52.7935 289.534 48.8914 287.96ZM110.573 163.499C92.133 168.466 72.5044 168.777 53.8721 164.67C54.8013 167.66 55.4991 170.705 55.9921 173.79C57.0486 181.727 59.959 189.228 61.9195 196.961C64.1814 206.087 64.7203 213.772 63.5946 223.095L63.56 223.377C61.0814 244.283 50.9311 263.367 46.1624 283.663C51.7743 287.081 58.7069 288.417 65.1417 289.831C69.1859 281.461 72.6032 272.876 74.8426 263.863C82.9099 235.573 93.5399 208.936 91.1787 179.067C90.6523 178.72 90.8236 177.989 91.1129 177.522C91.0129 175.367 90.8746 173.214 90.6482 171.071C90.6406 170.999 90.7614 170.985 90.7763 171.054C91.1507 172.89 91.5438 174.721 91.8727 176.565C94.1397 174.25 95.6059 171.356 97.5995 168.844C97.8833 170.72 93.9968 177.985 92.2867 179.11C95.9305 201.57 89.8626 222.13 83.3087 243.491C78.8985 258.829 74.6136 274.211 70.0634 289.507C70.1186 289.507 70.1738 289.508 70.229 289.51C69.9554 289.005 75.7464 289.353 76.222 289.1C80.4867 288.694 84.6607 287.681 88.8089 286.664L89.3178 286.532C90.3513 286.259 91.5512 285.867 91.7371 284.758L91.7399 284.619C91.741 284.577 91.7429 284.544 91.7463 284.541L91.7165 284.416C91.7101 284.388 91.7057 284.365 91.7066 284.358L91.6654 284.297C91.6179 284.228 91.5733 284.167 91.6366 284.237C91.168 283.723 91.1255 282.929 91.6664 282.438C92.68 245.078 104.669 210.885 109.109 173.943C109.549 170.455 110.086 166.98 110.573 163.499ZM37.1211 170.732C34.989 173.39 34.6228 177.099 35.4634 180.338C35.9047 181.945 36.7972 183.299 37.7173 184.677C39.3307 186.975 40.0832 189.646 40.4936 192.382L40.5052 192.434C40.6924 193.314 40.8086 195.74 42.0469 195.467C42.3721 195.257 42.5279 194.335 42.6423 193.853L44.0717 187.98C44.4855 186.28 44.7336 184.26 46.1997 183.083L46.373 182.972C47.5706 182.199 48.7388 181.302 48.9267 179.796C49.3393 177.95 48.5722 176.163 48.2856 174.368C44.4621 173.49 40.7293 172.251 37.1211 170.732ZM118.27 163.144L118.142 163.207C116.672 163.943 112.284 166.323 111.152 165.409C111.179 170.848 110.745 176.261 110.109 181.657C110.271 181.621 110.439 181.625 110.589 181.681C113.78 180.795 117.246 174.743 117.513 171.633C117.732 168.802 117.171 165.849 118.27 163.144ZM65.8196 79.7712L65.6571 79.5554C63.93 77.2752 62.9608 76.4609 59.9742 77.6775C60.3757 78.176 60.5647 78.844 60.3935 79.5357L60.3821 79.5799C59.4398 83.4693 54.6063 85.7228 51.0684 83.6066C49.8323 83.9294 48.5435 83.0379 48.4937 81.7745C44.9928 83.842 43.3752 87.63 42.7188 91.4345C45.0169 90.2208 48.1072 91.3792 49.0244 93.7928C51.0347 98.2038 45.1761 102.793 41.6034 99.0781C40.8292 106.518 40.4659 114.016 39.0558 121.378C40.1009 119.654 42.5925 119.248 44.0783 120.667C48.9434 124.88 43.3478 134.452 37.4667 129.889C36.7539 133.988 36.5024 138.144 36.5358 142.291C38.4204 141.562 39.4521 144.83 39.5887 146.213C39.7593 147.877 38.9027 151.367 36.8952 151.564L37.0603 154.226C37.3408 158.789 37.5901 163.347 37.5277 167.92C37.6286 167.946 37.7146 167.992 37.7866 168.052C37.7918 168.184 37.8092 168.316 37.8343 168.446C37.859 168.576 37.9411 168.645 38.0379 168.666L38.0412 168.671C38.0368 168.763 38.019 168.855 37.9847 168.941C41.6694 170.489 45.4732 171.767 49.3475 172.773C49.2523 171.479 49.2764 170.189 49.4105 168.911C47.9457 167.513 49.7474 162.441 49.9202 160.469C50.5971 156.519 51.1122 152.544 51.5677 148.563C50.2079 148.447 49.5116 147.022 49.154 145.863C48.6879 144.587 48.4068 143.224 48.735 141.882C49.0679 140.285 50.8523 138.758 52.5351 139.321L52.6411 138.25C53.3074 131.471 53.8896 124.681 54.8871 117.94C51.6293 119.763 48.5531 115.798 49.34 112.72C49.5703 111.413 50.3635 110.147 51.5338 109.469C52.569 108.872 54.7087 108.281 55.3875 109.594C55.7054 109.634 56.0033 109.79 56.2284 110.02C56.9321 106.364 57.7882 102.68 59.1502 99.2144C54.8449 96.5016 55.6503 89.6711 61.3167 89.662C68.9579 90.3186 66.9251 101.5 59.5552 99.3974C57.2404 113.391 55.9064 127.501 54.7224 141.624C55.6135 143.08 55.4724 145.242 54.2497 146.468C53.718 151.577 53.0728 156.675 52.2254 161.743C57.8309 162.996 63.5054 164.033 69.2416 164.511C69.5174 162.731 71.4474 161.781 73.1153 161.638C74.2198 161.519 75.4213 161.94 76.4763 162.141C77.7511 162.631 78.794 163.755 79.2597 164.982C84.6146 165.015 89.9727 164.675 95.2775 163.98C94.7417 161.303 98.6257 159.262 100.99 159.679C101.937 159.795 102.86 160.155 103.569 160.796C104.262 160.943 104.913 161.544 105.085 162.266C106.963 161.818 108.887 161.477 110.701 160.811C112.482 160.225 113.064 158.755 112.603 157.017C107.567 159.04 103.294 151.014 108.099 148.11C108.714 147.654 109.996 147.358 110.357 148.222C110.418 148.232 110.479 148.246 110.54 148.26C110.14 146.609 109.738 144.958 109.335 143.307C107.027 143.085 106.256 139.688 108.173 138.494C107.521 135.755 106.888 133.011 106.294 130.259C103.13 130.913 100.507 126.966 101.177 124.115L101.198 124.029C101.576 122.479 102.726 120.954 104.425 120.697C104.024 118.368 103.665 116.031 103.363 113.686C102.926 113.219 102.73 112.522 102.9 111.906C103.023 107.399 102.112 102.758 102.479 98.187C99.1218 102.279 92.1261 99.4938 93.7241 94.094C93.6306 89.0917 100.721 87.3189 103.112 91.7412C103.368 90.7978 103.697 89.8593 103.858 88.8867C103.882 88.775 104.054 88.7975 104.065 88.9023L104.065 88.9143C104.421 95.3112 104.159 101.75 104.844 108.14C107.402 108.266 108.447 114.385 105.668 114.824C106.719 121.938 108.298 128.96 110.014 135.948C112.995 135.18 114.148 141.606 111.693 142.687C112.408 145.527 113.119 148.368 113.812 151.214L113.826 151.208C114.186 150.586 115.147 150.656 115.765 150.774C117.805 151.528 116.942 155.231 114.721 155.004C115.933 158.66 115.165 162.053 111.122 163.309L111.124 163.426C111.249 163.328 111.401 163.248 111.585 163.196C114.112 162.485 116.471 161.38 118.648 159.948C118.007 149.39 114.959 139.155 112.492 128.914C109.658 128.461 108.754 123.908 110.965 122.231C109.434 115.431 108.993 108.478 108.244 101.573C106.203 101.127 105.687 97.8416 107.53 96.8354C106.362 88.2599 101.964 81.0313 93.7581 77.355C93.4921 78.5756 93.0505 79.7607 92.4596 80.87C92.515 80.8731 92.5685 80.8798 92.6209 80.8886C92.6346 80.9132 92.6512 80.9375 92.6737 80.9608C93.1182 81.4166 93.403 81.9296 93.5836 82.4787C93.601 82.5967 93.6204 82.7145 93.6403 82.8323C93.6204 82.8805 93.5983 82.9282 93.5728 82.975C94.452 86.3259 90.3312 88.0388 87.5488 87.2892C87.1175 87.2042 86.8356 86.9619 86.6852 86.6555C81.7592 89.3108 75.3303 88.7513 70.8927 85.2403C67.6673 86.9672 63.5145 82.9343 65.8196 79.7712ZM42.7042 154.901C47.4175 154.206 48.9592 161.799 45.1604 163.907C43.9356 164.636 42.2513 164.7 41.0453 163.894C37.8342 161.945 38.7274 155.301 42.7042 154.901ZM60.6451 150.357C66.6438 150.331 67.1569 159.556 61.9246 161.217C58.0336 162.343 54.2221 158.022 56.2176 154.419C56.4019 152.177 58.3372 150.39 60.6451 150.357ZM79.3365 151.194C79.6486 148.811 82.1415 146.535 84.6505 147.191C86.9496 147.771 87.5491 150.457 87.9568 152.446C88.8837 156.565 84.2147 160.741 80.2806 158.473C77.7676 156.97 77.4002 153.292 79.3365 151.194ZM92.7339 137.287C93.5747 135.95 95.4584 135.361 96.9961 135.827C101.214 137.172 100.713 143.924 97.3188 145.936C91.4888 148.983 86.8392 140.223 92.7339 137.287ZM65.2649 141.232C65.1663 137.219 69.312 133.567 73.2063 135.848C79.5094 140.066 73.0544 149.743 67.0068 144.319C65.929 143.625 65.2921 142.497 65.2649 141.232ZM57.4234 130.994C54.5062 126.457 59.5163 119.731 64.2977 124.078C65.9375 125.759 65.8643 128.842 64.915 130.84C63.3707 133.509 59.082 133.572 57.4234 130.994ZM78.6062 122.486C80.8828 120.303 84.8609 120.281 86.5906 123.16C88.6411 126.713 86.194 132.791 81.572 132.502C76.7697 132.162 75.4541 125.42 78.6062 122.486ZM66.6782 115.392C63.0251 111.655 66.9916 105.661 71.9459 107.105C80.043 110.08 73.0158 121.275 66.6782 115.392ZM86.6195 114.549C83.3657 108.622 91.27 103.293 95.2927 108.998C98.3781 114.165 90.0482 120.129 86.6195 114.549ZM76.0066 97.6884C73.1912 92.7482 78.1112 87.2588 83.2805 90.1583C90.6363 95.2596 81.2207 105.07 76.0066 97.6884Z" fill="black"/>
<path fill-rule="evenodd" clip-rule="evenodd" d="M68.6013 21.9635C75.2823 21.5977 81.2014 19.7147 85.9041 23.9289C85.9041 23.9289 93.512 18.2298 94.7814 20.4004C95.6319 21.8548 94.4524 23.8073 94.7686 25.602C96.831 29.1286 96.7144 35.0979 96.831 36.4968C97.1249 40.0227 98.9761 53.2906 98.9761 56.4413C98.9761 58.0495 97.6542 62.2615 96.831 64.6055C94.9987 69.8227 91.5011 72.4816 85.7652 72.4816C80.0293 72.4816 70.6672 67.6726 67.6646 63.403C67.4014 63.0288 65.6998 64.1205 63.9199 62.2268C61.9917 60.1753 60.922 56.2625 60.922 53.93C60.922 50.9702 59.0151 48.9176 59.2369 45.129C59.7322 36.6679 61.4525 22.355 68.6013 21.9635Z" fill="white"/>
<path fill-rule="evenodd" clip-rule="evenodd" d="M67.855 12.1263C67.9419 12.121 68.0299 12.1252 68.1179 12.1339C68.2144 12.1381 68.3108 12.1476 68.4073 12.1668C68.8982 12.2614 69.3361 12.5219 69.6754 12.8888C69.6849 12.8984 69.6923 12.9092 69.7008 12.9186C69.8598 13.0388 70.0072 13.175 70.1397 13.3196C70.1631 13.2972 70.1853 13.275 70.2097 13.2527C70.2797 13.1909 70.3528 13.1324 70.4292 13.0772C70.7486 12.8024 71.1234 12.6027 71.5265 12.489L71.5816 12.4741C71.5922 12.4709 71.6028 12.4688 71.6134 12.4666C71.8997 12.371 72.2008 12.3221 72.504 12.3231C72.8666 12.3114 73.2303 12.371 73.5695 12.5113C73.9714 12.6784 74.3212 12.942 74.6149 13.259C74.8079 13.4164 74.9765 13.5897 75.1546 13.7802C75.5225 14.1746 75.813 14.6362 75.9964 15.1446C76.0218 15.2159 76.0441 15.2892 76.0642 15.3626C76.5127 15.3106 76.9633 15.2733 77.4139 15.2551C77.9196 15.2244 78.4254 15.2137 78.9321 15.2308C80.3284 15.2764 81.694 15.5233 83.0161 15.9752C83.2812 16.0538 83.5388 16.1538 83.7869 16.2772C84.176 16.4324 84.5439 16.6303 84.8906 16.8695L85.1859 17.0452C85.3343 17.1337 85.4826 17.2233 85.6264 17.3152C85.9688 17.5354 86.2932 17.782 86.6007 18.0479C86.9251 18.3107 87.2315 18.5968 87.5231 18.8966C87.6023 18.9777 87.6787 19.0599 87.7541 19.1427C88.4262 19.5065 89.0232 19.9723 89.58 20.5279C90.0216 20.2731 90.4789 20.0421 90.9508 19.8367C91.4374 19.6251 92.0555 19.4071 92.5655 19.2636C93.0235 19.1349 93.4762 19.0467 93.9353 18.9817C94.1442 18.9455 94.3541 18.9168 94.5651 18.8923L94.5566 18.8956C94.705 18.8796 94.8524 18.8657 95.0019 18.853L94.9977 18.8519C95.0613 18.8467 95.1259 18.8413 95.1896 18.837L95.3443 18.8244C95.391 18.8201 95.4589 18.9296 95.4631 18.9678L95.4684 19.0072C95.5034 19.0467 95.5352 19.0903 95.5575 19.1168C95.585 19.1146 95.6126 19.1126 95.6402 19.1114C95.7229 19.1041 95.8183 19.2518 95.867 19.3082L95.9111 19.3601C95.9614 19.4207 96.0116 19.4905 96.0197 19.5666C96.0738 20.0081 96.1247 20.4504 96.1713 20.8928C96.1893 21.2278 96.1713 21.5596 96.1162 21.8882C96.0748 22.2073 96.0324 22.5263 95.99 22.8443C95.9222 23.0678 95.8554 23.2911 95.7886 23.5143C95.7621 23.5995 95.7324 23.6834 95.7038 23.7675C95.5342 24.3286 95.3354 24.8748 95.0987 25.4041C95.2714 25.5957 95.4325 25.7944 95.5823 25.9995C95.6181 26.0364 95.6541 26.0731 95.6879 26.1114C95.6974 26.0966 95.7112 26.0828 95.726 26.0753C95.7769 26.0529 95.814 26.0795 95.8458 26.1232C96.1798 26.4432 96.4226 26.8166 96.5731 27.243L96.6669 27.4654C96.6825 27.5025 96.6979 27.5397 96.7131 27.5769C96.8329 27.9003 96.9251 28.2322 97.0015 28.5681C97.0698 28.8325 97.1187 29.1005 97.1503 29.3714C97.3793 30.1427 97.5604 30.9319 97.7312 31.7104C97.7582 31.8329 97.7454 31.9422 97.7063 32.0354L97.8062 32.133L97.9768 32.3035C98.2635 32.5902 98.5559 32.8915 98.7689 33.2327C98.9894 33.5868 99.1516 33.9654 99.3318 34.3409L99.3707 34.4207L99.45 34.5807C99.5359 34.7553 99.577 34.8518 99.6531 35.063C99.7793 35.4151 99.8471 35.7691 99.8789 36.1425C99.9256 36.6859 99.9192 37.2782 99.6817 37.7834C99.6807 37.7877 99.6785 37.791 99.6764 37.794C99.5683 38.2823 99.3011 38.7352 98.895 39.0245C98.8081 39.1065 98.7148 39.1799 98.6151 39.2383C98.3759 39.3792 98.1563 39.3918 97.8952 39.3266L97.8624 39.318C97.8295 39.3095 97.7998 39.3021 97.7712 39.2957C97.8136 39.3308 97.8348 39.3724 97.7712 39.4021C97.7097 39.4318 97.6546 39.4489 97.6026 39.4552C97.6249 39.484 97.627 39.5148 97.5804 39.5403C97.4786 39.5946 97.3959 39.6117 97.3111 39.5967L97.3289 39.7445C97.468 40.8634 97.5924 41.0846 97.7012 42.2864C97.7733 43.5168 97.8878 44.7441 98.0458 45.9661L98.1002 46.4102C98.2746 47.8176 98.4707 49.2353 98.771 50.6199C98.9226 51.2251 99.053 51.8344 99.1633 52.4481C99.3191 52.915 99.4283 53.3925 99.4888 53.8796C99.5767 54.3752 99.6372 54.875 99.6722 55.3791C99.7941 55.7015 99.8535 56.0289 99.8503 56.3629C99.8662 56.8117 99.8513 57.2595 99.8036 57.7051C99.7771 58.1687 99.7135 58.6281 99.6128 59.0833C99.5227 59.7077 99.3583 60.3107 99.123 60.8956C98.9343 61.5485 98.7031 62.1889 98.4402 62.8152C98.032 63.7851 97.539 64.6859 96.9781 65.5739C96.4523 66.4066 95.8882 67.2085 95.2436 67.9541C94.4103 68.9176 93.4603 69.8003 92.4192 70.5447C91.8255 70.9851 91.1989 71.3806 90.5437 71.7189C89.7421 72.1336 88.9279 72.5069 88.0596 72.7589C87.5178 72.9163 86.9665 73.0248 86.4088 73.1079C85.3136 73.2705 84.1792 73.246 83.0776 73.0557C82.3672 72.9599 81.6686 72.794 81.008 72.5569C80.4652 72.3613 79.9478 72.1368 79.4304 71.8837C79.1643 71.755 78.9077 71.6061 78.6618 71.4391C78.2483 71.1701 77.8613 70.866 77.5008 70.5298C77.3832 70.4288 77.2687 70.3256 77.1563 70.2172C77.1022 70.1693 77.1319 70.098 77.1944 70.0811L77.2135 70.0789C77.1891 70.0566 77.1637 70.0342 77.1393 70.0108C77.134 70.0066 77.1298 70.0014 77.1255 69.996C77.1139 69.9853 77.1011 69.9748 77.0905 69.9642C77.0492 69.9279 77.0905 69.8471 77.1266 69.8279C77.1404 69.8205 77.1584 69.8195 77.1785 69.8215C77.1743 69.8173 77.1711 69.8141 77.1669 69.811C77.1626 69.8077 77.1616 69.7992 77.1626 69.7907L77.1467 69.778C77.0927 69.7301 77.1202 69.66 77.1838 69.6418C77.2149 69.6324 77.2661 69.6372 77.3196 69.6488L77.3397 69.6535L77.3036 69.6195C77.24 69.5642 77.2602 69.5025 77.3386 69.4834C77.3971 69.4869 77.455 69.495 77.5122 69.5089L77.5549 69.5206C77.5761 69.5259 77.5963 69.5323 77.6175 69.5388C77.5814 69.5057 77.5454 69.4739 77.5104 69.4408C77.4754 69.4101 77.5125 69.3217 77.5443 69.3037C77.5878 69.2793 77.6726 69.3132 77.7118 69.3419C77.8083 69.3526 77.9355 69.3951 77.9822 69.4355C78.1105 69.5589 78.243 69.6769 78.3776 69.7918C78.4593 69.8173 78.5367 69.8513 78.596 69.9024C78.7487 70.0491 78.9078 70.1875 79.07 70.3214L79.1933 70.4066C79.2139 70.4206 79.2347 70.4345 79.2555 70.4479C79.4888 70.5851 79.722 70.7213 79.9542 70.8585C80.8055 71.1477 81.6569 71.4371 82.5072 71.7253L82.6196 71.7592L83.4455 71.8613C83.9883 71.9188 84.5322 71.9157 85.0751 71.8528C85.4822 71.8583 85.8861 71.8177 86.2837 71.7348C86.9591 71.6199 87.6217 71.4509 88.2663 71.2147C89.0085 70.9435 89.7156 70.5863 90.4058 70.2013C90.6539 70.0619 90.8978 69.9141 91.1374 69.7578C91.2148 69.7025 91.2922 69.6461 91.3696 69.5886C91.8796 69.2047 92.3673 68.7952 92.8369 68.3624C93.0575 68.1593 93.2695 67.9477 93.4741 67.7287C93.5038 67.6967 93.5324 67.6659 93.5611 67.6339C93.7572 67.4191 93.947 67.1969 94.1283 66.9671L94.3011 66.7715C94.9987 65.9005 95.6189 64.9635 96.1766 63.9988C96.7301 63.0427 97.186 62.0367 97.5485 60.9955C97.6652 60.6243 97.767 60.248 97.8518 59.8672C98.0087 59.4098 98.1115 58.9409 98.1592 58.4623C98.1751 58.3686 98.1879 58.275 98.2006 58.1815L98.2079 58.0339C98.2089 58.0093 98.2098 57.9847 98.2101 57.9603C98.2313 57.8115 98.2494 57.6625 98.2631 57.5136C98.2716 57.3637 98.2769 57.2137 98.278 57.0637L98.2663 56.1438C98.2631 56.1151 98.26 56.0854 98.2578 56.0555L98.2345 55.8525C98.1836 55.4334 98.1444 55.0133 98.0935 54.5944C98.0935 54.5921 98.0935 54.5889 98.0924 54.5857C98.0734 54.4294 98.0532 54.272 98.0299 54.1146C98.0182 54.021 98.0034 53.9274 97.9896 53.8338L97.9631 53.6702C97.9139 53.3854 97.8542 53.103 97.7818 52.8231L97.75 52.7033L97.5655 51.7728L97.3577 50.8571C97.2231 50.2434 97.1107 49.6255 97.0216 49.0023C96.8605 48.0091 96.7226 47.0146 96.6028 46.016C96.5965 45.9682 96.5901 45.9192 96.5848 45.8714C96.4629 44.9452 96.3749 44.0156 96.3176 43.0829C96.2402 42.1641 96.1957 41.243 96.184 40.321C96.183 40.2795 96.2106 40.2455 96.2434 40.2263L96.2405 40.049C96.2366 39.8922 96.2338 40.0803 96.2324 39.9015L96.2304 39.4098C96.2305 39.3688 96.2309 39.3403 96.2318 39.3383C95.6653 39.3775 95.2843 39.3453 94.7374 39.3164L94.6446 39.3117C94.1431 39.2884 93.6448 39.2331 93.1497 39.15C93.1476 39.1756 93.1306 39.1936 93.102 39.1989C93.0511 39.2011 93.0034 39.2011 92.9546 39.2022L92.9726 39.2712C92.9737 39.3065 92.9578 39.3287 92.9239 39.3383L92.7824 39.3446C92.5936 39.3526 92.4041 39.3563 92.2167 39.3308C92.0481 39.3086 91.8838 39.2691 91.7205 39.2223C91.6198 39.2053 91.517 39.182 91.412 39.1521C91.1427 39.0745 90.8755 38.9703 90.6052 38.8874C90.3295 38.8288 90.0496 38.8098 89.757 38.8799C89.4474 38.9533 89.1855 39.0862 88.8611 39.0054C88.7964 38.9895 88.7339 38.9651 88.6713 38.9394L88.6134 38.9354C88.6036 38.9345 88.5936 38.9334 88.5833 38.932C88.2451 38.8832 87.944 38.6683 87.6217 38.5534C87.5092 38.5259 87.3975 38.5328 87.2884 38.5785L87.2612 38.5907L87.1541 38.6705C87.111 38.7215 87.0684 38.7729 87.0262 38.8246L86.9633 38.9022C86.8477 39.0458 86.7248 39.1745 86.5753 39.2681C86.395 39.435 86.1809 39.5329 85.9254 39.5393C85.7801 39.5435 85.6359 39.5127 85.496 39.4681C84.968 39.6319 84.4029 39.6649 83.8759 39.5053C83.6671 39.4733 83.4625 39.4171 83.2663 39.3287C83.1741 39.2872 83.0818 39.2383 82.9928 39.184C82.6206 39.3415 82.2687 39.551 81.9092 39.7319L81.8283 39.7726C81.461 39.9561 81.0547 40.1351 80.6391 40.1083C80.1153 40.0742 79.6011 40.0041 79.088 39.9157C79.0837 39.9157 79.0784 39.9147 79.0742 39.9136L79.0036 39.9018L78.7469 39.8566L78.5399 39.818L78.4341 39.8587C77.5843 40.1812 76.6531 40.4328 75.7992 40.2071C75.427 40.1615 75.0782 40.0359 74.7633 39.8221C74.7527 39.8147 74.7421 39.8073 74.7315 39.7987C74.6817 39.7732 74.6351 39.7446 74.5937 39.7138L74.5848 39.7068L74.5767 39.6998L74.5725 39.6977C74.1071 39.483 73.8399 39.0256 73.8865 38.5131C73.8579 38.3503 73.859 38.1907 73.8908 38.0207C73.7392 38.2003 73.5844 38.378 73.4275 38.5544C72.8535 39.2477 72.2914 39.9548 71.771 40.6909L71.6516 40.8613C71.3653 41.2664 71.0992 41.6855 70.8533 42.1172C70.6041 42.5437 70.3486 42.966 70.0846 43.3829C69.7413 43.7634 69.4095 44.153 69.0897 44.5522L68.9533 44.7238L68.4932 45.3311C68.1677 45.7183 67.8974 46.1416 67.6843 46.6009C67.5093 46.9275 67.3482 47.2604 67.2029 47.6018C67.1563 47.7049 67.1117 47.8091 67.0683 47.9133C66.9188 48.3206 66.7926 48.7355 66.694 49.164C66.6148 49.4741 66.5579 49.7885 66.5242 50.1073L66.5138 50.2138C66.5011 50.3392 66.4915 50.4647 66.4862 50.5901C66.517 50.6083 66.5424 50.6263 66.5615 50.6444L66.6389 50.6721L66.7015 50.6907C66.799 50.7211 66.9675 50.7839 66.9273 50.8613L66.7226 51.2528C66.7438 51.2752 66.7534 51.2984 66.7396 51.3241C66.6028 51.5867 66.465 51.8493 66.3272 52.1121C66.3229 52.1217 66.3155 52.129 66.3081 52.1345C66.4258 52.1886 66.5403 52.2482 66.6495 52.313C66.8626 52.4408 67.0195 52.5885 67.1647 52.7608C67.3174 52.8523 67.4616 52.9523 67.5973 53.0671C67.7648 53.2436 67.9111 53.4373 68.0352 53.6467C68.1497 53.8445 68.243 54.0508 68.3151 54.2667C68.3469 54.3805 68.3617 54.4985 68.3607 54.6187C68.2324 55.5271 67.1966 54.9048 67.1764 54.825C67.0343 54.2763 66.8711 53.9297 66.5042 53.5213L66.4947 53.5148C66.2826 53.4212 66.0727 53.3287 65.8533 53.2564C65.8204 53.2627 65.7865 53.2671 65.7525 53.2723C65.7907 53.3267 65.7716 53.3798 65.6942 53.3893C65.3603 53.4553 65.0231 53.4733 64.6838 53.4446L64.1686 53.3713C63.9548 53.4535 63.7505 53.5591 63.558 53.6848L63.4943 53.7275L63.4826 53.736C62.9854 54.1369 62.6016 54.6698 62.3386 55.2504C62.3153 55.3022 62.2929 55.3544 62.2715 55.4071L62.24 55.4865L62.2379 55.4908C61.8944 56.8447 62.2008 58.3314 62.8284 59.5598C63.1709 60.1096 63.5282 60.6488 63.9014 61.1774L64.264 61.6528C64.4781 61.8549 64.6881 62.0622 64.8927 62.2749C64.9245 62.3069 64.9584 62.3387 64.9924 62.3695C65.1005 62.4408 65.2108 62.5037 65.3231 62.5568C65.3666 62.5716 65.4111 62.5854 65.4557 62.5972C65.672 62.7014 65.8988 62.7568 66.1374 62.7631C66.4525 62.7841 66.7582 62.747 67.0538 62.6529L67.1128 62.6333L67.1563 62.6173C67.3174 62.5142 67.4669 62.3855 67.609 62.2345C67.6408 62.2015 67.7002 62.2015 67.768 62.2196C67.8051 62.1813 67.8422 62.1409 67.8772 62.0973C67.9016 62.0707 67.9398 62.0697 67.9695 62.0898C68.0702 62.0783 68.3427 62.2335 68.2716 62.3153C68.26 62.3344 68.2451 62.3515 68.2324 62.3695C68.2801 62.394 68.3278 62.4217 68.3702 62.4505C68.5929 62.5124 68.9217 62.7353 68.895 62.8024L68.8918 62.8077C68.8403 62.9054 68.7733 62.9875 68.6909 63.0525L68.6628 63.0736L68.6003 63.1172C68.6883 63.1726 68.7625 63.2363 68.7254 63.281C68.7084 63.3139 68.6904 63.346 68.6692 63.3747C68.8494 63.598 69.0286 63.8234 69.2067 64.0488C69.3848 64.436 69.6054 64.7975 69.8683 65.1325C70.0878 65.4963 70.3518 65.8229 70.6603 66.1142C70.6857 66.1398 70.7122 66.1642 70.7377 66.1887C70.965 66.3571 71.2028 66.5149 71.4505 66.6665L71.5572 66.7311C71.6134 66.765 71.7078 66.8076 71.6633 66.8895C71.658 66.9001 71.6516 66.9087 71.6442 66.915C71.8 67.0172 71.9612 67.1138 72.1276 67.2033L72.1434 67.213C72.2063 67.2533 72.2916 67.3264 72.2019 67.3861C72.1255 67.4372 71.923 67.2989 71.8276 67.2351C71.8096 67.2351 71.7884 67.2299 71.7672 67.2235C71.799 67.2404 71.8303 67.2589 71.8621 67.2768L71.9103 67.3033C71.9474 67.3255 72.1298 67.4467 72.0025 67.4979C71.94 67.5031 71.8827 67.4871 71.8297 67.451C71.7672 67.4201 71.7057 67.3873 71.6452 67.3531C71.6664 67.3861 71.6664 67.4191 71.6134 67.4404C71.5954 67.4414 71.5774 67.4405 71.5594 67.4383C71.6845 67.5181 71.8128 67.5924 71.9453 67.6626L71.9667 67.6761C72.0227 67.7125 72.112 67.7817 72.0471 67.8414C71.9739 67.9072 71.7725 67.7668 71.7205 67.735L71.5657 67.6424C71.5541 67.6477 71.5413 67.6499 71.5276 67.651C71.5742 67.6797 71.6177 67.7106 71.6654 67.7381L71.7303 67.7736C71.8116 67.8187 71.9265 67.8927 71.8848 67.9668C71.8432 68.04 71.7196 67.9797 71.6397 67.9323L71.5538 67.8789C71.5501 67.8765 71.5463 67.8743 71.5424 67.8721L71.5391 67.8849C71.5384 67.887 71.5375 67.8891 71.536 67.8913C71.4963 67.9607 71.3963 67.9152 71.3273 67.8752L71.272 67.8414C71.178 67.7846 71.085 67.7283 70.9925 67.6716L70.8543 67.5862H70.8522C70.374 67.2978 69.9319 67.0108 69.5153 66.6407C69.2661 66.4194 69.0339 66.1854 68.8134 65.9355C68.3702 65.4346 68.0405 64.8615 67.7224 64.2765C67.7171 64.2668 67.7245 64.2424 67.7373 64.2158C67.7023 64.1436 67.6684 64.0701 67.6344 63.9946C67.3079 64.0862 66.9432 64.1127 66.6071 64.0904C66.4268 64.0786 66.2487 64.0467 66.0717 63.9988C65.5066 63.9201 64.9616 63.6617 64.4909 63.3522C64.4612 63.3331 64.4347 63.3118 64.4071 63.2928C64.2131 63.1831 64.0286 63.0556 63.8537 62.9098C63.5123 62.6269 63.1868 62.3121 62.891 61.9835C62.6768 61.7284 62.4743 61.4634 62.2846 61.1891C62.0916 60.9179 61.8965 60.6468 61.7014 60.3755C61.1597 59.5247 60.813 58.5452 60.6783 57.5444C60.6126 57.1755 60.5787 56.8021 60.5861 56.4299C60.5914 56.1608 60.6211 55.8885 60.673 55.6175C60.6423 55.5876 60.6115 55.5579 60.5808 55.5271C60.5638 55.5567 60.5469 55.5781 60.5362 55.5674L60.2933 55.3233C60.1209 55.149 60.0052 55.0207 59.8068 54.7389C59.4909 54.289 59.2555 53.7945 59.0806 53.2735C58.9544 52.9013 58.8706 52.4779 58.8378 52.0685C58.8272 52.0004 58.8166 51.9312 58.8081 51.861C58.7402 51.307 58.8028 50.7763 58.8865 50.2296C58.8918 50.1936 58.9099 50.1712 58.9343 50.1594C58.9404 50.1161 58.9477 50.0717 58.9549 50.0273C58.2526 49.2816 57.7472 48.3828 57.7885 47.2974C57.8014 46.9554 57.8714 46.6183 58.005 46.3035L58.0212 46.268C57.435 46.1776 56.97 45.7645 56.6206 45.2525C56.5897 45.2279 56.5597 45.2032 56.5308 45.1785C55.9062 44.6433 55.4731 43.8856 55.1765 43.0852C54.9642 42.6204 54.8235 42.1238 54.7638 41.6086C54.7595 41.5718 54.757 41.5353 54.7537 41.4988C54.6087 40.6842 54.5718 39.8615 54.6388 39.051C54.4932 38.5493 54.3748 38.0389 54.2937 37.5165C54.2555 37.2677 54.229 37.0187 54.2089 36.7699L54.2067 36.7562L54.2036 36.7114L54.1946 36.5998C54.1932 36.5813 54.1919 36.5629 54.1908 36.5444C54.0117 34.2664 54.5195 32.0245 55.3592 29.9145C55.4323 29.7248 55.5079 29.5355 55.5858 29.3477L55.6685 29.1516C56.5113 27.7881 57.777 26.6854 58.849 25.5207C59.2189 25.119 58.6206 24.5157 58.2494 24.9191C57.5371 25.6929 56.773 26.4341 56.0831 27.2295C55.9613 27.2384 55.8393 27.2417 55.7175 27.2357C55.5055 27.2249 55.2998 27.191 55.1005 27.1366C54.6033 27.0633 54.1505 26.8623 53.7392 26.5666C53.1889 26.3093 52.7192 25.8243 52.6726 25.1915C52.6673 25.1277 52.6684 25.0649 52.6726 25.0023C52.6217 24.6927 52.6673 24.3684 52.7966 24.0695C52.8189 23.9876 52.8475 23.9068 52.8836 23.827C52.9885 23.5898 53.1614 23.3624 53.3723 23.208C53.3776 23.2049 53.3819 23.2028 53.3861 23.1995C53.4084 23.1762 53.4296 23.1527 53.454 23.1316C53.49 23.0985 53.5282 23.0678 53.5685 23.0391C53.4254 22.8029 53.296 22.5605 53.1857 22.3019C53.0659 22.0212 53.0044 21.7363 52.9705 21.4352C52.9567 21.3161 52.9514 21.198 52.9493 21.0801C52.943 21.0257 52.9387 20.9704 52.9345 20.9151C52.908 20.494 52.9567 20.057 53.1136 19.6634C53.1253 19.6337 53.1402 19.6038 53.1539 19.573C53.1836 19.4836 53.2165 19.3944 53.2568 19.3071C53.4137 18.9721 53.6363 18.6881 53.9109 18.4552C54.0594 18.3053 54.2258 18.1723 54.4071 18.0596C54.5142 17.9926 54.6361 17.9331 54.7644 17.8841C54.9934 17.7629 55.2871 17.6523 55.5256 17.6439C55.5543 17.6427 55.5797 17.646 55.6073 17.646C55.6295 17.0355 55.708 16.3708 55.9487 15.8177C56.0886 15.4169 56.2985 15.0606 56.6145 14.8042C56.7977 14.6124 57.0235 14.4566 57.3053 14.3547L57.3556 14.3373L57.3747 14.332C57.6281 14.2087 57.9016 14.1597 58.1826 14.1609C58.5102 14.1438 58.8441 14.2056 59.1293 14.3565C59.1887 14.3884 59.2523 14.4277 59.3128 14.4703C59.3583 14.3788 59.4092 14.2863 59.4675 14.1939C59.6722 13.8651 59.9192 13.5791 60.2055 13.3185C60.2394 13.2877 60.2765 13.26 60.3125 13.2303C60.4514 13.1038 60.5988 12.9868 60.7515 12.8804C61.0812 12.6506 61.4427 12.4795 61.8223 12.3688C62.2605 12.2064 62.7229 12.131 63.1854 12.1468L63.2812 12.1509C63.3024 12.1529 63.3236 12.154 63.3437 12.155C63.8028 12.1849 64.2555 12.2976 64.6881 12.4677C65.1365 12.6454 65.5161 12.9144 65.8692 13.2228C65.9519 13.108 66.0462 12.9994 66.1618 12.8974C66.1946 12.8687 66.2296 12.8431 66.2625 12.8165C66.2879 12.791 66.3145 12.7665 66.342 12.7421C66.4682 12.6304 66.6018 12.5336 66.7481 12.4475C66.9124 12.3508 67.0895 12.2838 67.2729 12.2423C67.4595 12.1784 67.6556 12.1391 67.855 12.1263ZM65.6762 55.9694C65.695 55.9683 66.6769 56.3377 67.1662 56.5765L67.1902 56.5883C67.7542 56.8691 68.0257 57.0712 68.5324 57.4317C68.5664 57.4562 68.6014 57.4934 68.6014 57.5296C68.6014 58.0546 68.4742 58.6967 68.0341 58.4123C67.9705 58.3711 67.9064 58.331 67.8419 58.2914L67.7447 58.2325L67.7415 58.2336C67.7426 58.2336 67.7436 58.2325 67.7447 58.2315C66.7863 57.6455 65.7737 57.186 64.705 56.8574C64.6319 56.8308 65.1737 56.0098 65.3231 56.0555C65.2373 56.0215 65.6619 55.9702 65.6762 55.9694ZM75.7465 32.7759C75.1092 32.8443 74.4719 32.9116 73.8346 32.9774C73.4285 33.0242 73.0214 33.0657 72.6143 33.1008C72.0025 33.1466 71.3908 33.154 70.7812 33.0699C70.5649 33.0403 70.3528 32.9976 70.1429 32.9455C69.9998 33.0508 69.8513 33.1497 69.6997 33.2445L68.0161 34.5365C66.887 35.4268 65.7822 36.37 64.7877 37.4112C63.0509 39.2302 61.6362 41.3583 60.7468 43.7155C60.6661 43.7633 60.6038 43.8466 60.583 43.9743C60.4259 44.9405 59.9664 45.8217 59.8004 46.784C59.6369 47.7318 59.8543 48.5375 60.4478 49.2887C60.5745 49.4492 60.8341 49.4407 60.9933 49.3323C61.0303 49.4053 61.1906 49.4022 61.2469 49.08C61.5108 48.7934 61.7365 48.4929 61.8894 48.1209C62.002 47.8469 61.8128 47.657 61.5831 47.6197C61.6785 47.2751 61.7861 46.9336 61.9071 46.5957C62.2655 45.5917 62.7214 44.6325 63.2949 43.7328C63.7996 42.9414 64.3838 42.2523 65.0114 41.561C65.0189 41.5514 65.0316 41.5483 65.0454 41.5462L65.1758 41.4015C65.1938 41.3812 65.2309 41.3834 65.2723 41.394C65.3115 41.3525 65.3497 41.31 65.3899 41.2685C65.4292 41.226 65.4726 41.2387 65.497 41.2728C65.5638 41.2579 65.6857 41.3302 65.7228 41.3537C65.7865 41.3961 65.8066 41.444 65.7525 41.5046C65.743 41.5154 65.7334 41.526 65.7239 41.5355C65.7971 41.5664 65.8692 41.6078 65.9254 41.6483C66.1215 41.6918 66.3971 41.8747 66.3494 41.9291C66.2487 42.0342 66.1512 42.1418 66.0547 42.2512C66.1395 42.3109 66.1946 42.3692 66.1724 42.3949C65.7589 42.8319 65.3772 43.2946 65.0273 43.7848C64.7612 44.1506 64.5206 44.5314 64.3053 44.928C63.9851 45.4896 63.7137 46.0671 63.4731 46.6605C63.4391 46.751 63.4063 46.8413 63.3745 46.9317C63.0225 47.9197 62.7595 48.9449 62.6482 49.9893L62.6436 50.0597C62.6228 50.4359 62.6147 51.4432 62.5761 51.6834C62.8104 51.7994 63.0543 51.8983 63.3077 51.9792C63.3554 51.993 63.4041 52.0058 63.4529 52.0175C63.4805 52.0058 63.5091 51.9961 63.5377 51.9876C63.771 51.8929 64.0148 51.8249 64.264 51.7919C64.4319 51.7697 64.599 51.7619 64.766 51.7668L64.8376 51.7696C64.9118 51.7717 64.9849 51.777 65.0591 51.7846C65.0549 51.7419 65.0528 51.7006 65.0496 51.6579C65.0284 51.6441 65.0125 51.625 65.0114 51.5994C64.9616 51.1208 64.9605 50.6423 65.0083 50.1637C65.0401 49.9138 65.0772 49.6649 65.1175 49.4161C65.1588 49.2118 65.2065 49.011 65.2585 48.8098C65.3963 48.2463 65.5797 47.6964 65.8024 47.1583C66.4364 45.6236 67.345 44.24 68.2589 42.8638C68.9258 41.8589 69.5566 40.8314 70.2468 39.8434C70.8342 39.0022 71.4512 38.1737 72.1096 37.3867C72.767 36.6009 73.4614 35.8446 74.211 35.145C74.3318 35.0332 74.4538 34.9247 74.5778 34.8174C75.2882 34.1793 76.06 33.6549 76.8636 33.1402C76.8944 33.12 76.9495 33.1424 76.9951 33.1805L77.1248 33.1006C77.1465 33.0873 77.1683 33.0742 77.1902 33.0614C77.2103 33.0488 77.2326 33.0699 77.2443 33.088C77.2994 33.0593 77.3545 33.0318 77.4097 33.004C77.4498 32.9715 77.4913 32.9406 77.5318 32.9085C76.9358 32.8784 76.3407 32.8337 75.7465 32.7759ZM83.2207 25.686C82.7394 25.5893 82.2559 25.5754 81.7703 25.6477C81.5669 25.6776 81.3644 25.7136 81.1636 25.7571C81.6196 26.1559 81.9863 26.6663 82.2243 27.2536C82.4815 27.8885 81.4556 28.1622 81.202 27.5364C80.9574 26.9328 80.4944 26.4697 79.9351 26.1921C79.8142 26.2599 79.6971 26.3333 79.5852 26.4145C79.4389 26.5336 79.3011 26.6623 79.1717 26.8038C78.8897 27.1112 78.631 27.5216 78.4614 27.9279C78.3957 28.1491 78.3469 28.3767 78.3161 28.6107C78.3098 28.6638 78.3034 28.7181 78.2981 28.7723C78.1936 29.8729 78.5073 30.9438 79.0471 31.8914L79.0683 31.8917C79.55 31.6296 80.0544 31.4089 80.5734 31.229C80.989 30.9484 81.4205 30.6888 81.8647 30.4537C82.8091 29.9539 83.8066 29.5687 84.8344 29.3052L84.9531 29.2754C85.1952 29.2133 85.4395 29.1587 85.6848 29.1108L85.8321 29.083H85.8342L85.8183 28.9244C85.7356 28.3022 85.4928 27.7248 85.179 27.191C84.9436 26.7879 84.5884 26.3753 84.194 26.0456L84.1919 26.0444C84.0128 25.9423 83.8246 25.8579 83.6308 25.7881L83.5579 25.7626L83.2207 25.686ZM70.2966 24.7407C69.2958 24.6459 68.2949 24.6555 67.2941 24.7374C66.6399 24.8023 65.99 24.8926 65.3433 25.0075C64.9054 25.083 64.476 25.1894 64.0541 25.3213L64.2954 25.8109C64.6988 26.6263 65.112 27.4364 65.5988 28.2065C65.8501 28.6032 66.1226 28.9809 66.4194 29.3434C66.6198 29.6029 66.8403 29.8434 67.0821 30.0645C67.1457 30.1422 67.2135 30.2156 67.2824 30.2867C67.503 30.476 67.7404 30.642 68.0002 30.7792C68.2085 30.9313 68.426 31.0643 68.6527 31.1809L68.7381 31.2238L69.5333 31.53C69.5757 31.542 69.6186 31.5541 69.6616 31.5655L69.7262 31.5822L69.8471 31.6076L69.9378 31.5582C69.953 31.5501 69.9683 31.542 69.9839 31.5342C70.0093 31.5205 70.0273 31.5471 70.0326 31.5661C70.0348 31.5737 70.0316 31.5842 70.0263 31.5949L70.1422 31.532C70.3414 31.6132 70.5528 31.678 70.7796 31.7208C70.8822 31.74 70.985 31.7548 71.088 31.7675L71.1018 31.7767C71.1041 31.7783 71.1064 31.7801 71.1088 31.7821H71.2214C72.014 31.8588 72.8178 31.7575 73.6092 31.6149C74.729 31.5019 75.8486 31.3774 76.9675 31.2609C76.9888 31.2589 76.9972 31.2684 76.9972 31.2834L77.0661 31.277C77.1658 31.2662 77.2824 31.4332 77.2072 31.4939C77.2676 31.53 77.3259 31.5822 77.3694 31.6226L77.3948 31.6204C77.2411 31.3183 77.1223 31.0025 77.0375 30.674L76.9294 30.123C76.8997 29.9177 76.8827 29.6987 76.8795 29.4827C76.8721 29.3838 76.8668 29.2914 76.8668 29.2105C76.8668 29.1339 76.8679 29.0573 76.8711 28.9809C76.6601 28.8936 76.4459 28.8171 76.2275 28.7521C75.6073 28.6756 74.9881 28.599 74.3679 28.5235C73.9957 28.5373 73.6236 28.5639 73.2525 28.6053C72.8316 28.6426 72.4118 28.6904 71.993 28.7479C71.9538 28.7521 71.8838 28.6989 71.8414 28.6372L71.6622 28.6618C71.5689 28.6735 71.4714 28.4862 71.5943 28.4479C71.6389 28.4302 71.6834 28.4134 71.7279 28.3973L71.7947 28.3735L71.7566 28.3778C71.7438 28.3789 71.7279 28.3756 71.7099 28.3694C71.6113 28.382 71.5127 28.3948 71.4152 28.4065C71.2915 28.422 71.3196 28.2583 71.4064 28.2198L71.448 28.2044C71.3748 28.1586 71.3103 28.0331 71.4009 27.9921L71.4131 27.9874C71.4555 27.9705 71.4968 27.9566 71.5392 27.9406C71.536 27.9269 71.536 27.9141 71.5403 27.9025L71.3653 27.9247C71.3494 27.9268 71.4254 27.8148 71.4619 27.7927L71.4682 27.7896L71.5519 27.7641C71.5647 27.7279 71.6325 27.6482 71.6558 27.6408C71.9633 27.544 72.2496 27.4569 72.5485 27.3898C72.5634 27.3717 72.5804 27.3578 72.5994 27.3536C72.786 27.3089 72.9748 27.2738 73.1635 27.2442C73.1762 27.2249 73.1889 27.2112 73.2038 27.21C73.6713 27.1505 74.1399 27.1366 74.6107 27.1687C74.7008 27.1771 74.7909 27.1867 74.881 27.1983C75.0538 27.2176 75.2267 27.242 75.3984 27.275C75.8286 27.3491 76.2488 27.4616 76.6581 27.6135L76.7523 27.6493C76.8552 27.6876 76.9569 27.7279 77.0577 27.7717C77.1086 27.5898 77.1722 27.411 77.2474 27.2357C77.2591 27.2015 77.2718 27.1687 77.2856 27.1357L77.1828 27.0739C77.1605 27.1164 77.1149 27.1494 77.0852 27.1314C76.3484 26.6326 75.5691 26.2167 74.7474 25.8849C74.2873 25.6807 73.8166 25.5075 73.3342 25.3627C73.0935 25.2852 72.8507 25.215 72.6069 25.148C72.4849 25.1224 72.363 25.0968 72.239 25.0756C71.6018 24.9033 70.954 24.7917 70.2966 24.7407ZM94.5771 26.4288C94.4876 26.5838 94.3945 26.7374 94.2958 26.8888C93.8165 27.6247 93.2418 28.3152 92.5902 28.9173C92.7602 28.9168 92.9297 28.9233 93.0971 28.9391C93.3858 28.9664 93.6686 29.0145 93.9442 29.0818C93.9666 29.0638 93.9916 29.0548 94.0117 29.069L94.0835 29.1189C94.6748 29.279 95.23 29.5306 95.7328 29.8677L95.7238 29.8011C95.7223 29.7901 95.7206 29.779 95.7186 29.7679C95.7271 29.637 95.7292 29.5061 95.725 29.3764C95.6211 28.6096 95.3613 27.9034 95.0645 27.1889C95.0588 27.175 95.0629 27.1571 95.0714 27.1388C94.9216 26.8933 94.7576 26.6559 94.5771 26.4288ZM94.7135 20.4004C94.4919 20.4408 94.2725 20.4929 94.0541 20.5578C93.6438 20.6196 93.2462 20.7281 92.8624 20.8822C92.3333 21.0704 91.8202 21.2895 91.3091 21.5214C90.3168 21.9723 89.3859 22.5424 88.5388 23.2294C88.4847 23.2708 88.4328 23.3134 88.3808 23.356C88.191 23.5207 88.0066 23.693 87.8316 23.8749C87.6482 24.0748 87.4637 24.2748 87.2803 24.4757C87.0555 24.712 86.7968 24.9256 86.5933 25.1809C86.5519 25.233 86.5159 25.2904 86.483 25.3479L86.6028 25.3893C86.7036 25.4233 86.6866 25.6126 86.5869 25.585C86.553 25.5754 86.5212 25.5637 86.4894 25.5511C86.5032 25.5691 86.5127 25.5872 86.5148 25.6031C86.5212 25.6541 86.482 25.7244 86.4194 25.7063C86.3908 25.6988 86.3622 25.6881 86.3335 25.6764C86.3251 25.7094 86.3187 25.7424 86.3187 25.7743C86.324 25.7764 86.3293 25.7785 86.3357 25.7797C86.4056 25.8042 86.5371 25.9136 86.5562 25.9882C86.571 26.0456 86.5223 26.1072 86.4597 26.0901C86.4131 26.0774 86.3675 26.0582 86.3229 26.037C86.3526 26.0658 86.3759 26.0966 86.3781 26.1232C86.3823 26.1721 86.3399 26.2412 86.2816 26.2253C86.1734 26.1954 86.0865 26.1498 86.0144 26.0924C85.9953 26.1178 85.9678 26.138 85.9455 26.1317L85.9041 26.119C85.9155 26.1295 85.9258 26.1407 85.9359 26.1516L85.9508 26.1678C86.2434 26.4847 86.4989 26.8357 86.7036 27.2133C86.7131 27.2026 86.7248 27.193 86.7396 27.1813C86.835 27.1005 86.9336 27.0218 87.0322 26.9453L87.062 26.9192L87.0927 26.8931L86.8711 26.9665L86.876 26.9607C86.8916 26.9406 86.9404 26.8736 86.9631 26.8512L86.9686 26.8463C87.2729 26.5731 87.6047 26.3411 87.9631 26.1519C88.1953 26.0008 88.4391 25.8732 88.6946 25.7679C89.3043 25.4839 89.9256 25.2682 90.5638 25.0682C90.6592 25.0374 90.7547 25.0044 90.8501 24.9745C90.8776 24.965 90.8829 24.9767 90.8787 24.9958L90.9285 24.9809C91.0176 24.9522 91.1692 25.1096 91.1088 25.183C91.1452 25.2128 91.181 25.2459 91.2123 25.2771L91.2349 25.3L91.2604 25.2925C91.3361 25.2691 91.4639 25.3875 91.5451 25.4714L91.6049 25.535C91.6505 25.5839 91.7396 25.685 91.6304 25.7244L91.4936 25.7711C91.4979 25.7987 91.4862 25.8221 91.4438 25.8381C91.3961 25.854 91.3494 25.8711 91.3028 25.8882C91.3311 25.9129 91.3589 25.9387 91.3862 25.9647L91.4268 26.004C91.4748 26.0532 91.5887 26.1615 91.4882 26.2093L91.4756 26.2146L91.3452 26.2614C91.3622 26.2997 91.3579 26.3359 91.3007 26.3571C90.5394 26.6166 89.7962 26.9209 89.07 27.2665C88.5261 27.5684 87.9514 27.794 87.346 27.9417C87.2962 27.9578 87.1881 27.8823 87.1435 27.8068L87.0531 27.8334C87.0381 27.8378 87.023 27.8421 87.0078 27.846L86.993 27.8493C87.1064 28.1524 87.1902 28.4809 87.2368 28.7989C87.2421 28.8276 87.2464 28.8575 87.2496 28.8862C87.3683 28.8765 87.486 28.868 87.6047 28.8618C88.4264 28.818 89.2576 28.8446 90.0814 28.9425C90.4143 28.7436 90.7345 28.5256 91.0409 28.2896C91.1342 28.2172 91.2265 28.1427 91.3176 28.0672C91.8647 27.5908 92.3598 27.0559 92.7988 26.4783C93.2048 25.9434 93.5579 25.3691 93.8547 24.7673C94.1177 24.2024 94.335 23.6154 94.4994 23.0092C94.6499 22.4551 94.7019 21.9159 94.74 21.3427C94.7527 21.2491 94.7612 21.1556 94.7686 21.0619L94.7678 21.0218L94.7665 21.0023C94.7559 20.8014 94.7358 20.6003 94.7135 20.4004ZM86.9453 27.5227C86.9209 27.5312 86.8955 27.5397 86.87 27.5472C86.8848 27.5801 86.8986 27.6121 86.9124 27.645L86.914 27.6443L87.0142 27.5652C86.993 27.5557 86.9686 27.5409 86.9453 27.5227ZM94.5651 18.8924C94.7559 18.8211 94.9001 18.8073 94.9977 18.852C94.8535 18.8626 94.7093 18.8764 94.5651 18.8924Z" fill="black"/>
<path fill-rule="evenodd" clip-rule="evenodd" d="M91.3535 64.4107C90.6758 64.4162 89.914 64.1611 89.4046 63.9614L89.2718 63.9086C88.8308 63.7315 88.378 63.5281 88.0402 63.1869C87.9322 63.076 87.8172 62.9505 87.7588 62.8185C87.7246 62.7412 87.7104 62.6611 87.7435 62.5816C87.8656 62.5696 87.9813 62.5539 88.091 62.5338C88.1431 62.5242 88.1931 62.5143 88.2315 62.5141C88.3728 62.5132 88.5126 62.5312 88.6522 62.5489C88.6725 62.5515 88.6927 62.554 88.7129 62.5565C88.8217 62.57 88.9299 62.5846 89.0379 62.5992C89.3521 62.6415 89.6646 62.6835 89.9834 62.6988C90.2135 62.7099 90.4548 62.6969 90.6983 62.6836C91.3297 62.6491 91.9825 62.6021 92.469 63.0457C92.5964 63.1619 92.6496 63.3082 92.6496 63.4573C92.6496 63.6385 92.5736 63.8229 92.4577 63.9676C92.1951 64.2951 91.7909 64.4071 91.3535 64.4107ZM95.0486 58.6975C94.7538 59.1412 94.2626 59.4265 93.5896 59.3955C92.252 59.3341 90.6555 58.8279 89.5352 58.0958C89.2435 57.9053 89.0543 57.6006 89.0204 57.2741L88.96 56.6934L88.6338 57.177C88.5998 57.2274 88.5656 57.2776 88.5313 57.3279C88.4368 57.4664 88.3425 57.6048 88.2534 57.7467C87.9116 58.2914 87.5983 58.8416 87.3138 59.4186C87.1124 59.8272 86.9651 60.2841 86.8175 60.7452C86.5681 61.5236 86.3273 62.2892 85.7946 62.8363C85.7141 62.9191 85.5903 62.9487 85.4769 62.934C85.377 62.9211 85.2792 62.872 85.2312 62.7742C84.5947 61.4758 85.4508 59.9113 86.1452 58.8237L86.2187 58.7101C86.8626 57.7272 87.9142 56.4264 89.1186 56.2496L89.2565 56.4702L89.457 56.3361C89.7849 56.1167 90.2177 56.1269 90.5966 56.2985L90.9755 56.4701C91.6809 56.7876 92.3767 57.0806 93.1399 57.241C93.1955 57.2527 93.2511 57.2637 93.3066 57.2738C93.3589 57.2834 93.4116 57.2923 93.4646 57.3006C93.4532 57.2484 93.441 57.1965 93.4287 57.1447C93.4158 57.0899 93.4028 57.0349 93.3888 56.9802C93.3744 56.9236 93.359 56.8674 93.3437 56.8114C93.2825 56.5881 93.2134 56.3668 93.1315 56.1501C92.8234 55.3356 92.3314 54.5737 91.8527 53.8471L91.7963 53.7616C91.7277 53.6575 91.6526 53.5489 91.5748 53.4365C91.2015 52.8973 90.7875 52.3121 90.7582 51.7246C91.2537 51.7559 91.6683 52.0647 92.0333 52.3336C92.5342 52.7023 92.9985 53.124 93.4196 53.5821C94.2364 54.4708 94.9694 55.6069 95.2909 56.7814C95.475 57.4539 95.394 58.1776 95.0486 58.6975ZM81.9798 51.9974L81.9797 51.9734C81.9811 51.2952 82.3749 49.7468 83.3482 49.7468C83.9562 49.7468 84.3254 50.8006 84.3893 51.887L84.3915 51.9312C84.4197 52.6066 84.235 54.0829 83.3482 54.0829C82.452 54.0829 81.989 52.6847 81.9798 51.9974ZM96.3092 51.7847L96.3094 51.7607C96.3079 51.0825 95.9141 49.5341 94.9408 49.5341C94.348 49.5341 93.9822 50.5359 93.9051 51.5929L93.8997 51.6743C93.8613 52.3268 94.0341 53.8702 94.9408 53.8702C95.837 53.8702 96.3 52.472 96.3092 51.7847ZM85.2577 47.4077C85.1287 47.4229 85.0004 47.4428 84.8721 47.4632C84.4978 47.523 84.1256 47.5948 83.7559 47.6785C83.0537 47.8375 82.3572 48.0383 81.674 48.2651C81.0347 48.4775 80.4054 48.7175 79.7761 48.9575C79.7426 48.9703 79.709 48.9831 79.6754 48.9959C79.4532 49.0807 79.2318 49.1756 79.0097 49.2708C78.6717 49.4158 78.3321 49.5618 77.9856 49.6717C78.8986 48.4055 80.3053 47.4673 81.6589 46.796C82.4312 46.4129 83.2506 46.104 84.0748 45.8509L84.5337 45.7126C85.2096 45.5126 85.9486 45.3278 86.5834 45.7266C86.8345 45.8844 86.9948 46.1296 87.0452 46.3946C87.0947 46.6546 87.0383 46.9333 86.8593 47.1659C86.7034 47.3685 86.5091 47.484 86.3023 47.5235C86.0741 47.5672 85.8322 47.5192 85.6121 47.4013C85.4357 47.3881 85.3836 47.3928 85.3314 47.3987L85.2577 47.4077ZM95.425 47.5366C94.9726 47.4379 94.5247 47.3983 94.0606 47.4125C93.8508 47.4188 93.6477 47.4514 93.4452 47.4841C93.1307 47.5349 92.8175 47.5874 92.4786 47.5257C92.3019 47.4935 92.1513 47.3898 92.035 47.2544C91.8991 47.0962 91.8091 46.8939 91.7803 46.7015C91.7505 46.5029 91.7801 46.3291 91.8534 46.1757C91.94 45.9944 92.0859 45.8416 92.2621 45.7078C92.7955 45.3027 93.7107 45.4002 94.3402 45.4821C94.9623 45.5632 95.5809 45.7567 96.1308 46.064C96.6733 46.3673 97.145 46.776 97.513 47.2754C97.8232 47.6964 97.9693 48.1809 98.1202 48.6743C97.4104 48.077 96.3241 47.7324 95.425 47.5366Z" fill="black"/>
</svg>
