<svg width="201" height="274" viewBox="0 0 201 274" fill="none" xmlns="http://www.w3.org/2000/svg">
<g clip-path="url(#clip0_145_1959)">
<path fill-rule="evenodd" clip-rule="evenodd" d="M24.079 248.987C28.0259 243.501 36.3446 242.594 41.6886 238.75C44.5037 236.642 47.4832 235.247 49.671 232.408C46.1876 228.411 50.4953 219.04 51.3818 213.629C54.8947 199.461 58.1437 185.066 62.3218 170.915C55.0813 173.117 56.9679 159.935 58.0017 156.887C58.0732 156.468 58.6046 156.384 58.9302 156.252C58.8395 155.653 58.5885 155.522 59.3491 155.357C59.6036 151.771 58.5647 147.754 60.4419 144.586C62.5587 141.128 67.6176 138.234 71.7972 138.186C74.7331 126.797 75.2712 121.425 89.1818 126.253C88.8744 125.144 88.7785 124.127 89.3145 123.006C91.4064 116.832 94.0354 110.078 96.3211 103.821C98.9558 96.6213 101.68 89.1763 105.204 82.2586C107.658 77.8657 115.336 76.6913 120.54 77.4185C121.781 75.2791 124.911 69.3619 128.869 70.73C128.898 68.9456 128.927 67.1606 128.951 65.3762C128.971 63.8245 128.804 62.2338 129.415 60.7607C130.062 59.2004 131.379 58.3769 132.926 57.7795C137.61 56.2689 142.989 53.8415 147.932 55.3435C152.249 57.2679 151.746 64.5055 153.836 68.44C156.764 64.1992 161.758 67.0425 162.814 71.5905C174.843 76.274 185.182 70.9536 185.952 89.3375C185.288 92.6889 184.725 95.8323 185.04 99.2161L185.403 99.2526C188.482 115.542 189.666 133.003 188.922 151.156C189.07 158.303 191.737 164.974 194.316 171.424C196.213 176.166 198.171 181.071 199.1 186.102C200.13 190.292 203.914 210.445 195.498 203.754C195.176 226.68 174.259 229.615 155.424 224.552C135.428 220.491 112.918 221.659 100.439 202.016C96.205 209.093 94.7441 213.462 93.6813 220.861C92.5153 226.282 90.8216 232.438 87.7089 236.023C90.3892 240.736 91.7019 246.477 91.5728 250.218C91.522 251.688 92.21 252.368 91.2208 253.282C86.4766 257.664 75.8907 257.714 67.841 259.664C62.3218 260.35 42.3647 262.976 39.3148 261.265C37.1876 261.845 39.6611 256.439 37.5344 256.323C36.8066 256.329 36.7091 255.424 35.962 255.457C31.1914 255.669 20.9062 257.039 23.3926 253.282L24.079 248.987Z" fill="white"/>
<path fill-rule="evenodd" clip-rule="evenodd" d="M25.2638 254.295C28.7809 255.038 32.3985 254.83 35.9622 255.12C35.8466 254.829 35.7502 254.531 35.675 254.227C31.9926 253.792 28.1308 253.585 24.6199 252.397C24.5375 252.783 24.4753 253.174 24.4504 253.569C24.4473 253.622 24.4546 254.212 24.3685 254.103C24.4753 254.239 25.1041 254.266 25.2638 254.295ZM43.0331 245.379C49.4342 243.322 56.2226 241.555 61.157 236.783L61.128 236.703C60.1124 236.422 58.9957 235.822 58.0184 236.475C54.8881 236.369 51.6194 235.297 49.4275 233.033C49.2776 233.064 49.133 233.107 48.992 233.161C44.774 240.171 35.7885 241.507 29.2081 245.568C26.5402 247.086 21.5715 251.171 27.9281 251.262C30.4378 251.632 32.9607 251.912 35.4915 252.1C35.6869 248.152 39.6882 246.423 43.0331 245.379ZM38.5591 255.488C39.8318 257.185 42.13 257.855 44.2089 257.689C45.7383 257.486 47.0878 256.961 48.6778 257.074C60.7345 256.626 72.5906 254.186 84.3476 251.694C94.878 249.764 86.8324 242.169 87.7096 236.023C86.2233 236.909 84.5384 237.556 82.8032 238.03C80.5687 244.107 74.4605 242.52 70.1358 239.609C68.4669 239.556 66.4347 239.806 65.0702 238.723C64.9903 238.787 64.9063 238.841 64.8198 238.887C63.7368 238.264 62.7455 237.611 61.6096 237.13C57.7711 243.471 49.6172 244.919 43.0751 247.366C39.0723 248.421 35.7948 251.443 38.5591 255.488ZM38.7773 260.921C42.1611 261.909 45.7414 261.738 49.2325 261.459C60.7013 260.488 72.0939 258.578 83.22 255.689C85.8588 255.003 90.9783 254.207 91.221 250.971C88.8719 253.981 84.6789 254.336 81.1561 255.112C69.593 257.327 57.7488 260.187 45.9229 259.635C43.4256 260.33 40.7033 259.781 38.5902 258.43C38.6567 259.26 38.7191 260.09 38.7773 260.921ZM101.306 155.212C99.5932 150.773 97.7361 146.393 95.9392 141.981C92.6062 143.806 88.8429 144.474 85.0003 144.899C84.9101 144.944 84.8142 144.983 84.7105 145.014C84.528 145.05 84.3751 145.033 84.2527 144.979C79.1285 145.508 73.9017 145.716 69.3939 147.764C67.6494 148.556 66.0127 149.624 64.531 151.094C62.9045 152.612 61.6108 154.438 60.7283 156.461C60.4546 157.085 60.3094 157.732 59.877 158.245C59.7469 158.935 59.5997 159.619 59.4996 160.315C59.2471 163.035 58.9024 165.901 59.9771 168.511C60.6433 170.11 62.0088 168.824 62.9145 168.198C64.3874 167.193 65.7436 166.04 67.0962 164.887C71.2499 161.071 76.1045 157.826 81.9312 157.29C88.2218 156.435 95.0382 155.368 101.306 155.212ZM103.827 155.221C104.172 156.083 104.512 156.948 104.845 157.814C106.498 157.538 110.016 156.886 111.456 156.143C110.943 156.16 110.435 155.899 110.305 155.3C110.247 155.036 110.157 154.788 110.087 154.529C109.218 151.765 108.478 148.945 107.252 146.294C106.053 143.496 104.626 140.777 103.536 137.937C101.687 137.823 98.7673 140.064 97.4468 140.978C99.8021 145.618 101.893 150.377 103.819 155.2C103.855 155.2 103.892 155.2 103.928 155.202L103.827 155.221ZM114.716 154.894C124.196 154.315 133.805 154.925 143.176 153.283C144.899 152.997 146.572 152.474 148.145 151.73C152.618 149.618 156.094 145.87 158.654 141.578C167.9 127.976 178.075 114.466 182.626 98.53C185.323 90.8167 185.848 79.2875 176.422 75.9687C172.242 74.4444 167.193 74.5377 163.595 71.772C164.002 73.2339 164.23 74.7638 164.44 76.1182C164.794 78.3266 165.142 80.612 164.855 82.8453C164.852 82.865 164.85 82.8843 164.846 82.9026C165.318 84.1596 163.833 85.3462 162.375 85.223C159.301 85.154 157.794 81.5446 154.712 81.434C153.587 81.394 152.916 82.0496 152.227 82.83C150.56 84.722 148.927 86.6499 146.913 88.2006C146.769 88.3106 146.577 88.1768 146.659 88.0084C147.676 85.8852 149.102 84.005 150.517 82.1181C153.451 77.5411 157.398 79.6471 160.736 82.43C161.386 82.8909 162.047 83.2646 162.716 83.1013C162.672 82.9441 162.66 82.7626 162.688 82.5598C162.936 80.7677 162.693 78.8788 162.441 77.101C161.863 73.7836 162.035 69.4566 158.76 67.4481C157.331 66.6585 155.602 66.5586 154.211 67.4547C154.467 68.0662 154.771 68.7543 154.815 69.4009C155.094 69.2087 155.283 69.2685 155.334 69.6853C154.25 72.807 152.476 75.6751 150.971 78.6187C149.798 80.8292 148.61 83.0321 147.407 85.227C147.051 85.906 146.75 86.6251 146.056 87.0018L146.053 87.0211C145.583 88.5343 145.583 90.16 145.221 91.6985C144.995 92.6462 144.745 93.5883 144.471 94.524C144.213 95.4015 143.944 96.276 143.664 97.1471C140.372 108.289 137.254 119.483 134.044 130.65C137.844 128.731 139.771 125.143 141.51 121.477C146.098 112.028 150.903 101.713 156.037 92.9956C151.262 102.907 144.712 126.125 136.555 131.897C135.311 132.702 133.955 133.308 132.539 133.789C131.947 134.312 131.327 134.425 130.911 134.286C128.348 134.988 125.663 135.392 123.144 135.908C118.774 136.803 114.403 137.694 110.031 138.579C108.553 138.877 107.067 139.277 105.557 139.347C105.481 139.351 105.408 139.349 105.34 139.34C108.668 143.076 110.909 148.178 112.189 152.961C113.232 152.667 114.414 153.754 114.716 154.894ZM152.24 155.306C159.635 166.144 171.223 172.868 180.766 181.617C186.484 187.5 191.043 194.331 196.258 200.626C196.419 200.821 196.581 201.016 196.743 201.209C197.145 201.693 197.704 202.224 198.027 202.692C198.035 202.705 198.044 202.718 198.053 202.73C198.808 201.189 198.395 199.218 198.423 197.461C198.307 194.451 197.904 191.467 197.299 188.517C195.323 176.672 188.521 166.13 187.041 154.218C187.09 141.548 187.735 128.843 186.642 116.178C186.243 110.397 185.824 104.613 185.231 98.8464C181.135 113.708 169.176 129.739 162.387 140.002C159.648 143.924 157.196 148.204 153.339 151.205C152.418 151.913 151.434 152.539 150.399 153.075C151.092 153.746 151.685 154.511 152.24 155.306ZM128.02 97.3479C127.002 97.0873 124.754 96.8261 123.585 96.0757C122.978 98.0994 122.328 100.111 121.636 102.108C123.311 101.624 125.123 101.851 126.849 102.035C129.097 102.275 131.342 102.535 133.586 102.808C135.641 103.058 137.695 103.318 139.748 103.585C140.48 101.019 141.22 98.456 141.968 95.8951C137.685 97.8337 132.605 98.104 128.02 97.3479ZM125.69 78.0502C125.695 77.8656 125.742 77.6843 125.825 77.5188L125.864 77.4412C126.214 76.2216 126.569 75.0035 126.93 73.7872C126.985 73.5823 127.317 73.6224 127.311 73.8379C127.313 73.9885 127.315 74.1376 127.316 74.2887C127.34 74.2261 127.363 74.1632 127.385 74.1C127.831 72.83 128.164 71.5244 128.378 70.198C124.541 70.9708 121.38 79.1511 119.594 84.9994C121.063 84.5531 122.988 84.4517 123.558 85.6398C124.266 83.1089 124.968 80.5771 125.69 78.0502ZM131.643 126.49C130.687 126.429 129.73 126.371 128.774 126.306C126.818 126.173 124.862 126.035 122.905 125.9C122.436 125.868 121.967 125.834 121.497 125.8C120.169 125.729 118.84 125.657 117.511 125.588C116.042 125.512 114.556 125.381 113.076 125.328C112.797 125.322 112.519 125.318 112.24 125.315C112.185 125.424 112.128 125.531 112.067 125.633C114.018 126.16 115.799 126.77 117.227 127.386C120.472 128.774 123.591 130.601 126.256 132.898C126.749 132.798 127.243 132.697 127.736 132.594C129.089 132.309 130.46 132.003 131.781 131.568C132.119 130.759 132.229 129.809 132.516 129.011L133.2 126.614C132.679 126.606 132.147 126.522 131.643 126.49ZM134.872 119.956L134.82 119.95H134.813C134.172 119.928 133.532 119.896 132.893 119.851C132.04 119.792 131.188 119.713 130.338 119.622C128.634 119.441 126.936 119.213 125.236 119.002C124.234 118.877 123.236 118.77 122.238 118.679C119.906 118.527 117.567 118.412 115.238 118.38C114.492 120.113 113.735 121.841 112.972 123.566C112.9 123.727 112.831 123.902 112.76 124.083C116.184 124.02 119.623 124.337 123.036 124.536C124.948 124.648 126.862 124.756 128.774 124.872C129.731 124.929 130.687 124.993 131.643 125.054C132.282 125.094 132.968 125.067 133.607 125.185L134.012 123.763C134.366 122.535 134.716 121.305 135.066 120.076C134.998 120.044 134.933 120.004 134.872 119.956ZM137.786 110.497C138.334 108.557 138.885 106.618 139.436 104.68L139.125 104.638L137.962 104.482C136.445 104.281 134.928 104.084 133.41 103.892C132.678 103.832 131.946 103.774 131.213 103.721C127.902 103.483 124.563 103.261 121.241 103.243C120.541 105.217 119.81 107.18 119.047 109.132C121.873 109.3 124.696 109.522 127.518 109.744C129.931 109.933 132.344 110.133 134.755 110.343L136.07 110.459C136.323 110.481 136.654 110.566 136.938 110.567C136.976 110.538 137.015 110.51 137.055 110.484C137.263 110.344 137.569 110.368 137.786 110.497ZM137.125 112.134C135.261 111.911 133.402 111.673 131.54 111.452C130.506 111.354 129.473 111.257 128.44 111.163C125.156 110.863 121.868 110.604 118.584 110.309C117.691 112.556 116.77 114.793 115.821 117.018C119.842 116.759 123.937 117.419 127.913 117.875C130.036 118.119 132.164 118.339 134.301 118.417C134.639 118.429 135.112 118.412 135.517 118.5C136.069 116.559 136.62 114.619 137.169 112.678C137.161 112.497 137.146 112.316 137.125 112.134ZM104.11 138.07C104.251 138.201 104.389 138.336 104.526 138.475C104.523 138.431 104.522 138.388 104.523 138.344C104.521 138.342 104.518 138.341 104.517 138.34C104.4 138.226 104.262 138.135 104.11 138.07ZM106.598 82.5222C102.464 92.3151 98.8938 102.385 95.0216 112.297C93.78 115.663 92.5564 119.036 91.3998 122.431C90.9607 123.553 90.8 124.812 89.8984 125.694C89.8611 125.73 89.8202 125.764 89.7761 125.792C90.9872 126.289 92.0816 126.842 92.9629 127.399C92.5611 128.741 92.0669 130.054 91.4838 131.33C91.2749 131.784 91.9623 132.18 92.1723 131.723C92.9127 130.103 93.5188 128.428 93.9847 126.713C94.5701 125.943 95.2466 125.251 96.1238 124.82C97.8165 124.219 99.9509 124.011 102.251 124.078C102.291 124.01 102.34 123.948 102.397 123.893C103.159 123.176 103.461 122.036 103.84 121.087C104.942 118.315 105.88 115.484 106.65 112.607C107.408 109.759 107.877 106.844 108.664 104.003C108.824 103.505 109.32 101.103 109.782 101.236C109.773 101.291 109.765 101.344 109.757 101.398C109.78 101.383 109.807 101.376 109.834 101.377C110.02 107.254 108.447 113.174 106.646 118.759C106.147 120.62 105.014 122.36 104.651 124.238C106.246 124.404 107.831 124.655 109.398 124.991C109.422 124.867 109.452 124.744 109.49 124.623C109.511 124.451 109.565 124.316 109.641 124.213C109.838 123.744 110.099 123.285 110.292 122.862C110.688 121.987 111.082 121.111 111.471 120.233C113.592 115.426 115.6 110.567 117.371 105.625C119.555 99.6324 121.341 93.524 123.065 87.3994C121.911 88.0028 119.691 86.7965 118.331 89.5535C118.037 90.2482 117.384 90.7441 116.574 90.5271C115.864 90.3364 115.327 89.5276 115.577 88.8121C115.613 88.695 115.652 88.5794 115.696 88.4663C117.021 84.6272 118.094 80.6861 120.006 77.0726C115.098 77.5569 109.293 77.9007 106.598 82.5222ZM60.8838 146.705C60.4597 148.664 60.7324 150.725 60.847 152.719C62.787 150.202 65.2454 148.053 68.1217 146.622C68.313 145.362 69.1254 144.265 69.5002 143.042C70.1928 141.316 70.7543 139.553 71.2592 137.772C66.5695 138.727 62.0047 142.053 60.8838 146.705ZM77.8869 161.714C76.2948 170.105 73.7653 178.286 71.913 186.62C71.8041 187.109 72.5735 187.317 72.6823 186.827C74.5347 178.492 77.0636 170.312 78.6562 161.921C78.7495 161.43 77.9802 161.222 77.8869 161.714ZM78.7045 238.861C77.4338 239.034 76.1652 239.186 74.8867 239.318C77.4322 240.359 79.8051 240.104 81.8762 238.267C80.816 238.518 79.7475 238.711 78.7045 238.861ZM22.6271 251.225C22.6986 250.892 22.8868 250.676 23.1243 250.56C23.088 243.576 38.1194 241.306 42.6744 236.859C44.7579 235.421 46.2738 233.044 48.6939 232.154C47.3247 230.084 47.6928 227.421 47.9966 225.096C48.6612 220.854 50.3311 216.113 50.7676 213.491C54.0623 200.011 57.2579 186.499 60.986 173.126C61.0622 172.87 61.2027 172.364 61.38 171.804C60.9782 171.899 60.594 171.93 60.2337 171.885C55.0037 170.752 56.178 160.422 57.4067 156.678C57.5384 156.237 57.8453 155.958 58.2056 155.826C58.1595 155.598 58.2014 155.355 58.3679 155.123C58.4605 154.998 58.5923 154.907 58.7432 154.863C58.9013 151.31 57.993 147.491 59.9076 144.245C62.0591 140.695 67.1916 137.758 71.3214 137.552C71.9135 135.459 72.4319 133.344 73.0038 131.248C73.6311 129.052 74.5248 126.693 76.4036 125.22C78.8346 123.108 84.023 123.752 88.3271 125.245C88.0917 124.145 88.6278 123.15 88.9559 122.119C90.0278 119.035 91.1271 115.959 92.2537 112.894C96.2918 102.558 99.6082 91.844 104.659 81.934C106.751 78.5746 110.773 77.0609 114.634 76.7491C116.446 76.5711 118.372 76.5021 120.201 76.7115C120.259 76.6026 120.319 76.4944 120.38 76.387C121.879 73.8511 124.92 69.1296 128.42 69.9399C128.789 67.5287 128.794 65.0577 128.49 62.645C128.468 62.4736 128.756 62.3995 128.828 62.5552C131.147 67.6352 130.716 73.8861 127.886 78.6953C127.679 79.0294 127.397 79.2018 127.104 79.251C126.654 84.3011 125.527 89.2847 124.138 94.1761C124.347 94.1837 124.547 94.2268 124.715 94.2993C129.148 95.885 134.023 96.1431 138.637 95.2172C139.936 94.9499 141.194 94.5904 142.458 94.2238C142.697 93.414 142.937 92.6062 143.178 91.7974C143.781 89.2417 143.935 86.7863 145.467 84.7281C145.558 84.5765 145.651 84.4258 145.74 84.2752C146.971 82.0977 148.218 79.9283 149.479 77.7673C149.785 77.4128 151.83 73.4768 153.422 71.0966C153.222 71.0915 153.016 71.0423 152.815 70.9434C151.693 70.3968 151.705 68.8116 151.5 67.7483C150.872 64.4436 150.146 61.1333 149.947 57.7718C149.936 57.6005 150.205 57.5279 150.283 57.6836C151.814 60.6465 152.875 63.8173 154.008 66.9405C154.031 67.0029 154.054 67.0662 154.079 67.1311C155.13 65.8381 156.974 65.5303 158.58 65.8781C161.265 66.5627 162.619 68.6935 163.399 71.1163C171.118 74.7141 180.303 71.0398 184.988 80.5588C187.098 85.5333 187.058 91.1737 185.691 97.0442C189.251 114.84 190.365 133.045 189.625 151.152C189.888 163.401 197.581 174.027 199.786 185.947C200.886 190.645 201.576 195.461 201.491 200.288C201.659 202.838 200.508 206.603 197.163 205.611C196.781 205.478 196.435 205.272 196.116 205.024C194.718 225.675 178.422 229.67 159.639 226.113C158.879 226.126 158.131 225.955 157.332 225.735C156.944 225.622 156.557 225.504 156.172 225.379C155.883 225.312 155.592 225.243 155.3 225.172C155.085 225.129 154.868 225.088 154.652 225.046C149.296 221.588 143.734 218.438 138.442 214.883C138.07 214.632 137.613 215.215 137.959 215.495C141.494 218.349 144.954 221.329 148.632 224.012C138.153 222.385 127.491 222.662 117.708 218.447C110.842 215.513 104.381 209.635 100.491 203.294L100.316 203.596C100.506 203.072 100.694 202.547 100.881 202.022C104.198 192.694 107.199 183.258 110.824 174.037C111.009 173.568 110.237 173.367 110.055 173.83C109.041 176.416 108.067 179.017 107.131 181.631C103.77 190.982 100.767 200.454 97.1876 209.73C97.1669 209.784 97.1601 209.833 97.1617 209.879C96.4146 211.679 95.8034 213.513 95.3793 215.393C94.9402 217.36 94.2979 221.561 93.6628 225.096C93.106 228.012 92.7011 231.394 90.6274 233.633L90.6346 233.646C90.7077 233.786 90.7777 233.924 90.8456 234.061C90.6989 234.204 90.5123 234.297 90.3396 234.404C90.3127 234.282 90.2868 234.16 90.2577 234.035C89.7495 234.558 89.192 235.032 88.5925 235.451C89.2701 240.348 94.3212 245.092 91.7057 250.218C92.9526 253.02 89.8928 255.3 87.3747 255.878C83.5145 257.084 79.5308 257.99 75.5778 258.85C67.7505 260.276 43.2545 265.543 37.3905 261.443C37.475 260.567 36.3728 257.724 37.6736 257.682C37.0976 257.125 36.619 256.479 36.2567 255.771C32.6681 256.911 28.6798 256.503 25.0259 256.082C22.0708 256.145 22.1791 253.333 22.6271 251.225Z" fill="black"/>
<path fill-rule="evenodd" clip-rule="evenodd" d="M149.829 11.9648C130.124 11.0186 116.755 26.1962 116.18 32.2483C115.781 36.45 116.051 42.0528 116.051 45.8072C116.051 47.7235 115.062 53.5479 116.18 56.341C118.669 62.5573 121.481 67.4269 129.273 67.4269C137.065 67.4269 148.943 63.4823 153.022 58.3952C153.767 57.4662 163.021 50.6667 163.021 45.322C163.021 33.9186 163.889 12.6402 149.829 11.9648Z" fill="white"/>
<path fill-rule="evenodd" clip-rule="evenodd" d="M163.271 -0.350822C162.148 -0.693613 161.431 -0.200217 160.92 0.564469C160.808 0.543172 160.698 0.544185 160.577 0.573089C160.547 0.580188 160.474 0.607064 160.419 0.627855C160.377 0.645603 160.338 0.666393 160.302 0.688705L160.279 0.677549C160.195 0.587795 160.107 0.505646 160.011 0.439725C159.796 0.291655 159.575 0.248554 159.365 0.27898L159.268 0.243484C158.437 -0.0389635 157.535 0.0923706 156.972 0.791643C156.863 0.927035 156.775 1.07713 156.699 1.23585C156.53 1.29011 156.372 1.3682 156.235 1.46404C156.139 1.42043 156.038 1.38291 155.929 1.35603C155.316 1.20238 154.672 1.34741 154.172 1.71454C153.928 1.89303 153.75 2.11717 153.614 2.37223C153.459 2.40773 153.306 2.47162 153.163 2.55732C153.04 2.49748 152.915 2.4412 152.787 2.40266C152.316 2.26296 151.822 2.20983 151.33 2.24597C150.28 2.32203 149.265 3.4934 149.966 4.49946L149.988 4.52989C150.075 4.64962 150.155 4.77443 150.226 4.90361C149.975 5.0101 149.733 5.1531 149.509 5.3326C148.415 6.20784 148.317 7.5577 148.522 8.83099L148.53 8.88373H148.528C147.947 8.93799 147.445 9.53077 147.788 10.0881L147.805 10.1144C148.27 10.8157 148.668 11.5901 149.112 12.3284C150.338 12.7554 151.519 13.2946 152.641 13.9389C153.336 14.5337 153.997 15.162 154.58 15.8612C154.87 16.212 155.138 16.58 155.382 16.9631C155.186 17.0554 154.944 17.0509 154.739 16.8653C152.916 15.2157 150.714 14.058 148.37 13.2822C148.296 13.2597 148.228 13.2227 148.169 13.1735C148.11 13.1244 148.062 13.064 148.028 12.9962C146.987 12.7069 145.928 12.4821 144.858 12.3233C144.563 12.049 144.254 11.7863 143.961 11.513C143.586 11.1646 143.117 11.1697 142.766 11.3887C142.592 11.3112 142.414 11.2427 142.233 11.1808L142.121 11.1438C142.074 11.1286 142.029 11.1114 141.983 11.0977C140.728 10.7224 139.58 10.8619 138.345 11.1697L138.187 11.2102C137.612 11.3593 137.25 11.3355 136.693 11.1981L136.63 11.1824C136.037 11.0317 135.404 10.9197 134.799 11.0784C134.166 11.2447 133.745 11.6144 133.314 12.0611L133.271 12.1063C133.07 12.3167 132.953 12.3395 132.69 12.3345L132.407 12.3263C131.342 12.2979 130.299 12.3416 129.501 13.1463C129.206 13.444 128.89 13.8648 128.7 14.2497L128.672 14.307L128.649 14.3552C128.534 14.3369 128.356 14.2665 128.271 14.2502C127.11 14.0302 126.141 14.3694 125.396 15.2629C125.233 15.4581 124.986 15.842 124.816 16.0534C124.756 16.1026 124.7 16.1559 124.646 16.2116C124.366 16.3861 123.97 16.3749 123.656 16.4363C122.801 16.6026 121.887 16.9205 121.452 17.7152C121.27 18.0473 121.203 18.4099 121.126 18.7729C120.838 18.9575 120.613 19.2232 120.438 19.5113C120.226 19.8606 120.135 20.2886 119.89 20.6182C119.712 20.8581 119.44 20.9864 119.182 21.1329L119.083 21.1892C118.317 21.6354 117.717 22.1298 117.464 23.003L117.443 23.0806C117.402 23.2145 117.258 23.5958 117.383 23.5385C117.275 23.5968 117.092 23.6171 116.994 23.6491C116.462 23.8205 116 24.0984 115.717 24.5857C115.502 24.9569 115.463 25.3433 115.401 25.752L115.375 25.9173L115.352 26.0491L115.344 26.0932L115.342 26.0942C115.246 26.1348 115.151 26.1789 115.058 26.2261C114.617 26.4796 114.316 26.9193 114.316 27.4284C114.316 27.6753 114.395 27.868 114.51 28.0399C114.417 28.1774 114.345 28.3239 114.291 28.4872C114.184 28.8067 114.177 29.1555 114.212 29.4856C114.255 29.8817 114.36 30.2427 114.482 30.621C114.53 30.7671 114.548 30.9709 114.62 31.1103C114.489 31.2736 114.41 31.4734 114.435 31.6707C114.469 31.9526 114.601 32.2817 114.862 32.4399C114.99 33.056 115.265 33.6853 115.536 34.1884C115.567 34.2472 115.605 34.2989 115.646 34.342C115.609 36.3521 115.76 38.3764 115.77 40.3839C115.782 42.569 115.735 44.7555 115.657 46.938C115.525 50.5556 115.056 54.2964 116.15 57.8237C117.044 60.711 118.836 63.1897 121.238 65.0689C123.683 66.9874 126.681 68.1095 129.811 68.2778C131.413 68.365 133.042 68.1875 134.591 67.7823L134.757 67.7382C136.257 67.3361 137.993 66.7215 139.096 65.6455C139.679 65.0765 139.09 63.8717 138.235 64.2028C137.389 64.5319 136.63 65.0182 135.79 65.361C135.038 65.6649 134.259 65.9037 133.464 66.0745C131.875 66.4239 130.188 66.4999 128.572 66.2829C122.738 65.503 118.192 60.7709 117.295 55.1599C117.047 53.6057 117.051 52.0261 117.068 50.4562L117.086 48.7357C117.1 47.2966 117.106 45.8564 117.052 44.4178C116.983 42.5665 116.849 40.7166 116.67 38.8728L116.576 37.9134C116.465 36.7912 116.34 35.6599 116.125 34.553C116.301 34.5621 117.693 32.2366 118.466 30.9369C118.748 30.7189 118.986 30.4471 119.078 30.0962C119.096 30.0235 119.108 29.9493 119.113 29.8746C119.28 29.6178 119.457 29.3673 119.644 29.1236L119.685 29.1058C119.709 29.0953 119.732 29.0839 119.755 29.0719C120.302 28.7631 120.718 28.2742 120.93 27.6926C121.262 27.3733 121.611 27.0706 121.975 26.7859C122.011 26.758 122.048 26.7322 122.084 26.7048C122.549 26.5349 122.957 26.2798 123.254 25.9122C123.379 25.8372 123.504 25.7631 123.63 25.6911C124.009 25.6876 124.391 25.6019 124.764 25.4523C125.445 25.1785 125.989 24.6389 126.673 24.3884C127.397 24.1242 128.16 24.7251 128.929 24.6166C129.127 24.5882 129.32 24.5308 129.5 24.4462C129.933 24.894 130.393 25.3164 130.9 25.686C131.635 26.2225 132.387 26.468 133.239 26.7104C133.662 27.1018 134.135 27.4811 134.705 27.5369C136.025 28.5673 137.437 29.437 138.922 30.2437C139.136 30.3641 139.377 30.4295 139.624 30.4339C140.09 30.7194 140.598 30.939 141.136 31.0911C141.302 31.1374 141.477 31.1501 141.648 31.1286L142.114 31.4993C142.439 31.7574 142.785 31.8806 143.116 31.8887C143.318 32.0393 143.527 32.1818 143.741 32.3192C143.971 32.4663 144.27 32.5272 144.57 32.5094C145.028 32.9475 145.623 32.9932 146.12 32.7919C146.293 32.8933 146.479 32.9732 146.672 33.0297C146.929 33.3008 147.247 33.5102 147.601 33.6415C147.955 33.7729 148.335 33.8228 148.711 33.7873C149.28 34.1275 149.942 34.3045 150.588 34.2644C150.687 34.7487 150.769 35.2345 150.838 35.7218L150.845 36.0793C150.845 36.1234 150.845 36.1675 150.845 36.2116L150.844 36.2233C150.781 37.7892 150.746 39.3551 150.684 40.921L150.678 41.0447C150.607 42.4123 150.263 44.9061 152.321 44.8519C153.088 44.8316 153.849 44.2799 154.446 43.8266L154.531 43.7622C154.578 43.7268 154.624 43.6913 154.671 43.6557C155.117 43.5989 155.557 43.4929 156.008 43.4767C156.574 43.4589 157.14 43.5127 157.692 43.6369C158.648 43.8539 159.574 44.2794 160.198 45.0502C160.252 45.1176 160.304 45.1874 160.351 45.2596C160.396 45.4053 160.471 45.5406 160.571 45.6571C161.162 46.9533 160.82 48.6662 160.168 49.8523C159.391 51.2645 158.16 52.2412 156.613 52.733L156.536 52.7574C155.479 53.0799 155.075 53.7046 154.5 54.5732C153.962 55.3881 153.344 56.1478 152.682 56.8688C151.398 58.2643 149.597 59.4159 148.851 61.1821C148.701 61.5376 149.132 61.8728 149.466 61.7815C150.775 61.4225 151.693 60.5117 152.645 59.6066C153.305 58.9814 153.935 58.3258 154.531 57.6421C154.656 57.6984 154.793 57.7364 154.936 57.7532C155.566 57.8287 156.217 57.7973 156.768 57.4657C156.898 57.476 157.029 57.46 157.152 57.4188C157.275 57.3775 157.389 57.3118 157.485 57.2258C157.66 57.0688 157.817 56.8931 157.953 56.702C158.153 56.7192 158.349 56.7243 158.536 56.6939C158.626 56.6861 158.713 56.6626 158.794 56.6244C158.954 56.5626 159.098 56.4662 159.214 56.3425C159.477 56.0666 159.578 55.6772 159.53 55.3075C159.73 55.2665 159.919 55.1826 160.083 55.0618C160.246 54.941 160.38 54.7863 160.476 54.6087C160.777 54.4425 161.046 54.2257 161.271 53.9683C161.526 53.6772 161.718 53.3376 161.833 52.9708C161.951 52.9176 162.065 52.8552 162.173 52.7842C162.953 52.268 163.4 51.2995 163.094 50.404L163.083 50.3761C163.068 50.3355 163.039 50.2671 163.005 50.1895C163.01 50.1261 163.015 50.0632 163.019 49.9998L163.03 49.8092L163.186 49.7443C163.966 49.4415 164.493 49.0323 164.587 48.1753C164.607 47.9979 164.536 47.8173 164.425 47.6662L164.425 47.6186C164.473 47.5945 164.521 47.5684 164.567 47.5405C164.992 47.2747 165.253 46.7996 165.224 46.3077C165.197 45.86 164.943 45.5025 164.657 45.1724L164.575 45.0796L164.553 45.0547L164.742 44.9964C164.851 44.9661 164.956 44.9258 165.058 44.8762C165.37 44.7053 165.635 44.4741 165.798 44.18C165.822 44.144 165.847 44.108 165.868 44.0689C166.079 43.6932 166.107 43.2115 165.971 42.8078C165.955 42.7602 165.934 42.7155 165.913 42.6709C166.487 42.4731 166.93 42.0639 166.983 41.3104C167.004 41.0169 166.938 40.7236 166.793 40.4661C166.825 40.2942 166.831 40.1185 166.811 39.9448C167.013 39.7582 167.17 39.5336 167.24 39.2592C167.373 38.7415 167.13 38.2486 166.769 37.7968C166.903 37.4393 166.909 37.0362 166.757 36.6766C166.817 36.4941 166.849 36.3039 166.851 36.1123C166.857 35.7187 166.734 35.3336 166.499 35.0139C166.808 34.6447 166.955 34.1544 166.772 33.695C166.642 33.3684 166.494 33.0692 166.323 32.7929C166.418 32.5677 166.466 32.3261 166.465 32.0824C166.465 31.6073 166.283 31.231 166.004 30.9232C166.125 30.3609 165.879 29.6758 165.342 29.4283C165.14 29.335 164.869 29.2377 164.571 29.1616C164.284 28.2836 163.958 27.4182 163.594 26.5679C163.721 26.6767 163.854 26.778 163.994 26.8711C164.431 27.4137 165.011 27.8848 165.498 28.1662C166.465 28.724 167.569 28.3934 168.047 27.4593C168.495 27.7864 169.033 27.9796 169.607 27.9137C170.258 27.8386 170.853 27.4269 171.015 26.7849C171.04 26.6885 171.053 26.5896 171.054 26.4903C171.428 26.7499 171.818 26.9888 172.246 27.1252C172.792 27.2996 173.349 26.8818 173.421 26.361C173.449 26.1748 173.416 25.9847 173.326 25.8184L173.379 25.7981C173.525 25.7351 173.657 25.6444 173.767 25.5313C173.877 25.4181 173.962 25.2847 174.019 25.1389C174.639 25.3732 175.348 25.0983 175.545 24.433C175.774 23.664 175.797 22.85 175.61 22.07C176.266 21.6045 176.694 20.8211 176.767 20.0021C176.82 19.4139 176.676 18.8713 176.423 18.3693C177.044 18.1426 177.258 17.348 176.962 16.775C177.354 16.556 177.61 16.0915 177.616 15.6391C177.791 15.3805 177.847 15.0464 177.702 14.6726C177.51 14.1803 177.12 13.768 176.674 13.4455C176.869 13.1124 177.013 12.7533 177.103 12.3796C177.296 12.3268 177.468 12.219 177.598 12.07C177.728 11.9209 177.809 11.7375 177.832 11.5429C177.909 10.9922 177.537 10.5257 177.038 10.4025C176.983 10.2351 176.915 10.0713 176.832 9.91362C177.079 9.34214 177.042 8.62005 176.724 7.99532C176.442 7.44259 175.983 7.10487 175.43 6.87161C175.57 6.40154 175.385 5.93299 174.917 5.58361C174.354 5.16413 173.728 4.83246 173.061 4.60037C173.119 3.83568 172.792 3.05224 172.018 2.78602C171.811 2.71502 171.596 2.68815 171.377 2.68916C171.218 2.35195 170.953 2.07762 170.607 1.83472C170.084 1.46759 169.106 1.69172 168.815 2.26777L168.801 2.29718C168.786 2.33014 168.77 2.35956 168.755 2.3915C168.696 2.10363 168.551 1.83912 168.34 1.63087C167.79 1.08981 167.21 1.07967 166.652 1.31141C166.549 1.06294 166.425 0.827139 166.274 0.611627C165.727 -0.171314 164.823 -0.270703 164.16 0.153222C163.895 -0.0749674 163.599 -0.250926 163.271 -0.350822ZM159.357 46.7144C158.255 46.293 156.917 46.4178 155.827 46.8224L155.748 46.8529C154.785 47.2245 153.222 48.0511 153.034 49.1084C152.936 49.6555 153.469 50.1291 154.01 49.8411C154.481 49.5906 154.745 49.0866 155.119 48.721C155.489 48.3589 155.904 48.0683 156.357 47.8128C157.3 47.2808 158.293 47.0739 159.357 46.9203C159.477 46.9041 159.444 46.7479 159.357 46.7144Z" fill="black"/>
<path fill-rule="evenodd" clip-rule="evenodd" d="M129.536 58.0645C130.417 57.7131 131.185 57.1357 131.759 56.3931C131.958 56.1355 132.009 55.8627 131.968 55.6137C131.915 55.3318 131.755 55.08 131.52 54.9094C131.288 54.7385 130.997 54.6543 130.716 54.6974C130.473 54.7344 130.23 54.8652 130.038 55.1355L129.997 55.1898C129.663 55.637 129.222 55.9981 128.714 56.242C128.229 56.4702 127.686 56.5767 127.125 56.5148C126.056 56.3966 125.319 55.8323 124.536 55.065C124.439 54.9682 124.342 54.8683 124.244 54.7669C124.186 54.681 124.101 54.6168 124.002 54.5848C123.893 54.5518 123.777 54.5533 123.67 54.5891C123.563 54.6249 123.47 54.6932 123.405 54.7841C123.345 54.8703 123.31 54.9768 123.322 55.099C123.393 55.8936 123.819 56.603 124.423 57.1598C125.094 57.7784 125.984 58.2064 126.821 58.3565C127.744 58.5218 128.685 58.4037 129.536 58.0645ZM126.386 45.8036C125.404 46.3862 123.909 47.7457 124.965 49.1904C126.208 50.4642 127.998 49.0038 128.879 48.3431C129.698 47.8309 130.616 49.1478 129.857 49.7457C123.484 54.3541 120.898 45.9562 125.89 45.1185C126.439 45.0262 126.643 45.6236 126.386 45.8036ZM137.807 40.4427C137.699 39.1278 135.648 38.8291 135.444 40.1303C135.261 41.2961 135.477 42.3666 136.014 43.4162C136.527 44.4187 137.819 43.9512 137.916 43.038C138.047 41.8144 137.874 41.2606 137.807 40.4427ZM122.198 39.8605C121.913 39.4949 121.5 39.2454 121.006 39.3864C119.46 39.8271 119.916 41.9695 120.458 43.0126C120.753 43.579 121.706 43.7225 122.137 43.2241C122.839 42.4107 123.175 40.787 122.282 39.9858C122.259 39.9447 122.232 39.9026 122.198 39.8605ZM136.036 34.6888L135.792 34.6472C135.036 34.5194 134.098 34.3972 133.564 34.99C133.28 35.3044 133.183 35.8885 133.564 36.1892C134.233 36.7191 134.974 36.5138 135.777 36.5584C136.432 36.5949 137.08 36.7029 137.711 36.8804C139.109 37.2709 140.248 37.9828 141.442 38.7652C141.598 38.8677 141.758 38.6719 141.683 38.5289C140.994 37.2105 139.659 36.1279 138.321 35.4677C137.607 35.1152 136.825 34.8226 136.036 34.6888ZM123.607 34.098L123.42 34.1355C121.387 34.5503 118.746 35.3794 117.783 37.3297C117.747 37.6055 117.786 37.6649 117.817 37.7034L117.828 37.7161C117.853 37.749 117.874 37.7947 117.997 37.8322C118.031 37.8242 118.065 37.8157 118.1 37.8068C118.541 37.6943 118.89 37.5386 119.228 37.3768L119.594 37.2009C120.019 36.997 120.448 36.8008 120.903 36.6558C121.873 36.3458 122.871 36.1305 123.884 36.0128C124.104 35.9879 124.315 35.9154 124.482 35.7912C124.65 35.6688 124.768 35.4927 124.817 35.2937C124.888 35.0133 124.868 34.8008 124.713 34.5478C124.605 34.3681 124.439 34.2285 124.242 34.1508C124.04 34.0728 123.819 34.0545 123.607 34.098Z" fill="black"/>
</g>
<defs>
<clipPath id="clip0_145_1959">
<rect width="201" height="274" fill="white" transform="matrix(-1 0 0 1 201 0)"/>
</clipPath>
</defs>
</svg>
